{
.appVersion = "3116";
classes = (
{
code = "alef-hb bet-hb gimel-hb dalet-hb he-hb vav-hb zayin-hb het-hb tet-hb yod-hb finalkaf-hb kaf-hb lamed-hb finalmem-hb mem-hb finalnun-hb nun-hb samekh-hb ayin-hb finalpe-hb pe-hb finaltsadi-hb tsadi-hb qof-hb resh-hb shin-hb tav-hb";
name = HebrewLetters;
},
{
automatic = 1;

glyphs = (
{
color = 6;
glyphname = A;
layers = (
{
anchors = (
{
name = bottom;
position = "{282, 0}";
},
{
name = ogonek;
position = "{595, 69}";
},
{
name = top;
position = "{419, 700}";
}
);
layerId = "25564DC9-970B-4408-86C9-55005BB51701";
paths = (
{
closed = 1;
nodes = (
"33 0 LINE SMOOTH",
"45 0 OFFCURVE",
"56 7 OFFCURVE",
"62 17 CURVE SMOOTH",
"148 159 LINE",
"476 159 LINE",
"502 22 LINE SMOOTH",
"505 8 OFFCURVE",
"512 0 OFFCURVE",
"527 0 CURVE SMOOTH",
"578 0 LINE SMOOTH",
"591 0 OFFCURVE",
"601 11 OFFCURVE",
"597 31 CURVE",
"487 678 LINE SMOOTH",
"485 691 OFFCURVE",
"478 700 OFFCURVE",
"460 700 CURVE SMOOTH",
"384 700 LINE SMOOTH",
"366 700 OFFCURVE",
"356 691 OFFCURVE",
"348 678 CURVE SMOOTH",
"-37 31 LINE",
"-45 17 OFFCURVE",
"-38 0 OFFCURVE",
"-21 0 CURVE SMOOTH"
);
},
{
closed = 1;
nodes = (
"406 600 LINE",
"466 245 LINE",
"195 245 LINE"
);
}
);
width = 673.25;
}
);
leftKerningGroup = A;
rightKerningGroup = A;
unicode = 0041;
userData = {
com.typemytype.robofont.guides = (
{
angle = 0;
isGlobal = 0;
magnetic = 5;
x = 0;
y = 680;
},
{
angle = 90;
isGlobal = 0;
magnetic = 5;
x = 35;
y = 0;
},
{
angle = 90;
isGlobal = 0;
magnetic = 5;
x = 637;
y = 0;
},
{
angle = 90;
isGlobal = 0;
magnetic = 5;
x = 336;
y = 0;
}
);
};
},
{
color = 6;
glyphname = Aogonek;
layers = (
{
layerId = "25564DC9-970B-4408-86C9-55005BB51701";
paths = (
{
closed = 1;
nodes = (
"508 -220 LINE SMOOTH",
"522 -220 OFFCURVE",
"533 -210 OFFCURVE",
"536 -197 CURVE SMOOTH",
"542 -174 LINE SMOOTH",
"545 -160 OFFCURVE",
"537 -151 OFFCURVE",
"524 -151 CURVE SMOOTH",
"510 -151 LINE SMOOTH",
"466 -151 OFFCURVE",
"444 -121 OFFCURVE",
"454 -76 CURVE SMOOTH",
"463 -31 OFFCURVE",
"498 0 OFFCURVE",
"540 0 CURVE SMOOTH",
"569 0 LINE SMOOTH",
"581 0 OFFCURVE",
"592 9 OFFCURVE",
"595 20 CURVE SMOOTH",
"596 22 OFFCURVE",
"597 28 OFFCURVE",
"596 31 CURVE SMOOTH",
"484 678 LINE SMOOTH",
"482 691 OFFCURVE",
"475 700 OFFCURVE",
"457 700 CURVE SMOOTH",
"387 700 LINE SMOOTH",
"369 700 OFFCURVE",
"358 691 OFFCURVE",
"350 678 CURVE SMOOTH",
"-36 31 LINE SMOOTH",
"-38 28 OFFCURVE",
"-40 22 OFFCURVE",
"-41 20 CURVE SMOOTH",
"-43 9 OFFCURVE",
"-36 0 OFFCURVE",
"-25 0 CURVE SMOOTH",
"28 0 LINE SMOOTH",
"43 0 OFFCURVE",
"54 11 OFFCURVE",
"58 17 CURVE SMOOTH",
"143 159 LINE",
"474 159 LINE",
"492 56 LINE",
"492 52 OFFCURVE",
"494 48 OFFCURVE",
"497 45 CURVE",
"439 34 OFFCURVE",
"395 -11 OFFCURVE",
"381 -76 CURVE SMOOTH",
"362 -163 OFFCURVE",
"401 -220 OFFCURVE",
"490 -220 CURVE SMOOTH"
);
},
{
closed = 1;
nodes = (
"403 600 LINE",
"463 245 LINE",
"191 245 LINE"
);
}
);
width = 669.875;
}
);
leftKerningGroup = A;
leftMetricsKey = A;
rightKerningGroup = A;
rightMetricsKey = A;
unicode = 0104;
},
{
color = 6;
glyphname = AE;
layers = (
{
anchors = (
{
name = bottom;
position = "{424, 0}";
},
{
name = top;
position = "{607, 700}";
}
);
layerId = "25564DC9-970B-4408-86C9-55005BB51701";
paths = (
{
closed = 1;
nodes = (
"39 0 LINE",
"51 0 OFFCURVE",
"61 7 OFFCURVE",
"68 17 CURVE SMOOTH",
"154 159 LINE",
"415 159 LINE",
"386 23 LINE",
"383 10 OFFCURVE",
"391 0 OFFCURVE",
"405 0 CURVE",
"820 0 LINE",
"834 0 OFFCURVE",
"845 10 OFFCURVE",
"848 23 CURVE",
"856 62 LINE",
"859 76 OFFCURVE",
"852 85 OFFCURVE",
"838 85 CURVE",
"495 85 LINE",
"544 312 LINE",
"856 312 LINE",
"871 312 OFFCURVE",
"881 322 OFFCURVE",
"884 335 CURVE",
"892 372 LINE",
"895 386 OFFCURVE",
"888 396 OFFCURVE",
"873 396 CURVE",
"561 396 LINE",
"609 615 LINE",
"943 615 LINE",
"957 615 OFFCURVE",
"968 624 OFFCURVE",
"971 638 CURVE",
"979 676 LINE",
"982 690 OFFCURVE",
"974 700 OFFCURVE",
"960 700 CURVE",
"388 700 LINE",
"375 700 OFFCURVE",
"363 694 OFFCURVE",
"354 678 CURVE",
"-29 35 LINE",
"-36 22 OFFCURVE",
"-38 0 OFFCURVE",
"-14 0 CURVE SMOOTH"
);
},
{
closed = 1;
nodes = (
"416 609 LINE",
"511 609 LINE",
"433 245 LINE",
"201 245 LINE"
);
}
);
width = 956.6875;
}
);
leftKerningGroup = AE;
rightKerningGroup = E;
unicode = 00C6;
userData = {
com.typemytype.robofont.guides = (
{
angle = 0;
isGlobal = 0;
magnetic = 5;
x = 0;
y = 505;
},
{
angle = 90;
isGlobal = 0;
magnetic = 5;
x = 431;
y = 0;
}
);
};
},
{
color = 6;
glyphname = B;
layers = (
{
anchors = (
{
name = bottom;
position = "{281, 0}";
},
{
name = top;
position = "{430, 700}";
}
);
layerId = "25564DC9-970B-4408-86C9-55005BB51701";
paths = (
{
closed = 1;
nodes = (
"334 0 LINE SMOOTH",
"494 0 OFFCURVE",
"570 92 OFFCURVE",
"594 202 CURVE",
"610 283 OFFCURVE",
"575 338 OFFCURVE",
"528 368 CURVE",
"571 385 OFFCURVE",
"627 426 OFFCURVE",
"646 515 CURVE SMOOTH",
"668 619 OFFCURVE",
"602 700 OFFCURVE",
"466 700 CURVE SMOOTH",
"195 700 LINE SMOOTH",
"182 700 OFFCURVE",
"171 690 OFFCURVE",
"168 676 CURVE SMOOTH",
"29 23 LINE SMOOTH",
"26 10 OFFCURVE",
"34 0 OFFCURVE",
"47 0 CURVE SMOOTH"
);
},
{
closed = 1;
nodes = (
"191 324 LINE",
"385 324 LINE SMOOTH",
"483 324 OFFCURVE",
"509 273 OFFCURVE",
"494 202 CURVE SMOOTH",
"479 133 OFFCURVE",
"415 81 OFFCURVE",
"332 81 CURVE SMOOTH",
"139 81 LINE"
);
},
{
closed = 1;
nodes = (
"254 619 LINE",
"446 619 LINE SMOOTH",
"530 619 OFFCURVE",
"560 582 OFFCURVE",
"545 514 CURVE SMOOTH",
"531 446 OFFCURVE",
"470 404 OFFCURVE",
"388 404 CURVE SMOOTH",
"208 404 LINE"
);
}
);
width = 671.25;
}
);
leftKerningGroup = I;
unicode = 0042;
userData = {
com.typemytype.robofont.guides = (
{
angle = 0;
isGlobal = 0;
magnetic = 5;
x = 0;
y = 271;
},
{
angle = 0;
isGlobal = 0;
magnetic = 5;
x = 0;
y = 437;
},
{
angle = 0;
isGlobal = 0;
magnetic = 5;
x = 0;
y = 521;
},
{
angle = 0;
isGlobal = 0;
magnetic = 5;
x = 0;
y = 198;
},
{
angle = 0;
isGlobal = 0;
magnetic = 5;
x = 0;
y = 9;
},
{
angle = 90;
isGlobal = 0;
magnetic = 5;
x = 355;
y = 0;
},
{
angle = 90;
isGlobal = 0;
magnetic = 5;
x = 583;
y = 0;
},
{
angle = 90;
isGlobal = 0;
magnetic = 5;
x = 94;
y = 0;
}
);
};
},
{
color = 6;
glyphname = C;
layers = (
{
anchors = (
{
name = bottom;
position = "{278, 0}";
},
{
name = top;
position = "{426, 700}";
}
);
layerId = "25564DC9-970B-4408-86C9-55005BB51701";
paths = (
{
closed = 1;
nodes = (
"480 -10 OFFCURVE",
"570 103 OFFCURVE",
"602 214 CURVE SMOOTH",
"605 226 OFFCURVE",
"597 234 OFFCURVE",
"585 234 CURVE SMOOTH",
"528 234 LINE SMOOTH",
"515 234 OFFCURVE",
"507 229 OFFCURVE",
"500 211 CURVE",
"454 107 OFFCURVE",
"381 75 OFFCURVE",
"288 75 CURVE SMOOTH",
"181 75 OFFCURVE",
"131 132 OFFCURVE",
"155 266 CURVE SMOOTH",
"165 323 OFFCURVE",
"177 379 OFFCURVE",
"191 434 CURVE SMOOTH",
"223 568 OFFCURVE",
"307 625 OFFCURVE",
"414 625 CURVE SMOOTH",
"507 625 OFFCURVE",
"569 589 OFFCURVE",
"560 489 CURVE SMOOTH",
"559 472 OFFCURVE",
"570 466 OFFCURVE",
"583 466 CURVE SMOOTH",
"640 466 LINE SMOOTH",
"652 466 OFFCURVE",
"658 475 OFFCURVE",
"660 487 CURVE SMOOTH",
"681 603 OFFCURVE",
"602 710 OFFCURVE",
"418 710 CURVE SMOOTH",
"233 710 OFFCURVE",
"132 601 OFFCURVE",
"92 439 CURVE SMOOTH",
"78 382 OFFCURVE",
"63 315 OFFCURVE",
"54 261 CURVE SMOOTH",
"25 98 OFFCURVE",
"102 -10 OFFCURVE",
"284 -10 CURVE SMOOTH"
);
}
);
width = 665.1875;
}
);
leftKerningGroup = O;
rightKerningGroup = C;
unicode = 0043;
userData = {
com.typemytype.robofont.guides = (
{
angle = 0;
isGlobal = 0;
magnetic = 5;
x = 0;
y = 434;
},
{
angle = 0;
isGlobal = 0;
magnetic = 5;
x = 0;
y = 266;
},
{
angle = 0;
isGlobal = 0;
magnetic = 5;
x = 0;
y = 710;
},
{
angle = 0;
isGlobal = 0;
magnetic = 5;
x = 0;
y = "-10";
},
{
angle = 90;
isGlobal = 0;
magnetic = 5;
x = 599;
y = 0;
},
{
angle = 90;
isGlobal = 0;
magnetic = 5;
x = 209;
y = 0;
},
{
angle = 90;
isGlobal = 0;
magnetic = 5;
x = 149;
y = 0;
},
{
angle = 90;
isGlobal = 0;
magnetic = 5;
x = 332;
y = 0;
}
);
};
},
{
color = 6;
glyphname = Ccedilla;
layers = (
{
hints = (
{
horizontal = 1;
place = "{0, 0}";
type = Tag;
}
);
layerId = "25564DC9-970B-4408-86C9-55005BB51701";
paths = (
{
closed = 1;
nodes = (
"288 -221 OFFCURVE",
"329 -181 OFFCURVE",
"339 -132 CURVE SMOOTH",
"349 -83 OFFCURVE",
"326 -48 OFFCURVE",
"281 -48 CURVE SMOOTH",
"268 -48 OFFCURVE",
"251 -51 OFFCURVE",
"242 -56 CURVE",
"274 -10 LINE",
"460 -10 OFFCURVE",
"573 102 OFFCURVE",
"601 214 CURVE SMOOTH",
"605 226 OFFCURVE",
"596 234 OFFCURVE",
"584 234 CURVE",
"530 234 LINE",
"517 234 OFFCURVE",
"508 229 OFFCURVE",
"501 211 CURVE SMOOTH",
"454 107 OFFCURVE",
"385 75 OFFCURVE",
"292 75 CURVE SMOOTH",
"185 75 OFFCURVE",
"131 132 OFFCURVE",
"155 266 CURVE SMOOTH",
"165 323 OFFCURVE",
"177 379 OFFCURVE",
"190 434 CURVE SMOOTH",
"223 568 OFFCURVE",
"301 625 OFFCURVE",
"408 625 CURVE SMOOTH",
"502 625 OFFCURVE",
"558 593 OFFCURVE",
"559 489 CURVE SMOOTH",
"560 472 OFFCURVE",
"566 466 OFFCURVE",
"579 466 CURVE",
"634 466 LINE",
"646 466 OFFCURVE",
"658 475 OFFCURVE",
"659 487 CURVE SMOOTH",
"678 598 OFFCURVE",
"613 710 OFFCURVE",
"427 710 CURVE SMOOTH",
"244 710 OFFCURVE",
"132 601 OFFCURVE",
"92 439 CURVE SMOOTH",
"77 382 OFFCURVE",
"63 315 OFFCURVE",
"54 261 CURVE SMOOTH",
"28 115 OFFCURVE",
"76 14 OFFCURVE",
"219 -6 CURVE",
"189 -53 LINE",
"182 -64 OFFCURVE",
"173 -75 OFFCURVE",
"179 -83 CURVE",
"192 -101 LINE",
"204 -117 OFFCURVE",
"222 -98 OFFCURVE",
"252 -98 CURVE SMOOTH",
"274 -98 OFFCURVE",
"289 -111 OFFCURVE",
"285 -133 CURVE SMOOTH",
"279 -156 OFFCURVE",
"258 -170 OFFCURVE",
"236 -170 CURVE SMOOTH",
"194 -170 OFFCURVE",
"194 -139 OFFCURVE",
"174 -155 CURVE",
"155 -169 LINE",
"135 -185 OFFCURVE",
"170 -219 OFFCURVE",
"225 -220 CURVE SMOOTH"
);
}
);
width = 665.1875;
}
);
leftKerningGroup = O;
leftMetricsKey = C;
rightKerningGroup = C;
rightMetricsKey = C;
unicode = 00C7;
userData = {
com.typemytype.robofont.guides = (
{
angle = 0;
isGlobal = 0;
magnetic = 5;
x = 0;
y = "-174";
},
{
angle = 0;
isGlobal = 0;
magnetic = 5;
x = 0;
y = "-220";
},
{
angle = 0;
isGlobal = 0;
magnetic = 5;
x = 0;
y = "-96";
},
{
angle = 0;
isGlobal = 0;
magnetic = 5;
x = 0;
y = "-50";
},
{
angle = 0;
isGlobal = 0;
magnetic = 5;
x = 0;
y = "-135";
},
{
angle = 90;
isGlobal = 0;
magnetic = 5;
x = 331;
y = 0;
},
{
angle = 90;
isGlobal = 0;
magnetic = 5;
x = 342;
y = 0;
}
);
};
},
{
color = 6;
glyphname = D;
layers = (
{
anchors = (
{
name = bottom;
position = "{290, 0}";
},
{
name = center;
position = "{364, 350}";
},
{
name = top;
position = "{393, 700}";
}
);
layerId = "25564DC9-970B-4408-86C9-55005BB51701";
paths = (
{
closed = 1;
nodes = (
"291 0 LINE SMOOTH",
"493 0 OFFCURVE",
"576 87 OFFCURVE",
"620 272 CURVE SMOOTH",
"634 331 OFFCURVE",
"642 370 OFFCURVE",
"654 429 CURVE SMOOTH",
"687 604 OFFCURVE",
"590 700 OFFCURVE",
"411 700 CURVE",
"195 700 LINE",
"182 700 OFFCURVE",
"171 690 OFFCURVE",
"168 676 CURVE SMOOTH",
"29 23 LINE SMOOTH",
"26 10 OFFCURVE",
"34 0 OFFCURVE",
"47 0 CURVE SMOOTH"
);
},
{
closed = 1;
nodes = (
"253 615 LINE",
"400 615 LINE SMOOTH",
"539 615 OFFCURVE",
"579 554 OFFCURVE",
"554 425 CURVE SMOOTH",
"543 366 OFFCURVE",
"536 335 OFFCURVE",
"522 276 CURVE SMOOTH",
"490 139 OFFCURVE",
"429 85 OFFCURVE",
"292 85 CURVE SMOOTH",
"140 85 LINE"
);
}
);
width = 688.625;
}
);
leftKerningGroup = I;
rightKerningGroup = D;
unicode = 0044;
userData = {
com.typemytype.robofont.guides = (
{
angle = 0;
isGlobal = 0;
magnetic = 5;
x = 0;
y = 425;
},
{
angle = 0;
isGlobal = 0;
magnetic = 5;
x = 0;
y = 276;
},
{
angle = 0;
isGlobal = 0;
magnetic = 5;
x = 0;
y = 9;
},
{
angle = 90;
isGlobal = 0;
magnetic = 5;
x = 320;
y = 0;
},
{
angle = 90;
isGlobal = 0;
magnetic = 5;
x = 603;
y = 0;
},
{
angle = 90;
isGlobal = 0;
magnetic = 5;
x = 94;
y = 0;
}
);
};
},
{
color = 6;
glyphname = Eth;
layers = (
{
layerId = "25564DC9-970B-4408-86C9-55005BB51701";
paths = (
{
closed = 1;
nodes = (
"301 0 LINE",
"502 0 OFFCURVE",
"586 87 OFFCURVE",
"630 272 CURVE SMOOTH",
"644 331 OFFCURVE",
"652 370 OFFCURVE",
"664 429 CURVE SMOOTH",
"697 604 OFFCURVE",
"600 700 OFFCURVE",
"420 700 CURVE",
"205 700 LINE",
"192 700 OFFCURVE",
"180 690 OFFCURVE",
"177 676 CURVE",
"117 391 LINE",
"59 391 LINE",
"46 391 OFFCURVE",
"33 381 OFFCURVE",
"31 368 CURVE",
"24 336 LINE",
"22 323 OFFCURVE",
"29 313 OFFCURVE",
"42 313 CURVE",
"100 313 LINE",
"39 23 LINE",
"36 10 OFFCURVE",
"44 0 OFFCURVE",
"57 0 CURVE"
);
},
{
closed = 1;
nodes = (
"199 313 LINE",
"331 313 LINE SMOOTH",
"344 313 OFFCURVE",
"357 323 OFFCURVE",
"359 336 CURVE",
"365 368 LINE",
"368 381 OFFCURVE",
"361 391 OFFCURVE",
"348 391 CURVE",
"215 391 LINE",
"263 615 LINE",
"410 615 LINE",
"548 615 OFFCURVE",
"588 554 OFFCURVE",
"564 425 CURVE SMOOTH",
"553 366 OFFCURVE",
"546 335 OFFCURVE",
"532 276 CURVE SMOOTH",
"500 139 OFFCURVE",
"439 85 OFFCURVE",
"302 85 CURVE",
"150 85 LINE"
);
}
);
width = 698.4375;
}
);
leftKerningGroup = I;
rightKerningGroup = D;
unicode = 00D0;
userData = {
com.typemytype.robofont.guides = (
{
angle = 0;
isGlobal = 0;
magnetic = 5;
x = 0;
y = 350;
}
);
};
},
{
color = 6;
glyphname = Dcroat;
layers = (
{
layerId = "25564DC9-970B-4408-86C9-55005BB51701";
paths = (
{
closed = 1;
nodes = (
"301 0 LINE SMOOTH",
"502 0 OFFCURVE",
"586 87 OFFCURVE",
"630 272 CURVE SMOOTH",
"644 331 OFFCURVE",
"652 370 OFFCURVE",
"664 429 CURVE SMOOTH",
"697 604 OFFCURVE",
"600 700 OFFCURVE",
"420 700 CURVE SMOOTH",
"205 700 LINE SMOOTH",
"192 700 OFFCURVE",
"180 690 OFFCURVE",
"177 676 CURVE",
"117 391 LINE",
"59 391 LINE SMOOTH",
"46 391 OFFCURVE",
"33 381 OFFCURVE",
"31 368 CURVE SMOOTH",
"24 336 LINE SMOOTH",
"22 323 OFFCURVE",
"29 313 OFFCURVE",
"42 313 CURVE SMOOTH",
"100 313 LINE",
"39 23 LINE SMOOTH",
"36 10 OFFCURVE",
"44 0 OFFCURVE",
"57 0 CURVE SMOOTH"
);
},
{
closed = 1;
nodes = (
"199 313 LINE",
"331 313 LINE SMOOTH",
"344 313 OFFCURVE",
"357 323 OFFCURVE",
"359 336 CURVE SMOOTH",
"365 368 LINE SMOOTH",
"368 381 OFFCURVE",
"361 391 OFFCURVE",
"348 391 CURVE SMOOTH",
"215 391 LINE",
"263 615 LINE",
"410 615 LINE SMOOTH",
"548 615 OFFCURVE",
"588 554 OFFCURVE",
"564 425 CURVE SMOOTH",
"553 366 OFFCURVE",
"546 335 OFFCURVE",
"532 276 CURVE SMOOTH",
"500 139 OFFCURVE",
"439 85 OFFCURVE",
"302 85 CURVE SMOOTH",
"150 85 LINE"
);
}
);
width = 698.4375;
}
);
leftKerningGroup = I;
rightKerningGroup = D;
unicode = 0110;
userData = {
com.typemytype.robofont.guides = (
{
angle = 0;
isGlobal = 0;
magnetic = 5;
x = 0;
y = 352;
},
{
angle = 90;
isGlobal = 0;
magnetic = 5;
x = 340;
y = 0;
},
{
angle = 90;
isGlobal = 0;
magnetic = 5;
x = 105;
y = 0;
}
);
};
},
{
color = 6;
glyphname = E;
layers = (
{
anchors = (
{
name = bottom;
position = "{248, 0}";
},
{
name = ogonek;
position = "{502, 69}";
},
{
name = top;
position = "{396, 700}";
},
{
name = topleft;
position = "{114, 700}";
}
);
layerId = "25564DC9-970B-4408-86C9-55005BB51701";
paths = (
{
closed = 1;
nodes = (
"469 0 LINE SMOOTH",
"483 0 OFFCURVE",
"493 10 OFFCURVE",
"496 23 CURVE SMOOTH",
"505 62 LINE SMOOTH",
"508 76 OFFCURVE",
"500 85 OFFCURVE",
"486 85 CURVE SMOOTH",
"138 85 LINE",
"187 312 LINE",
"505 312 LINE SMOOTH",
"519 312 OFFCURVE",
"530 322 OFFCURVE",
"533 335 CURVE SMOOTH",
"541 372 LINE SMOOTH",
"544 386 OFFCURVE",
"536 396 OFFCURVE",
"522 396 CURVE SMOOTH",
"204 396 LINE",
"251 615 LINE",
"591 615 LINE SMOOTH",
"605 615 OFFCURVE",
"616 624 OFFCURVE",
"619 638 CURVE SMOOTH",
"627 676 LINE SMOOTH",
"630 690 OFFCURVE",
"623 700 OFFCURVE",
"609 700 CURVE SMOOTH",
"195 700 LINE SMOOTH",
"182 700 OFFCURVE",
"171 690 OFFCURVE",
"168 676 CURVE SMOOTH",
"29 23 LINE SMOOTH",
"26 10 OFFCURVE",
"34 0 OFFCURVE",
"47 0 CURVE SMOOTH"
);
}
);
width = 605.0625;
}
);
leftKerningGroup = I;
rightKerningGroup = E;
unicode = 0045;
userData = {
com.typemytype.robofont.guides = (
{
angle = 0;
isGlobal = 0;
magnetic = 5;
x = 0;
y = 334;
},
{
angle = 0;
isGlobal = 0;
magnetic = 5;
x = 0;
y = 9;
},
{
angle = 0;
isGlobal = 0;
magnetic = 5;
x = 0;
y = 376;
},
{
angle = 0;
isGlobal = 0;
magnetic = 5;
x = 0;
y = 691;
},
{
angle = 0;
isGlobal = 0;
magnetic = 5;
x = 0;
y = 649;
},
{
angle = 90;
isGlobal = 0;
magnetic = 5;
x = 664;
y = 0;
},
{
angle = 90;
isGlobal = 0;
magnetic = 5;
x = 94;
y = 0;
},
{
angle = 90;
isGlobal = 0;
magnetic = 5;
x = 511;
y = 0;
}
);
};
},
{
color = 6;
glyphname = Eogonek;
layers = (
{
anchors = (
{
name = top;
position = "{397, 700}";
}
);
layerId = "25564DC9-970B-4408-86C9-55005BB51701";
paths = (
{
closed = 1;
nodes = (
"422 -220 LINE SMOOTH",
"436 -220 OFFCURVE",
"447 -210 OFFCURVE",
"449 -197 CURVE SMOOTH",
"455 -174 LINE SMOOTH",
"458 -160 OFFCURVE",
"450 -151 OFFCURVE",
"437 -151 CURVE SMOOTH",
"423 -151 LINE SMOOTH",
"380 -151 OFFCURVE",
"358 -121 OFFCURVE",
"367 -76 CURVE SMOOTH",
"376 -32 OFFCURVE",
"409 -3 OFFCURVE",
"448 0 CURVE",
"469 0 LINE SMOOTH",
"483 0 OFFCURVE",
"493 10 OFFCURVE",
"496 23 CURVE SMOOTH",
"505 62 LINE SMOOTH",
"508 76 OFFCURVE",
"500 85 OFFCURVE",
"486 85 CURVE SMOOTH",
"138 85 LINE",
"187 312 LINE",
"505 312 LINE SMOOTH",
"519 312 OFFCURVE",
"530 322 OFFCURVE",
"533 335 CURVE SMOOTH",
"541 372 LINE SMOOTH",
"544 386 OFFCURVE",
"536 396 OFFCURVE",
"522 396 CURVE SMOOTH",
"204 396 LINE",
"251 615 LINE",
"591 615 LINE SMOOTH",
"605 615 OFFCURVE",
"616 624 OFFCURVE",
"619 638 CURVE SMOOTH",
"627 676 LINE SMOOTH",
"630 690 OFFCURVE",
"623 700 OFFCURVE",
"609 700 CURVE SMOOTH",
"195 700 LINE SMOOTH",
"182 700 OFFCURVE",
"171 690 OFFCURVE",
"168 676 CURVE SMOOTH",
"29 23 LINE SMOOTH",
"26 10 OFFCURVE",
"34 0 OFFCURVE",
"47 0 CURVE SMOOTH",
"329 0 LINE",
"312 -20 OFFCURVE",
"301 -45 OFFCURVE",
"295 -74 CURVE SMOOTH",
"277 -161 OFFCURVE",
"318 -220 OFFCURVE",
"406 -220 CURVE SMOOTH"
);
}
);
width = 605.0625;
}
);
leftKerningGroup = I;
rightKerningGroup = E;
unicode = 0118;
userData = {
com.typemytype.robofont.guides = (
{
angle = 90;
isGlobal = 0;
magnetic = 5;
x = 355;
y = 0;
}
);
};
},
{
color = 6;
glyphname = F;
layers = (
{
anchors = (
{
name = bottom;
position = "{239, 0}";
},
{
name = top;
position = "{388, 700}";
}
);
layerId = "25564DC9-970B-4408-86C9-55005BB51701";
paths = (
{
closed = 1;
nodes = (
"98 0 LINE SMOOTH",
"112 0 OFFCURVE",
"123 10 OFFCURVE",
"126 23 CURVE SMOOTH",
"184 293 LINE",
"498 293 LINE SMOOTH",
"512 293 OFFCURVE",
"524 303 OFFCURVE",
"526 316 CURVE SMOOTH",
"534 356 LINE SMOOTH",
"537 371 OFFCURVE",
"530 380 OFFCURVE",
"516 380 CURVE SMOOTH",
"202 380 LINE",
"252 613 LINE",
"586 613 LINE SMOOTH",
"600 613 OFFCURVE",
"611 622 OFFCURVE",
"614 636 CURVE SMOOTH",
"622 676 LINE SMOOTH",
"625 690 OFFCURVE",
"618 700 OFFCURVE",
"604 700 CURVE SMOOTH",
"195 700 LINE",
"182 700 OFFCURVE",
"171 690 OFFCURVE",
"168 676 CURVE SMOOTH",
"29 23 LINE SMOOTH",
"26 10 OFFCURVE",
"34 0 OFFCURVE",
"47 0 CURVE SMOOTH"
);
}
);
width = 586.6875;
}
);
leftKerningGroup = I;
unicode = 0046;
userData = {
com.typemytype.robofont.guides = (
{
angle = 0;
isGlobal = 0;
magnetic = 5;
x = 0;
y = 320;
},
{
angle = 0;
isGlobal = 0;
magnetic = 5;
x = 0;
y = 691;
},
{
angle = 0;
isGlobal = 0;
magnetic = 5;
x = 0;
y = 649;
},
{
angle = 0;
isGlobal = 0;
magnetic = 5;
x = 0;
y = 362;
},
{
angle = 0;
isGlobal = 0;
magnetic = 5;
x = 0;
y = 9;
},
{
angle = 90;
isGlobal = 0;
magnetic = 5;
x = 761;
y = 0;
},
{
angle = 90;
isGlobal = 0;
magnetic = 5;
x = 94;
y = 0;
},
{
angle = 90;
isGlobal = 0;
magnetic = 5;
x = 487;
y = 0;
},
{
angle = 90;
isGlobal = 0;
magnetic = 5;
x = 139;
y = 0;
}
);
};
},
{
color = 6;
glyphname = G;
layers = (
{
anchors = (
{
name = bottom;
position = "{285, 0}";
},
{
name = top;
position = "{433, 700}";
}
);
layerId = "25564DC9-970B-4408-86C9-55005BB51701";
paths = (
{
closed = 1;
nodes = (
"468 -10 OFFCURVE",
"596 97 OFFCURVE",
"632 261 CURVE SMOOTH",
"652 357 LINE SMOOTH",
"655 371 OFFCURVE",
"648 381 OFFCURVE",
"634 381 CURVE SMOOTH",
"408 381 LINE SMOOTH",
"395 381 OFFCURVE",
"383 371 OFFCURVE",
"380 357 CURVE SMOOTH",
"373 325 LINE SMOOTH",
"370 310 OFFCURVE",
"378 301 OFFCURVE",
"391 301 CURVE SMOOTH",
"541 301 LINE",
"532 259 LINE SMOOTH",
"505 132 OFFCURVE",
"415 75 OFFCURVE",
"310 75 CURVE SMOOTH",
"204 75 OFFCURVE",
"145 129 OFFCURVE",
"168 262 CURVE SMOOTH",
"179 321 OFFCURVE",
"192 381 OFFCURVE",
"206 440 CURVE SMOOTH",
"239 571 OFFCURVE",
"319 625 OFFCURVE",
"425 625 CURVE SMOOTH",
"531 625 OFFCURVE",
"569 568 OFFCURVE",
"575 516 CURVE SMOOTH",
"578 502 OFFCURVE",
"582 498 OFFCURVE",
"594 498 CURVE SMOOTH",
"653 498 LINE SMOOTH",
"666 498 OFFCURVE",
"677 506 OFFCURVE",
"679 518 CURVE SMOOTH",
"690 587 OFFCURVE",
"633 710 OFFCURVE",
"444 710 CURVE SMOOTH",
"268 710 OFFCURVE",
"147 606 OFFCURVE",
"107 445 CURVE SMOOTH",
"93 386 OFFCURVE",
"78 316 OFFCURVE",
"67 257 CURVE SMOOTH",
"38 95 OFFCURVE",
"113 -10 OFFCURVE",
"291 -10 CURVE SMOOTH"
);
}
);
width = 680.6875;
}
);
leftKerningGroup = O;
rightKerningGroup = G;
unicode = 0047;
userData = {
com.typemytype.robofont.guides = (
{
angle = 0;
isGlobal = 0;
magnetic = 5;
x = 0;
y = "-10";
},
{
angle = 0;
isGlobal = 0;
magnetic = 5;
x = 0;
y = 260;
},
{
angle = 0;
isGlobal = 0;
magnetic = 5;
x = 0;
y = 440;
},
{
angle = 90;
isGlobal = 0;
magnetic = 5;
x = 334;
y = 0;
},
{
angle = 90;
isGlobal = 0;
magnetic = 5;
x = 133;
y = 0;
},
{
angle = 90;
isGlobal = 0;
magnetic = 5;
x = 604;
y = 0;
},
{
angle = 90;
isGlobal = 0;
magnetic = 5;
x = 67;
y = 0;
}
);
};
},
{
color = 6;
glyphname = H;
layers = (
{
anchors = (
{
name = bottom;
position = "{303, 0}";
},
{
name = center;
position = "{398, 508}";
},
{
name = top;
position = "{433, 700}";
},
{
name = topleft;
position = "{114, 700}";
}
);
layerId = "25564DC9-970B-4408-86C9-55005BB51701";
paths = (
{
closed = 1;
nodes = (
"99 0 LINE SMOOTH",
"113 0 OFFCURVE",
"124 10 OFFCURVE",
"127 23 CURVE SMOOTH",
"188 310 LINE",
"532 310 LINE",
"471 23 LINE SMOOTH",
"468 10 OFFCURVE",
"476 0 OFFCURVE",
"490 0 CURVE SMOOTH",
"541 0 LINE SMOOTH",
"555 0 OFFCURVE",
"566 10 OFFCURVE",
"569 23 CURVE SMOOTH",
"708 676 LINE SMOOTH",
"711 690 OFFCURVE",
"703 700 OFFCURVE",
"689 700 CURVE SMOOTH",
"638 700 LINE",
"624 700 OFFCURVE",
"613 690 OFFCURVE",
"610 676 CURVE SMOOTH",
"551 400 LINE",
"207 400 LINE",
"266 676 LINE SMOOTH",
"269 690 OFFCURVE",
"261 700 OFFCURVE",
"247 700 CURVE SMOOTH",
"195 700 LINE SMOOTH",
"182 700 OFFCURVE",
"171 690 OFFCURVE",
"168 676 CURVE SMOOTH",
"29 23 LINE SMOOTH",
"26 9 OFFCURVE",
"34 0 OFFCURVE",
"47 0 CURVE SMOOTH"
);
}
);
width = 714.125;
}
);
leftKerningGroup = I;
rightKerningGroup = I;
unicode = 0048;
userData = {
com.typemytype.robofont.guides = (
{
angle = 0;
isGlobal = 0;
magnetic = 5;
x = 0;
y = 350;
},
{
angle = 0;
isGlobal = 0;
magnetic = 5;
x = 0;
y = 9;
},
{
angle = 0;
isGlobal = 0;
magnetic = 5;
x = 0;
y = 691;
},
{
angle = 90;
isGlobal = 0;
magnetic = 5;
x = 94;
y = 0;
},
{
angle = 90;
isGlobal = 0;
magnetic = 5;
x = 139;
y = 0;
},
{
angle = 90;
isGlobal = 0;
magnetic = 5;
x = 543;
y = 0;
},
{
angle = 90;
isGlobal = 0;
magnetic = 5;
x = 588;
y = 0;
}
);
};
},
{
color = 3;
glyphname = Hbar;
layers = (
{
components = (
{
alignment = -1;
name = H;
}
);
layerId = "25564DC9-970B-4408-86C9-55005BB51701";
paths = (
{
closed = 1;
nodes = (
"716 513 LINE SMOOTH",
"730 513 OFFCURVE",
"742 522 OFFCURVE",
"745 536 CURVE SMOOTH",
"750 561 LINE SMOOTH",
"753 575 OFFCURVE",
"746 585 OFFCURVE",
"732 585 CURVE SMOOTH",
"111 585 LINE SMOOTH",
"97 585 OFFCURVE",
"86 575 OFFCURVE",
"83 561 CURVE SMOOTH",
"78 536 LINE SMOOTH",
"75 522 OFFCURVE",
"82 513 OFFCURVE",
"95 513 CURVE SMOOTH"
);
}
);
width = 721.4375;
}
);
leftKerningGroup = I;
rightKerningGroup = I;
unicode = 0126;
},
{
color = 6;
glyphname = I;
layers = (
{
anchors = (
{
name = bottom;
position = "{76, 0}";
},
{
name = ogonek;
position = "{135, 69}";
},
{
name = top;
position = "{222, 700}";
},
{
name = topleft;
position = "{114, 700}";
}
);
layerId = "25564DC9-970B-4408-86C9-55005BB51701";
paths = (
{
closed = 1;
nodes = (
"101 0 LINE SMOOTH",
"115 0 OFFCURVE",
"125 10 OFFCURVE",
"128 23 CURVE SMOOTH",
"268 677 LINE",
"270 690 OFFCURVE",
"263 700 OFFCURVE",
"249 700 CURVE SMOOTH",
"195 700 LINE SMOOTH",
"182 700 OFFCURVE",
"171 690 OFFCURVE",
"168 677 CURVE",
"28 23 LINE SMOOTH",
"25 10 OFFCURVE",
"33 0 OFFCURVE",
"47 0 CURVE SMOOTH"
);
}
);
width = 273.5625;
}
);
leftKerningGroup = I;
rightKerningGroup = I;
unicode = 0049;
userData = {
com.typemytype.robofont.guides = (
{
angle = 90;
isGlobal = 0;
magnetic = 5;
x = 85;
y = 0;
},
{
angle = 90;
isGlobal = 0;
magnetic = 5;
x = 148;
y = 0;
}
);
};
},
{
color = 6;
glyphname = IJ;
layers = (
{
layerId = "25564DC9-970B-4408-86C9-55005BB51701";
paths = (
{
closed = 1;
nodes = (
"421 -10 OFFCURVE",
"506 89 OFFCURVE",
"541 256 CURVE SMOOTH",
"630 676 LINE SMOOTH",
"633 690 OFFCURVE",
"625 700 OFFCURVE",
"611 700 CURVE SMOOTH",
"558 700 LINE SMOOTH",
"545 700 OFFCURVE",
"533 690 OFFCURVE",
"531 677 CURVE SMOOTH",
"443 264 LINE SMOOTH",
"419 152 OFFCURVE",
"349 79 OFFCURVE",
"243 79 CURVE SMOOTH",
"230 79 OFFCURVE",
"218 70 OFFCURVE",
"215 55 CURVE SMOOTH",
"206 13 LINE SMOOTH",
"203 0 OFFCURVE",
"211 -10 OFFCURVE",
"224 -10 CURVE SMOOTH"
);
},
{
closed = 1;
nodes = (
"101 0 LINE SMOOTH",
"115 0 OFFCURVE",
"125 10 OFFCURVE",
"128 23 CURVE SMOOTH",
"268 677 LINE SMOOTH",
"270 690 OFFCURVE",
"263 700 OFFCURVE",
"249 700 CURVE SMOOTH",
"195 700 LINE SMOOTH",
"182 700 OFFCURVE",
"171 690 OFFCURVE",
"168 677 CURVE SMOOTH",
"29 23 LINE SMOOTH",
"26 10 OFFCURVE",
"34 0 OFFCURVE",
"47 0 CURVE SMOOTH"
);
}
);
width = 630.6875;
}
);
leftKerningGroup = I;
unicode = 0132;
userData = {
com.typemytype.robofont.guides = (
{
angle = 90;
isGlobal = 0;
magnetic = 5;
x = 642;
y = 0;
}
);
};
},
{
color = 6;
glyphname = Iogonek;
layers = (
{
hints = (
{
horizontal = 1;
place = "{0, 0}";
type = Tag;
}
);
layerId = "25564DC9-970B-4408-86C9-55005BB51701";
paths = (
{
closed = 1;
nodes = (
"82 -220 LINE SMOOTH",
"95 -220 OFFCURVE",
"107 -211 OFFCURVE",
"110 -197 CURVE SMOOTH",
"115 -174 LINE SMOOTH",
"118 -161 OFFCURVE",
"111 -151 OFFCURVE",
"97 -151 CURVE SMOOTH",
"83 -151 LINE SMOOTH",
"40 -151 OFFCURVE",
"18 -121 OFFCURVE",
"28 -76 CURVE SMOOTH",
"38 -31 OFFCURVE",
"72 0 OFFCURVE",
"115 0 CURVE SMOOTH",
"129 0 LINE SMOOTH",
"142 0 OFFCURVE",
"154 10 OFFCURVE",
"157 23 CURVE SMOOTH",
"296 677 LINE SMOOTH",
"299 690 OFFCURVE",
"291 700 OFFCURVE",
"278 700 CURVE SMOOTH",
"224 700 LINE SMOOTH",
"211 700 OFFCURVE",
"199 690 OFFCURVE",
"196 677 CURVE SMOOTH",
"66 65 LINE",
"65 60 OFFCURVE",
"66 54 OFFCURVE",
"69 52 CURVE",
"71 45 LINE",
"13 34 OFFCURVE",
"-31 -10 OFFCURVE",
"-44 -76 CURVE SMOOTH",
"-63 -163 OFFCURVE",
"-25 -220 OFFCURVE",
"64 -220 CURVE SMOOTH"
);
}
);
width = 287.5625;
}
);
leftKerningGroup = I;
rightKerningGroup = I;
unicode = 012E;
userData = {
com.typemytype.robofont.guides = (
{
angle = 90;
isGlobal = 0;
magnetic = 5;
x = 110;
y = 0;
}
);
};
},
{
color = 6;
glyphname = J;
layers = (
{
anchors = (
{
name = bottom;
position = "{260, 0}";
},
{
name = top;
position = "{400, 700}";
}
);
layerId = "25564DC9-970B-4408-86C9-55005BB51701";
paths = (
{
closed = 1;
nodes = (
"419 -10 OFFCURVE",
"506 94 OFFCURVE",
"540 256 CURVE",
"629 676 LINE SMOOTH",
"632 690 OFFCURVE",
"625 700 OFFCURVE",
"611 700 CURVE SMOOTH",
"179 700 LINE SMOOTH",
"166 700 OFFCURVE",
"154 690 OFFCURVE",
"152 677 CURVE",
"143 636 LINE SMOOTH",
"140 623 OFFCURVE",
"148 613 OFFCURVE",
"161 613 CURVE SMOOTH",
"516 613 LINE",
"440 258 LINE SMOOTH",
"417 148 OFFCURVE",
"355 75 OFFCURVE",
"241 75 CURVE SMOOTH",
"156 75 OFFCURVE",
"105 111 OFFCURVE",
"115 201 CURVE SMOOTH",
"116 215 OFFCURVE",
"109 224 OFFCURVE",
"94 224 CURVE SMOOTH",
"38 224 LINE SMOOTH",
"24 224 OFFCURVE",
"16 214 OFFCURVE",
"14 202 CURVE SMOOTH",
"-7 57 OFFCURVE",
"113 -10 OFFCURVE",
"238 -10 CURVE SMOOTH"
);
}
);
width = 629.75;
}
);
leftKerningGroup = J;
rightKerningGroup = U;
unicode = 004A;
userData = {
com.typemytype.robofont.guides = (
{
angle = 0;
isGlobal = 0;
magnetic = 5;
x = 0;
y = "-10";
},
{
angle = 0;
isGlobal = 0;
magnetic = 5;
x = 0;
y = 133;
},
{
angle = 0;
isGlobal = 0;
magnetic = 5;
x = 0;
y = 677;
},
{
angle = 90;
isGlobal = 0;
magnetic = 5;
x = 303;
y = 0;
},
{
angle = 90;
isGlobal = 0;
magnetic = 5;
x = 60;
y = 0;
},
{
angle = 90;
isGlobal = 0;
magnetic = 5;
x = 91;
y = 0;
}
);
};
},
{
color = 6;
glyphname = K;
layers = (
{
anchors = (
{
name = bottom;
position = "{247, 0}";
},
{
name = top;
position = "{389, 700}";
}
);
layerId = "25564DC9-970B-4408-86C9-55005BB51701";
paths = (
{
closed = 1;
nodes = (
"100 0 LINE",
"114 0 OFFCURVE",
"123 10 OFFCURVE",
"126 23 CURVE",
"186 304 LINE",
"413 17 LINE SMOOTH",
"417 10 OFFCURVE",
"426 0 OFFCURVE",
"447 0 CURVE",
"501 0 LINE",
"516 0 OFFCURVE",
"530 17 OFFCURVE",
"517 34 CURVE SMOOTH",
"262 361 LINE",
"623 666 LINE SMOOTH",
"635 676 OFFCURVE",
"629 700 OFFCURVE",
"610 700 CURVE",
"553 700 LINE",
"530 700 OFFCURVE",
"517 689 OFFCURVE",
"512 684 CURVE",
"214 436 LINE",
"265 676 LINE",
"268 690 OFFCURVE",
"260 700 OFFCURVE",
"246 700 CURVE",
"194 700 LINE SMOOTH",
"180 700 OFFCURVE",
"171 690 OFFCURVE",
"168 676 CURVE SMOOTH",
"29 23 LINE",
"26 10 OFFCURVE",
"34 0 OFFCURVE",
"47 0 CURVE"
);
}
);
width = 590.125;
}
);
leftKerningGroup = I;
rightKerningGroup = K;
unicode = 004B;
userData = {
com.typemytype.robofont.guides = (
{
angle = 0;
isGlobal = 0;
magnetic = 5;
x = 0;
y = 365;
},
{
angle = 90;
isGlobal = 0;
magnetic = 5;
x = 547;
y = 0;
},
{
angle = 90;
isGlobal = 0;
magnetic = 5;
x = 94;
y = 0;
},
{
angle = 90;
isGlobal = 0;
magnetic = 5;
x = 139;
y = 0;
}
);
};
},
{
color = 6;
glyphname = L;
layers = (
{
anchors = (
{
name = bottom;
position = "{242, 0}";
},
{
name = center;
position = "{297, 350}";
},
{
name = top;
position = "{223, 700}";
},
{
name = topright;
position = "{630, 700}";
}
);
layerId = "25564DC9-970B-4408-86C9-55005BB51701";
paths = (
{
closed = 1;
nodes = (
"456 0 LINE SMOOTH",
"470 0 OFFCURVE",
"481 10 OFFCURVE",
"484 23 CURVE SMOOTH",
"492 63 LINE SMOOTH",
"495 78 OFFCURVE",
"488 87 OFFCURVE",
"473 87 CURVE SMOOTH",
"141 87 LINE",
"267 677 LINE",
"269 690 OFFCURVE",
"262 700 OFFCURVE",
"248 700 CURVE SMOOTH",
"195 700 LINE SMOOTH",
"182 700 OFFCURVE",
"171 690 OFFCURVE",
"168 677 CURVE",
"29 23 LINE SMOOTH",
"26 10 OFFCURVE",
"34 0 OFFCURVE",
"47 0 CURVE SMOOTH"
);
}
);
width = 555.5625;
}
);
leftKerningGroup = I;
rightKerningGroup = L;
unicode = 004C;
},
{
color = 6;
glyphname = Lslash;
layers = (
{
layerId = "25564DC9-970B-4408-86C9-55005BB51701";
paths = (
{
closed = 1;
nodes = (
"464 0 LINE SMOOTH",
"478 0 OFFCURVE",
"489 10 OFFCURVE",
"492 23 CURVE SMOOTH",
"501 64 LINE SMOOTH",
"503 78 OFFCURVE",
"496 87 OFFCURVE",
"482 87 CURVE SMOOTH",
"149 87 LINE",
"199 319 LINE",
"367 379 LINE SMOOTH",
"384 385 OFFCURVE",
"391 390 OFFCURVE",
"394 405 CURVE SMOOTH",
"402 441 LINE SMOOTH",
"404 453 OFFCURVE",
"397 459 OFFCURVE",
"386 459 CURVE SMOOTH",
"383 459 OFFCURVE",
"379 458 OFFCURVE",
"373 456 CURVE SMOOTH",
"216 400 LINE",
"275 677 LINE SMOOTH",
"277 690 OFFCURVE",
"270 700 OFFCURVE",
"256 700 CURVE SMOOTH",
"203 700 LINE SMOOTH",
"190 700 OFFCURVE",
"179 690 OFFCURVE",
"176 677 CURVE SMOOTH",
"109 361 LINE",
"43 338 LINE SMOOTH",
"26 332 OFFCURVE",
"19 327 OFFCURVE",
"16 312 CURVE SMOOTH",
"8 276 LINE SMOOTH",
"6 264 OFFCURVE",
"12 257 OFFCURVE",
"23 257 CURVE SMOOTH",
"27 257 OFFCURVE",
"31 258 OFFCURVE",
"37 260 CURVE SMOOTH",
"92 279 LINE",
"37 23 LINE SMOOTH",
"34 10 OFFCURVE",
"42 0 OFFCURVE",
"55 0 CURVE SMOOTH"
);
}
);
width = 563.5625;
}
);
leftKerningGroup = I;
rightKerningGroup = L;
unicode = 0141;
userData = {
com.typemytype.robofont.guides = (
{
angle = 0;
isGlobal = 0;
magnetic = 5;
x = 0;
y = 215;
},
{
angle = 0;
isGlobal = 0;
magnetic = 5;
x = 0;
y = 548;
},
{
angle = 0;
isGlobal = 0;
magnetic = 5;
x = 0;
y = 438;
},
{
angle = 0;
isGlobal = 0;
magnetic = 5;
x = 0;
y = 267;
},
{
angle = 0;
isGlobal = 0;
magnetic = 5;
x = 0;
y = 353;
},
{
angle = 90;
isGlobal = 0;
magnetic = 5;
x = 129;
y = 0;
},
{
angle = 90;
isGlobal = 0;
magnetic = 5;
x = 325;
y = 0;
},
{
angle = 90;
isGlobal = 0;
magnetic = 5;
x = "-5";
y = 0;
}
);
};
},
{
color = 6;
glyphname = M;
layers = (
{
anchors = (
{
name = bottom;
position = "{344, 0}";
},
{
name = top;
position = "{493, 700}";
}
);
layerId = "25564DC9-970B-4408-86C9-55005BB51701";
paths = (
{
closed = 1;
nodes = (
"98 0 LINE SMOOTH",
"111 0 OFFCURVE",
"122 9 OFFCURVE",
"125 23 CURVE SMOOTH",
"231 523 LINE",
"333 189 LINE",
"337 176 OFFCURVE",
"344 168 OFFCURVE",
"361 168 CURVE",
"391 168 LINE",
"408 168 OFFCURVE",
"418 177 OFFCURVE",
"428 189 CURVE SMOOTH",
"657 502 LINE",
"555 23 LINE",
"552 10 OFFCURVE",
"561 0 OFFCURVE",
"574 0 CURVE SMOOTH",
"623 0 LINE SMOOTH",
"637 0 OFFCURVE",
"648 10 OFFCURVE",
"651 23 CURVE SMOOTH",
"790 676 LINE SMOOTH",
"793 690 OFFCURVE",
"785 700 OFFCURVE",
"771 700 CURVE SMOOTH",
"721 700 LINE SMOOTH",
"706 700 OFFCURVE",
"697 689 OFFCURVE",
"694 684 CURVE",
"395 280 LINE",
"270 684 LINE SMOOTH",
"268 689 OFFCURVE",
"263 700 OFFCURVE",
"247 700 CURVE SMOOTH",
"196 700 LINE SMOOTH",
"182 700 OFFCURVE",
"171 690 OFFCURVE",
"168 676 CURVE SMOOTH",
"29 23 LINE SMOOTH",
"26 10 OFFCURVE",
"34 0 OFFCURVE",
"48 0 CURVE SMOOTH"
);
}
);
width = 796.5;
}
);
leftKerningGroup = I;
rightKerningGroup = I;
unicode = 004D;
userData = {
com.typemytype.robofont.guides = (
{
angle = 0;
isGlobal = 0;
magnetic = 5;
x = 0;
y = 168;
},
{
angle = 0;
isGlobal = 0;
magnetic = 5;
x = 0;
y = 9;
},
{
angle = 0;
isGlobal = 0;
magnetic = 5;
x = 0;
y = 691;
},
{
angle = 90;
isGlobal = 0;
magnetic = 5;
x = 126;
y = 0;
},
{
angle = 90;
isGlobal = 0;
magnetic = 5;
x = 636;
y = 0;
}
);
};
},
{
color = 6;
glyphname = N;
layers = (
{
anchors = (
{
name = bottom;
position = "{294, 0}";
},
{
name = top;
position = "{426, 700}";
}
);
layerId = "25564DC9-970B-4408-86C9-55005BB51701";
paths = (
{
closed = 1;
nodes = (
"97 0 LINE SMOOTH",
"111 0 OFFCURVE",
"122 10 OFFCURVE",
"125 23 CURVE SMOOTH",
"232 524 LINE",
"456 14 LINE SMOOTH",
"458 9 OFFCURVE",
"463 0 OFFCURVE",
"478 0 CURVE",
"524 0 LINE",
"538 0 OFFCURVE",
"548 10 OFFCURVE",
"551 24 CURVE",
"690 676 LINE",
"693 690 OFFCURVE",
"686 700 OFFCURVE",
"672 700 CURVE",
"623 700 LINE",
"610 700 OFFCURVE",
"598 690 OFFCURVE",
"595 676 CURVE",
"487 170 LINE",
"263 686 LINE SMOOTH",
"261 691 OFFCURVE",
"256 700 OFFCURVE",
"241 700 CURVE SMOOTH",
"195 700 LINE SMOOTH",
"181 700 OFFCURVE",
"171 690 OFFCURVE",
"168 676 CURVE",
"29 23 LINE SMOOTH",
"26 10 OFFCURVE",
"34 0 OFFCURVE",
"47 0 CURVE SMOOTH"
);
}
);
width = 696.75;
}
);
leftKerningGroup = I;
rightKerningGroup = I;
unicode = 004E;
userData = {
com.typemytype.robofont.guides = (
{
angle = 0;
isGlobal = 0;
magnetic = 5;
x = 0;
y = 9;
},
{
angle = 0;
isGlobal = 0;
magnetic = 5;
x = 0;
y = 691;
},
{
angle = 90;
isGlobal = 0;
magnetic = 5;
x = 540;
y = 0;
},
{
angle = 90;
isGlobal = 0;
magnetic = 5;
x = 125;
y = 0;
}
);
};
},
{
color = 6;
glyphname = Eng;
layers = (
{
hints = (
{
horizontal = 1;
place = "{0, 0}";
type = Tag;
}
);
layerId = "25564DC9-970B-4408-86C9-55005BB51701";
paths = (
{
closed = 1;
nodes = (
"327 -225 LINE",
"463 -225 OFFCURVE",
"527 -150 OFFCURVE",
"550 -41 CURVE",
"703 676 LINE",
"706 690 OFFCURVE",
"698 700 OFFCURVE",
"684 700 CURVE",
"636 700 LINE",
"622 700 OFFCURVE",
"610 690 OFFCURVE",
"607 676 CURVE",
"501 176 LINE",
"278 686 LINE",
"277 690 OFFCURVE",
"272 700 OFFCURVE",
"256 700 CURVE",
"210 700 LINE",
"196 700 OFFCURVE",
"185 690 OFFCURVE",
"182 676 CURVE",
"43 23 LINE",
"40 10 OFFCURVE",
"47 0 OFFCURVE",
"61 0 CURVE",
"109 0 LINE",
"123 0 OFFCURVE",
"135 10 OFFCURVE",
"138 23 CURVE",
"243 519 LINE",
"467 14 LINE",
"455 -40 LINE",
"443 -95 OFFCURVE",
"420 -138 OFFCURVE",
"350 -138 CURVE",
"340 -138 LINE",
"326 -138 OFFCURVE",
"314 -148 OFFCURVE",
"311 -161 CURVE",
"303 -202 LINE",
"300 -215 OFFCURVE",
"307 -225 OFFCURVE",
"321 -225 CURVE"
);
}
);
width = 694.5;
}
);
leftKerningGroup = I;
rightKerningGroup = I;
unicode = 014A;
},
{
color = 6;
glyphname = O;
layers = (
{
anchors = (
{
name = bottom;
position = "{284, 0}";
},
{
name = center;
position = "{358, 350}";
},
{
name = ogonek;
position = "{557, 10}";
},
{
name = top;
position = "{421, 700}";
},
{
name = topleft;
position = "{114, 700}";
},
{
name = topright;
position = "{751, 700}";
}
);
layerId = "25564DC9-970B-4408-86C9-55005BB51701";
paths = (
{
closed = 1;
nodes = (
"449 -10 OFFCURVE",
"563 78 OFFCURVE",
"609 265 CURVE SMOOTH",
"623 324 OFFCURVE",
"634 375 OFFCURVE",
"645 434 CURVE SMOOTH",
"678 618 OFFCURVE",
"577 710 OFFCURVE",
"417 710 CURVE SMOOTH",
"248 710 OFFCURVE",
"135 618 OFFCURVE",
"91 434 CURVE SMOOTH",
"76 375 OFFCURVE",
"65 324 OFFCURVE",
"54 265 CURVE SMOOTH",
"20 78 OFFCURVE",
"122 -10 OFFCURVE",
"282 -10 CURVE SMOOTH"
);
},
{
closed = 1;
nodes = (
"177 75 OFFCURVE",
"131 133 OFFCURVE",
"155 270 CURVE SMOOTH",
"166 330 OFFCURVE",
"175 371 OFFCURVE",
"190 430 CURVE SMOOTH",
"223 567 OFFCURVE",
"307 625 OFFCURVE",
"413 625 CURVE SMOOTH",
"521 625 OFFCURVE",
"569 567 OFFCURVE",
"544 430 CURVE SMOOTH",
"533 371 OFFCURVE",
"525 330 OFFCURVE",
"510 270 CURVE SMOOTH",
"476 133 OFFCURVE",
"391 75 OFFCURVE",
"286 75 CURVE SMOOTH"
);
}
);
width = 677;
}
);
leftKerningGroup = O;
rightKerningGroup = O;
unicode = 004F;
userData = {
com.typemytype.robofont.guides = (
{
angle = 0;
isGlobal = 0;
magnetic = 5;
x = 0;
y = "-10";
},
{
angle = 0;
isGlobal = 0;
magnetic = 5;
x = 0;
y = 710;
},
{
angle = 0;
isGlobal = 0;
magnetic = 5;
x = 0;
y = 335;
},
{
angle = 0;
isGlobal = 0;
magnetic = 5;
x = 0;
y = 434;
},
{
angle = 0;
isGlobal = 0;
magnetic = 5;
x = 0;
y = 266;
},
{
angle = 90;
isGlobal = 0;
magnetic = 5;
x = 496;
y = 0;
}
);
};
},
{
color = 6;
glyphname = OE;
layers = (
{
anchors = (
{
name = bottom;
position = "{404, 0}";
},
{
name = top;
position = "{553, 700}";
}
);
layerId = "25564DC9-970B-4408-86C9-55005BB51701";
paths = (
{
closed = 1;
nodes = (
"781 0 LINE",
"795 0 OFFCURVE",
"806 10 OFFCURVE",
"809 23 CURVE",
"817 62 LINE",
"820 76 OFFCURVE",
"812 85 OFFCURVE",
"798 85 CURVE",
"487 85 LINE",
"535 312 LINE",
"817 312 LINE",
"831 312 OFFCURVE",
"842 322 OFFCURVE",
"845 335 CURVE",
"853 372 LINE",
"856 386 OFFCURVE",
"848 396 OFFCURVE",
"834 396 CURVE",
"552 396 LINE",
"600 615 LINE",
"903 615 LINE",
"918 615 OFFCURVE",
"928 624 OFFCURVE",
"931 638 CURVE",
"940 676 LINE",
"943 690 OFFCURVE",
"935 700 OFFCURVE",
"921 700 CURVE",
"420 700 LINE",
"220 700 OFFCURVE",
"134 611 OFFCURVE",
"91 428 CURVE SMOOTH",
"77 369 OFFCURVE",
"69 330 OFFCURVE",
"57 271 CURVE SMOOTH",
"23 94 OFFCURVE",
"119 0 OFFCURVE",
"299 0 CURVE"
);
},
{
closed = 1;
nodes = (
"172 85 OFFCURVE",
"132 146 OFFCURVE",
"157 275 CURVE SMOOTH",
"168 335 OFFCURVE",
"174 365 OFFCURVE",
"189 424 CURVE SMOOTH",
"221 561 OFFCURVE",
"282 615 OFFCURVE",
"420 615 CURVE",
"504 615 LINE",
"391 85 LINE",
"310 85 LINE"
);
}
);
width = 916.5;
}
);
leftKerningGroup = O;
rightKerningGroup = E;
unicode = 0152;
userData = {
com.typemytype.robofont.guides = (
{
angle = 90;
isGlobal = 0;
magnetic = 5;
x = 842;
y = 0;
},
{
angle = 90;
isGlobal = 0;
magnetic = 5;
x = 66;
y = 0;
},
{
angle = 90;
isGlobal = 0;
magnetic = 5;
x = 439;
y = 0;
},
{
angle = 90;
isGlobal = 0;
magnetic = 5;
x = 502;
y = 0;
}
);
};
},
{
color = 6;
glyphname = P;
layers = (
{
anchors = (
{
name = bottom;
position = "{267, 0}";
},
{
name = top;
position = "{416, 700}";
}
);
layerId = "25564DC9-970B-4408-86C9-55005BB51701";
paths = (
{
closed = 1;
nodes = (
"101 0 LINE SMOOTH",
"115 0 OFFCURVE",
"126 10 OFFCURVE",
"129 23 CURVE SMOOTH",
"182 273 LINE",
"368 273 LINE SMOOTH",
"520 273 OFFCURVE",
"617 344 OFFCURVE",
"648 486 CURVE SMOOTH",
"678 628 OFFCURVE",
"593 700 OFFCURVE",
"442 700 CURVE SMOOTH",
"195 700 LINE SMOOTH",
"182 700 OFFCURVE",
"171 690 OFFCURVE",
"168 676 CURVE SMOOTH",
"29 23 LINE SMOOTH",
"26 10 OFFCURVE",
"34 0 OFFCURVE",
"47 0 CURVE SMOOTH"
);
},
{
closed = 1;
nodes = (
"254 616 LINE",
"432 616 LINE SMOOTH",
"549 616 OFFCURVE",
"565 568 OFFCURVE",
"548 486 CURVE SMOOTH",
"530 402 OFFCURVE",
"459 357 OFFCURVE",
"366 357 CURVE SMOOTH",
"199 357 LINE"
);
}
);
width = 643.25;
}
);
leftKerningGroup = I;
unicode = 0050;
userData = {
com.typemytype.robofont.guides = (
{
angle = 0;
isGlobal = 0;
magnetic = 5;
x = 0;
y = 493;
},
{
angle = 0;
isGlobal = 0;
magnetic = 5;
x = 0;
y = 403;
},
{
angle = 0;
isGlobal = 0;
magnetic = 5;
x = 0;
y = 218;
},
{
angle = 0;
isGlobal = 0;
magnetic = 5;
x = 0;
y = 310;
},
{
angle = 0;
isGlobal = 0;
magnetic = 5;
x = 0;
y = 9;
},
{
angle = 0;
isGlobal = 0;
magnetic = 5;
x = 0;
y = 691;
},
{
angle = 90;
isGlobal = 0;
magnetic = 5;
x = 345;
y = 0;
},
{
angle = 90;
isGlobal = 0;
magnetic = 5;
x = 94;
y = 0;
},
{
angle = 90;
isGlobal = 0;
magnetic = 5;
x = 139;
y = 0;
}
);
};
},
{
color = 6;
glyphname = Thorn;
layers = (
{
anchors = (
{
name = bottom;
position = "{269, 0}";
},
{
name = top;
position = "{418, 700}";
}
);
layerId = "25564DC9-970B-4408-86C9-55005BB51701";
paths = (
{
closed = 1;
nodes = (
"101 0 LINE",
"115 0 OFFCURVE",
"126 10 OFFCURVE",
"129 23 CURVE",
"154 139 LINE",
"339 139 LINE",
"491 139 OFFCURVE",
"589 210 OFFCURVE",
"619 351 CURVE SMOOTH",
"649 493 OFFCURVE",
"565 565 OFFCURVE",
"414 565 CURVE",
"244 565 LINE",
"268 677 LINE",
"270 690 OFFCURVE",
"263 700 OFFCURVE",
"250 700 CURVE",
"195 700 LINE",
"182 700 OFFCURVE",
"171 690 OFFCURVE",
"168 677 CURVE",
"29 23 LINE",
"26 10 OFFCURVE",
"34 0 OFFCURVE",
"47 0 CURVE"
);
},
{
closed = 1;
nodes = (
"225 482 LINE",
"403 482 LINE",
"521 482 OFFCURVE",
"537 433 OFFCURVE",
"519 352 CURVE SMOOTH",
"502 267 OFFCURVE",
"430 222 OFFCURVE",
"338 222 CURVE",
"170 222 LINE"
);
}
);
width = 646.3125;
}
);
leftKerningGroup = I;
unicode = 00DE;
userData = {
com.typemytype.robofont.guides = (
{
angle = 0;
isGlobal = 0;
magnetic = 5;
x = 0;
y = 119;
},
{
angle = 0;
isGlobal = 0;
magnetic = 5;
x = 0;
y = 601;
},
{
angle = 0;
isGlobal = 0;
magnetic = 5;
x = 0;
y = 570;
},
{
angle = 0;
isGlobal = 0;
magnetic = 5;
x = 0;
y = 350;
}
);
};
},
{
color = 6;
glyphname = Q;
layers = (
{
anchors = (
{
name = bottom;
position = "{284, 0}";
},
{
name = top;
position = "{433, 700}";
}
);
hints = (
{
horizontal = 1;
place = "{0, 0}";
type = Tag;
}
);
layerId = "25564DC9-970B-4408-86C9-55005BB51701";
paths = (
{
closed = 1;
nodes = (
"529 -65 LINE",
"541 -65 OFFCURVE",
"552 -56 OFFCURVE",
"554 -45 CURVE SMOOTH",
"555 -39 OFFCURVE",
"554 -36 OFFCURVE",
"553 -34 CURVE",
"507 60 LINE",
"562 105 OFFCURVE",
"601 173 OFFCURVE",
"623 265 CURVE SMOOTH",
"638 324 OFFCURVE",
"649 375 OFFCURVE",
"659 434 CURVE SMOOTH",
"693 618 OFFCURVE",
"604 710 OFFCURVE",
"440 710 CURVE SMOOTH",
"277 710 OFFCURVE",
"149 618 OFFCURVE",
"104 434 CURVE SMOOTH",
"90 375 OFFCURVE",
"80 324 OFFCURVE",
"69 265 CURVE SMOOTH",
"35 78 OFFCURVE",
"116 -10 OFFCURVE",
"287 -10 CURVE SMOOTH",
"336 -10 OFFCURVE",
"379 -2 OFFCURVE",
"417 14 CURVE",
"446 -42 LINE",
"451 -50 OFFCURVE",
"458 -65 OFFCURVE",
"475 -65 CURVE"
);
},
{
closed = 1;
nodes = (
"205 75 OFFCURVE",
"145 133 OFFCURVE",
"170 270 CURVE SMOOTH",
"181 330 OFFCURVE",
"190 371 OFFCURVE",
"203 430 CURVE SMOOTH",
"238 567 OFFCURVE",
"322 625 OFFCURVE",
"422 625 CURVE SMOOTH",
"522 625 OFFCURVE",
"583 567 OFFCURVE",
"558 430 CURVE SMOOTH",
"548 371 OFFCURVE",
"539 330 OFFCURVE",
"524 270 CURVE SMOOTH",
"491 133 OFFCURVE",
"407 75 OFFCURVE",
"306 75 CURVE SMOOTH"
);
}
);
width = 677;
}
);
leftKerningGroup = O;
rightKerningGroup = O;
unicode = 0051;
userData = {
com.typemytype.robofont.guides = (
{
angle = 0;
isGlobal = 0;
magnetic = 5;
x = 0;
y = 710;
},
{
angle = 0;
isGlobal = 0;
magnetic = 5;
x = 0;
y = "-10";
},
{
angle = 0;
isGlobal = 0;
magnetic = 5;
x = 0;
y = "-56";
},
{
angle = 90;
isGlobal = 0;
magnetic = 5;
x = 82;
y = 0;
},
{
angle = 90;
isGlobal = 0;
magnetic = 5;
x = 750;
y = 0;
},
{
angle = 90;
isGlobal = 0;
magnetic = 5;
x = 580;
y = 0;
}
);
};
},
{
color = 6;
glyphname = R;
layers = (
{
anchors = (
{
name = bottom;
position = "{273, 0}";
},
{
name = top;
position = "{380, 700}";
}
);
hints = (
{
horizontal = 1;
place = "{0, 0}";
type = Tag;
}
);
layerId = "25564DC9-970B-4408-86C9-55005BB51701";
paths = (
{
closed = 1;
nodes = (
"112 0 LINE SMOOTH",
"126 0 OFFCURVE",
"138 10 OFFCURVE",
"141 23 CURVE SMOOTH",
"196 281 LINE",
"371 281 LINE",
"462 27 LINE SMOOTH",
"467 14 OFFCURVE",
"472 0 OFFCURVE",
"495 0 CURVE SMOOTH",
"543 0 LINE SMOOTH",
"554 0 OFFCURVE",
"566 9 OFFCURVE",
"568 20 CURVE SMOOTH",
"569 25 OFFCURVE",
"569 27 OFFCURVE",
"568 31 CURVE SMOOTH",
"470 297 LINE",
"565 322 OFFCURVE",
"632 387 OFFCURVE",
"654 490 CURVE SMOOTH",
"684 629 OFFCURVE",
"604 700 OFFCURVE",
"454 700 CURVE SMOOTH",
"210 700 LINE SMOOTH",
"196 700 OFFCURVE",
"185 690 OFFCURVE",
"182 676 CURVE SMOOTH",
"43 23 LINE SMOOTH",
"40 10 OFFCURVE",
"47 0 OFFCURVE",
"61 0 CURVE SMOOTH"
);
},
{
closed = 1;
nodes = (
"267 616 LINE",
"432 616 LINE SMOOTH",
"533 616 OFFCURVE",
"571 573 OFFCURVE",
"554 491 CURVE SMOOTH",
"537 408 OFFCURVE",
"480 366 OFFCURVE",
"379 366 CURVE SMOOTH",
"214 366 LINE"
);
}
);
width = 655.375;
}
);
leftKerningGroup = I;
rightKerningGroup = R;
unicode = 0052;
userData = {
com.typemytype.robofont.guides = (
{
angle = 0;
isGlobal = 0;
magnetic = 5;
x = 0;
y = 691;
},
{
angle = 0;
isGlobal = 0;
magnetic = 5;
x = 0;
y = 9;
},
{
angle = 90;
isGlobal = 0;
magnetic = 5;
x = 616;
y = 0;
},
{
angle = 90;
isGlobal = 0;
magnetic = 5;
x = 574;
y = 0;
},
{
angle = 90;
isGlobal = 0;
magnetic = 5;
x = 94;
y = 0;
},
{
angle = 90;
isGlobal = 0;
magnetic = 5;
x = 139;
y = 0;
}
);
};
},
{
color = 6;
glyphname = S;
layers = (
{
anchors = (
{
name = bottom;
position = "{255, 0}";
},
{
name = top;
position = "{386, 700}";
}
);
layerId = "25564DC9-970B-4408-86C9-55005BB51701";
paths = (
{
closed = 1;
nodes = (
"420 -10 OFFCURVE",
"526 55 OFFCURVE",
"553 180 CURVE SMOOTH",
"576 294 OFFCURVE",
"515 346 OFFCURVE",
"366 390 CURVE SMOOTH",
"240 429 OFFCURVE",
"193 453 OFFCURVE",
"208 522 CURVE SMOOTH",
"223 592 OFFCURVE",
"294 625 OFFCURVE",
"380 625 CURVE SMOOTH",
"457 625 OFFCURVE",
"509 583 OFFCURVE",
"505 528 CURVE SMOOTH",
"506 513 OFFCURVE",
"517 509 OFFCURVE",
"526 509 CURVE SMOOTH",
"583 509 LINE SMOOTH",
"597 509 OFFCURVE",
"603 519 OFFCURVE",
"605 529 CURVE SMOOTH",
"620 608 OFFCURVE",
"546 710 OFFCURVE",
"384 710 CURVE SMOOTH",
"230 710 OFFCURVE",
"134 637 OFFCURVE",
"111 530 CURVE SMOOTH",
"87 415 OFFCURVE",
"144 361 OFFCURVE",
"281 319 CURVE SMOOTH",
"412 278 OFFCURVE",
"469 256 OFFCURVE",
"454 187 CURVE SMOOTH",
"440 119 OFFCURVE",
"373 75 OFFCURVE",
"259 75 CURVE SMOOTH",
"155 75 OFFCURVE",
"115 129 OFFCURVE",
"115 177 CURVE",
"113 188 OFFCURVE",
"107 197 OFFCURVE",
"93 197 CURVE SMOOTH",
"38 197 LINE SMOOTH",
"26 197 OFFCURVE",
"17 187 OFFCURVE",
"16 176 CURVE SMOOTH",
"3 78 OFFCURVE",
"82 -10 OFFCURVE",
"255 -10 CURVE SMOOTH"
);
}
);
width = 620;
}
);
leftKerningGroup = S;
rightKerningGroup = S;
unicode = 0053;
userData = {
com.typemytype.robofont.guides = (
{
angle = 0;
isGlobal = 0;
magnetic = 5;
x = 0;
y = 355;
},
{
angle = 90;
isGlobal = 0;
magnetic = 5;
x = 306;
y = 0;
}
);
};
},
{
color = 6;
glyphname = Scedilla;
layers = (
{
hints = (
{
horizontal = 1;
place = "{0, 0}";
type = Tag;
}
);
layerId = "25564DC9-970B-4408-86C9-55005BB51701";
paths = (
{
closed = 1;
nodes = (
"293 -221 OFFCURVE",
"335 -181 OFFCURVE",
"345 -132 CURVE SMOOTH",
"355 -83 OFFCURVE",
"332 -48 OFFCURVE",
"286 -48 CURVE SMOOTH",
"273 -48 OFFCURVE",
"257 -51 OFFCURVE",
"248 -56 CURVE",
"280 -8 LINE",
"424 1 OFFCURVE",
"530 73 OFFCURVE",
"555 189 CURVE SMOOTH",
"579 303 OFFCURVE",
"516 346 OFFCURVE",
"366 390 CURVE SMOOTH",
"241 429 OFFCURVE",
"194 453 OFFCURVE",
"209 522 CURVE SMOOTH",
"223 592 OFFCURVE",
"289 625 OFFCURVE",
"376 625 CURVE SMOOTH",
"461 625 OFFCURVE",
"510 583 OFFCURVE",
"506 528 CURVE SMOOTH",
"507 513 OFFCURVE",
"518 509 OFFCURVE",
"527 509 CURVE SMOOTH",
"581 509 LINE SMOOTH",
"594 509 OFFCURVE",
"604 519 OFFCURVE",
"606 529 CURVE SMOOTH",
"620 608 OFFCURVE",
"560 710 OFFCURVE",
"394 710 CURVE SMOOTH",
"240 710 OFFCURVE",
"131 628 OFFCURVE",
"109 521 CURVE SMOOTH",
"84 406 OFFCURVE",
"145 361 OFFCURVE",
"282 319 CURVE SMOOTH",
"413 278 OFFCURVE",
"469 256 OFFCURVE",
"455 187 CURVE SMOOTH",
"441 119 OFFCURVE",
"379 75 OFFCURVE",
"265 75 CURVE SMOOTH",
"153 75 OFFCURVE",
"115 129 OFFCURVE",
"115 177 CURVE SMOOTH",
"114 188 OFFCURVE",
"108 197 OFFCURVE",
"94 197 CURVE SMOOTH",
"42 197 LINE SMOOTH",
"30 197 OFFCURVE",
"19 187 OFFCURVE",
"16 176 CURVE SMOOTH",
"-1 88 OFFCURVE",
"62 3 OFFCURVE",
"222 -9 CURVE",
"195 -53 LINE SMOOTH",
"188 -64 OFFCURVE",
"179 -75 OFFCURVE",
"185 -83 CURVE SMOOTH",
"198 -101 LINE SMOOTH",
"210 -117 OFFCURVE",
"228 -98 OFFCURVE",
"258 -98 CURVE SMOOTH",
"280 -98 OFFCURVE",
"295 -111 OFFCURVE",
"290 -133 CURVE SMOOTH",
"285 -156 OFFCURVE",
"264 -170 OFFCURVE",
"242 -170 CURVE SMOOTH",
"200 -170 OFFCURVE",
"199 -139 OFFCURVE",
"179 -155 CURVE SMOOTH",
"161 -169 LINE SMOOTH",
"140 -185 OFFCURVE",
"176 -219 OFFCURVE",
"231 -220 CURVE SMOOTH"
);
}
);
width = 621.25;
}
);
leftKerningGroup = S;
leftMetricsKey = S;
rightKerningGroup = S;
rightMetricsKey = S;
unicode = 015E;
userData = {
com.typemytype.robofont.guides = (
{
angle = 90;
isGlobal = 0;
magnetic = 5;
x = 306;
y = 0;
}
);
};
},
{
color = 6;
glyphname = T;
layers = (
{
anchors = (
{
name = bottom;
position = "{223, 0}";
},
{
name = center;
position = "{306, 350}";
},
{
name = top;
position = "{375, 700}";
}
);
layerId = "25564DC9-970B-4408-86C9-55005BB51701";
paths = (
{
closed = 1;
nodes = (
"250 0 LINE SMOOTH",
"264 0 OFFCURVE",
"275 10 OFFCURVE",
"278 23 CURVE",
"403 611 LINE",
"594 611 LINE",
"609 611 OFFCURVE",
"619 621 OFFCURVE",
"622 634 CURVE",
"631 676 LINE SMOOTH",
"634 690 OFFCURVE",
"627 700 OFFCURVE",
"613 700 CURVE SMOOTH",
"131 700 LINE SMOOTH",
"117 700 OFFCURVE",
"106 690 OFFCURVE",
"103 676 CURVE SMOOTH",
"94 634 LINE SMOOTH",
"91 621 OFFCURVE",
"99 611 OFFCURVE",
"112 611 CURVE SMOOTH",
"304 611 LINE",
"179 23 LINE",
"176 10 OFFCURVE",
"184 0 OFFCURVE",
"198 0 CURVE SMOOTH"
);
}
);
width = 573.875;
}
);
leftKerningGroup = T;
rightKerningGroup = T;
unicode = 0054;
userData = {
com.typemytype.robofont.guides = (
{
angle = 0;
isGlobal = 0;
magnetic = 5;
x = 0;
y = 495;
},
{
angle = 0;
isGlobal = 0;
magnetic = 5;
x = 0;
y = 9;
},
{
angle = 0;
isGlobal = 0;
magnetic = 5;
x = 0;
y = 691;
},
{
angle = 0;
isGlobal = 0;
magnetic = 5;
x = 0;
y = 649;
},
{
angle = 90;
isGlobal = 0;
magnetic = 5;
x = 279;
y = 0;
},
{
angle = 90;
isGlobal = 0;
magnetic = 5;
x = 324;
y = 0;
},
{
angle = 90;
isGlobal = 0;
magnetic = 5;
x = 59;
y = 0;
},
{
angle = 90;
isGlobal = 0;
magnetic = 5;
x = 544;
y = 0;
}
);
};
},
{
color = 6;
glyphname = Tbar;
layers = (
{
layerId = "25564DC9-970B-4408-86C9-55005BB51701";
paths = (
{
closed = 1;
nodes = (
"255 0 LINE SMOOTH",
"269 0 OFFCURVE",
"280 10 OFFCURVE",
"283 23 CURVE SMOOTH",
"349 333 LINE",
"461 333 LINE",
"475 333 OFFCURVE",
"487 342 OFFCURVE",
"490 356 CURVE SMOOTH",
"495 381 LINE SMOOTH",
"498 395 OFFCURVE",
"491 405 OFFCURVE",
"477 405 CURVE SMOOTH",
"365 405 LINE",
"409 611 LINE",
"600 611 LINE SMOOTH",
"614 611 OFFCURVE",
"625 621 OFFCURVE",
"628 634 CURVE SMOOTH",
"637 676 LINE SMOOTH",
"640 690 OFFCURVE",
"632 700 OFFCURVE",
"618 700 CURVE SMOOTH",
"136 700 LINE SMOOTH",
"123 700 OFFCURVE",
"111 690 OFFCURVE",
"108 676 CURVE SMOOTH",
"99 634 LINE SMOOTH",
"96 621 OFFCURVE",
"105 611 OFFCURVE",
"118 611 CURVE SMOOTH",
"310 611 LINE",
"266 405 LINE",
"153 405 LINE SMOOTH",
"140 405 OFFCURVE",
"128 395 OFFCURVE",
"125 381 CURVE",
"120 356 LINE",
"117 342 OFFCURVE",
"124 333 OFFCURVE",
"138 333 CURVE",
"250 333 LINE",
"184 23 LINE SMOOTH",
"181 10 OFFCURVE",
"190 0 OFFCURVE",
"203 0 CURVE SMOOTH"
);
}
);
width = 585.75;
}
);
leftKerningGroup = T;
rightKerningGroup = T;
unicode = 0166;
userData = {
com.typemytype.robofont.guides = (
{
angle = 0;
isGlobal = 0;
magnetic = 5;
x = 0;
y = 380;
},
{
angle = 90;
isGlobal = 0;
magnetic = 5;
x = 301;
y = 0;
},
{
angle = 90;
isGlobal = 0;
magnetic = 5;
x = 50;
y = 0;
}
);
};
},
{
color = 6;
glyphname = U;
layers = (
{
anchors = (
{
name = bottom;
position = "{296, 0}";
},
{
name = ogonek;
position = "{377, 62}";
},
{
name = top;
position = "{426, 700}";
},
{
name = topright;
position = "{775, 700}";
}
);
layerId = "25564DC9-970B-4408-86C9-55005BB51701";
paths = (
{
closed = 1;
nodes = (
"474 -10 OFFCURVE",
"574 77 OFFCURVE",
"615 270 CURVE SMOOTH",
"701 676 LINE SMOOTH",
"704 690 OFFCURVE",
"697 700 OFFCURVE",
"683 700 CURVE SMOOTH",
"632 700 LINE SMOOTH",
"618 700 OFFCURVE",
"606 690 OFFCURVE",
"603 676 CURVE SMOOTH",
"516 268 LINE SMOOTH",
"488 137 OFFCURVE",
"412 76 OFFCURVE",
"298 76 CURVE SMOOTH",
"179 76 OFFCURVE",
"144 137 OFFCURVE",
"172 268 CURVE SMOOTH",
"259 676 LINE SMOOTH",
"262 690 OFFCURVE",
"255 700 OFFCURVE",
"241 700 CURVE SMOOTH",
"189 700 LINE SMOOTH",
"176 700 OFFCURVE",
"164 690 OFFCURVE",
"161 676 CURVE SMOOTH",
"75 270 LINE",
"34 77 OFFCURVE",
"122 -10 OFFCURVE",
"294 -10 CURVE SMOOTH"
);
}
);
width = 701.125;
}
);
leftKerningGroup = U;
rightKerningGroup = U;
unicode = 0055;
userData = {
com.typemytype.robofont.guides = (
{
angle = 0;
isGlobal = 0;
magnetic = 5;
x = 0;
y = 267;
},
{
angle = 90;
isGlobal = 0;
magnetic = 5;
x = 333;
y = 0;
},
{
angle = 90;
isGlobal = 0;
magnetic = 5;
x = 535;
y = 0;
},
{
angle = 90;
isGlobal = 0;
magnetic = 5;
x = 580;
y = 0;
},
{
angle = 90;
isGlobal = 0;
magnetic = 5;
x = 84;
y = 0;
},
{
angle = 90;
isGlobal = 0;
magnetic = 5;
x = 129;
y = 0;
}
);
};
},
{
color = 6;
glyphname = Uogonek;
layers = (
{
layerId = "25564DC9-970B-4408-86C9-55005BB51701";
paths = (
{
closed = 1;
nodes = (
"326 -220 LINE",
"340 -220 OFFCURVE",
"348 -214 OFFCURVE",
"352 -201 CURVE",
"358 -174 LINE",
"361 -160 OFFCURVE",
"354 -151 OFFCURVE",
"341 -151 CURVE",
"324 -151 LINE",
"289 -151 OFFCURVE",
"262 -121 OFFCURVE",
"271 -76 CURVE SMOOTH",
"280 -34 OFFCURVE",
"311 -9 OFFCURVE",
"346 -7 CURVE",
"477 3 OFFCURVE",
"581 80 OFFCURVE",
"615 270 CURVE",
"701 676 LINE",
"704 690 OFFCURVE",
"697 700 OFFCURVE",
"683 700 CURVE",
"632 700 LINE",
"618 700 OFFCURVE",
"606 690 OFFCURVE",
"603 676 CURVE",
"516 268 LINE",
"488 137 OFFCURVE",
"412 76 OFFCURVE",
"298 76 CURVE SMOOTH",
"179 76 OFFCURVE",
"145 137 OFFCURVE",
"172 268 CURVE",
"259 676 LINE",
"262 690 OFFCURVE",
"255 700 OFFCURVE",
"241 700 CURVE",
"189 700 LINE",
"176 700 OFFCURVE",
"164 690 OFFCURVE",
"161 676 CURVE",
"75 270 LINE",
"40 103 OFFCURVE",
"98 15 OFFCURVE",
"228 -5 CURVE",
"214 -23 OFFCURVE",
"203 -45 OFFCURVE",
"199 -74 CURVE SMOOTH",
"183 -161 OFFCURVE",
"240 -220 OFFCURVE",
"320 -220 CURVE"
);
}
);
width = 701.75;
}
);
leftKerningGroup = U;
rightKerningGroup = U;
unicode = 0172;
userData = {
com.typemytype.robofont.guides = (
{
angle = 0;
isGlobal = 0;
magnetic = 5;
x = 0;
y = "-187";
},
{
angle = 90;
isGlobal = 0;
magnetic = 5;
x = 332;
y = 0;
}
);
};
},
{
color = 6;
glyphname = V;
layers = (
{
anchors = (
{
name = bottom;
position = "{273, 0}";
},
{
name = top;
position = "{422, 700}";
}
);
layerId = "25564DC9-970B-4408-86C9-55005BB51701";
paths = (
{
closed = 1;
nodes = (
"299 0 LINE SMOOTH",
"319 0 OFFCURVE",
"331 10 OFFCURVE",
"340 26 CURVE",
"700 669 LINE SMOOTH",
"708 683 OFFCURVE",
"703 700 OFFCURVE",
"687 700 CURVE SMOOTH",
"626 700 LINE SMOOTH",
"611 700 OFFCURVE",
"603 689 OFFCURVE",
"600 682 CURVE",
"283 115 LINE",
"208 682 LINE",
"207 691 OFFCURVE",
"201 700 OFFCURVE",
"185 700 CURVE SMOOTH",
"134 700 LINE",
"121 700 OFFCURVE",
"111 691 OFFCURVE",
"113 675 CURVE",
"200 26 LINE SMOOTH",
"201 10 OFFCURVE",
"211 0 OFFCURVE",
"231 0 CURVE SMOOTH"
);
}
);
width = 655.3125;
}
);
unicode = 0056;
userData = {
com.typemytype.robofont.guides = (
{
angle = 0;
isGlobal = 0;
magnetic = 5;
x = 0;
y = 24;
}
);
};
},
{
color = 6;
glyphname = W;
layers = (
{
anchors = (
{
name = bottom;
position = "{341, 0}";
},
{
name = top;
position = "{470, 700}";
}
);
layerId = "25564DC9-970B-4408-86C9-55005BB51701";
paths = (
{
closed = 1;
nodes = (
"180 0 LINE SMOOTH",
"198 0 OFFCURVE",
"210 10 OFFCURVE",
"217 25 CURVE SMOOTH",
"416 404 LINE",
"461 25 LINE",
"462 10 OFFCURVE",
"471 0 OFFCURVE",
"489 0 CURVE SMOOTH",
"533 0 LINE SMOOTH",
"551 0 OFFCURVE",
"562 9 OFFCURVE",
"570 27 CURVE",
"831 674 LINE SMOOTH",
"837 688 OFFCURVE",
"835 700 OFFCURVE",
"817 700 CURVE SMOOTH",
"763 700 LINE SMOOTH",
"749 700 OFFCURVE",
"740 695 OFFCURVE",
"735 683 CURVE SMOOTH",
"524 168 LINE",
"487 521 LINE SMOOTH",
"486 532 OFFCURVE",
"480 545 OFFCURVE",
"461 545 CURVE SMOOTH",
"425 545 LINE SMOOTH",
"406 545 OFFCURVE",
"394 532 OFFCURVE",
"388 521 CURVE SMOOTH",
"207 176 LINE",
"212 679 LINE SMOOTH",
"212 691 OFFCURVE",
"205 700 OFFCURVE",
"190 700 CURVE SMOOTH",
"141 700 LINE SMOOTH",
"128 700 OFFCURVE",
"119 690 OFFCURVE",
"119 679 CURVE SMOOTH",
"112 27 LINE SMOOTH",
"112 9 OFFCURVE",
"120 0 OFFCURVE",
"138 0 CURVE SMOOTH"
);
}
);
width = 790.8125;
}
);
leftKerningGroup = W;
rightKerningGroup = W;
unicode = 0057;
userData = {
com.typemytype.robofont.guides = (
{
angle = 0;
isGlobal = 0;
magnetic = 5;
x = 0;
y = 545;
},
{
angle = 0;
isGlobal = 0;
magnetic = 5;
x = 0;
y = 670;
},
{
angle = 0;
isGlobal = 0;
magnetic = 5;
x = 0;
y = 24;
}
);
};
},
{
color = 6;
glyphname = X;
layers = (
{
anchors = (
{
name = bottom;
position = "{262, 0}";
},
{
name = top;
position = "{411, 700}";
}
);
layerId = "25564DC9-970B-4408-86C9-55005BB51701";
paths = (
{
closed = 1;
nodes = (
"44 0 LINE SMOOTH",
"66 0 OFFCURVE",
"73 11 OFFCURVE",
"79 17 CURVE SMOOTH",
"318 272 LINE",
"449 17 LINE SMOOTH",
"452 11 OFFCURVE",
"458 0 OFFCURVE",
"479 0 CURVE SMOOTH",
"528 0 LINE SMOOTH",
"544 0 OFFCURVE",
"555 16 OFFCURVE",
"548 30 CURVE SMOOTH",
"388 344 LINE",
"678 667 LINE SMOOTH",
"690 681 OFFCURVE",
"681 700 OFFCURVE",
"664 700 CURVE SMOOTH",
"610 700 LINE SMOOTH",
"586 700 OFFCURVE",
"579 689 OFFCURVE",
"573 683 CURVE SMOOTH",
"344 431 LINE",
"217 683 LINE SMOOTH",
"214 689 OFFCURVE",
"209 700 OFFCURVE",
"187 700 CURVE SMOOTH",
"137 700 LINE SMOOTH",
"121 700 OFFCURVE",
"111 684 OFFCURVE",
"118 669 CURVE SMOOTH",
"274 360 LINE",
"-30 33 LINE SMOOTH",
"-42 20 OFFCURVE",
"-32 0 OFFCURVE",
"-15 0 CURVE SMOOTH"
);
}
);
width = 634;
}
);
unicode = 0058;
userData = {
com.typemytype.robofont.guides = (
{
angle = 0;
isGlobal = 0;
magnetic = 5;
x = 0;
y = 350;
},
{
angle = 90;
isGlobal = 0;
magnetic = 5;
x = 28;
y = 0;
},
{
angle = 90;
isGlobal = 0;
magnetic = 5;
x = 580;
y = 0;
}
);
};
},
{
color = 6;
glyphname = Y;
layers = (
{
anchors = (
{
name = bottom;
position = "{268, 0}";
},
{
name = top;
position = "{382, 700}";
},
{
name = topleft;
position = "{114, 700}";
}
);
layerId = "25564DC9-970B-4408-86C9-55005BB51701";
paths = (
{
closed = 1;
nodes = (
"284 0 LINE SMOOTH",
"298 0 OFFCURVE",
"309 10 OFFCURVE",
"312 23 CURVE SMOOTH",
"362 259 LINE",
"690 667 LINE",
"701 681 OFFCURVE",
"702 700 OFFCURVE",
"680 700 CURVE SMOOTH",
"618 700 LINE SMOOTH",
"605 700 OFFCURVE",
"595 692 OFFCURVE",
"588 683 CURVE SMOOTH",
"328 361 LINE",
"204 683 LINE SMOOTH",
"200 692 OFFCURVE",
"193 700 OFFCURVE",
"181 700 CURVE SMOOTH",
"134 700 LINE",
"116 700 OFFCURVE",
"104 682 OFFCURVE",
"110 667 CURVE",
"264 259 LINE",
"214 23 LINE SMOOTH",
"211 10 OFFCURVE",
"220 0 OFFCURVE",
"233 0 CURVE SMOOTH"
);
}
);
width = 644;
}
);
leftKerningGroup = Y;
rightKerningGroup = Y;
unicode = 0059;
userData = {
com.typemytype.robofont.guides = (
{
angle = 90;
isGlobal = 0;
magnetic = 5;
x = 310;
y = 0;
}
);
};
},
{
color = 6;
glyphname = Z;
layers = (
{
anchors = (
{
name = bottom;
position = "{243, 0}";
},
{
name = center;
position = "{317, 350}";
},
{
name = top;
position = "{384, 700}";
}
);
layerId = "25564DC9-970B-4408-86C9-55005BB51701";
paths = (
{
closed = 1;
nodes = (
"473 0 LINE SMOOTH",
"487 0 OFFCURVE",
"497 10 OFFCURVE",
"500 23 CURVE SMOOTH",
"509 63 LINE SMOOTH",
"512 78 OFFCURVE",
"505 87 OFFCURVE",
"490 87 CURVE SMOOTH",
"127 87 LINE",
"599 598 LINE SMOOTH",
"607 607 OFFCURVE",
"617 617 OFFCURVE",
"620 633 CURVE SMOOTH",
"629 676 LINE SMOOTH",
"632 690 OFFCURVE",
"624 700 OFFCURVE",
"610 700 CURVE SMOOTH",
"157 700 LINE SMOOTH",
"144 700 OFFCURVE",
"132 690 OFFCURVE",
"129 676 CURVE SMOOTH",
"121 636 LINE SMOOTH",
"118 623 OFFCURVE",
"126 613 OFFCURVE",
"139 613 CURVE SMOOTH",
"486 613 LINE",
"13 104 LINE SMOOTH",
"7 98 OFFCURVE",
"-4 87 OFFCURVE",
"-9 67 CURVE SMOOTH",
"-19 24 LINE SMOOTH",
"-22 10 OFFCURVE",
"-14 0 OFFCURVE",
"0 0 CURVE SMOOTH"
);
}
);
width = 596.125;
}
);
leftKerningGroup = Z;
rightKerningGroup = Z;
unicode = 005A;
userData = {
com.typemytype.robofont.guides = (
{
angle = 0;
isGlobal = 0;
magnetic = 5;
x = 0;
y = 51;
},
{
angle = 0;
isGlobal = 0;
magnetic = 5;
x = 0;
y = 9;
},
{
angle = 0;
isGlobal = 0;
magnetic = 5;
x = 0;
y = 691;
},
{
angle = 0;
isGlobal = 0;
magnetic = 5;
x = 0;
y = 649;
},
{
angle = 90;
isGlobal = 0;
magnetic = 5;
x = 189;
y = 0;
},
{
angle = 90;
isGlobal = 0;
magnetic = 5;
x = 815;
y = 0;
},
{
angle = 90;
isGlobal = 0;
magnetic = 5;
x = 732;
y = 0;
},
{
angle = 90;
isGlobal = 0;
magnetic = 5;
x = "-431";
y = 0;
},
{
angle = 90;
isGlobal = 0;
magnetic = 5;
x = 74;
y = 0;
},
{
angle = 90;
isGlobal = 0;
magnetic = 5;
x = 541;
y = 0;
}
);
};
},
{
color = 6;
glyphname = a;
layers = (
{
anchors = (
{
name = bottom;
position = "{238, 0}";
},
{
name = ogonek;
position = "{462, 70}";
},
{
name = top;
position = "{329, 520}";
}
);
layerId = "25564DC9-970B-4408-86C9-55005BB51701";
paths = (
{
closed = 1;
nodes = (
"288 -10 OFFCURVE",
"329 22 OFFCURVE",
"371 65 CURVE",
"362 23 LINE SMOOTH",
"359 10 OFFCURVE",
"367 0 OFFCURVE",
"380 0 CURVE SMOOTH",
"426 0 LINE SMOOTH",
"439 0 OFFCURVE",
"450 10 OFFCURVE",
"453 23 CURVE SMOOTH",
"554 497 LINE SMOOTH",
"557 510 OFFCURVE",
"548 520 OFFCURVE",
"535 520 CURVE SMOOTH",
"490 520 LINE SMOOTH",
"476 520 OFFCURVE",
"465 510 OFFCURVE",
"462 497 CURVE SMOOTH",
"454 456 LINE",
"430 498 OFFCURVE",
"393 530 OFFCURVE",
"307 530 CURVE SMOOTH",
"152 530 OFFCURVE",
"81 414 OFFCURVE",
"49 290 CURVE SMOOTH",
"44 268 OFFCURVE",
"40 252 OFFCURVE",
"36 230 CURVE SMOOTH",
"16 104 OFFCURVE",
"56 -10 OFFCURVE",
"203 -10 CURVE SMOOTH"
);
},
{
closed = 1;
nodes = (
"129 71 OFFCURVE",
"120 146 OFFCURVE",
"133 231 CURVE SMOOTH",
"136 251 OFFCURVE",
"139 269 OFFCURVE",
"145 289 CURVE SMOOTH",
"170 373 OFFCURVE",
"220 449 OFFCURVE",
"315 449 CURVE SMOOTH",
"412 449 OFFCURVE",
"432 373 OFFCURVE",
"418 302 CURVE SMOOTH",
"414 280 OFFCURVE",
"407 246 OFFCURVE",
"402 225 CURVE SMOOTH",
"384 151 OFFCURVE",
"324 71 OFFCURVE",
"224 71 CURVE SMOOTH"
);
}
);
width = 586.0625;
}
);
leftKerningGroup = a;
rightKerningGroup = a;
unicode = 0061;
},
{
color = 6;
glyphname = aogonek;
layers = (
{
hints = (
{
horizontal = 1;
place = "{0, 0}";
type = Tag;
},
{
horizontal = 1;
place = "{0, 0}";
type = Tag;
},
{
horizontal = 1;
place = "{0, 0}";
type = Tag;
},
{
horizontal = 1;
place = "{0, 0}";
type = Tag;
}
);
layerId = "25564DC9-970B-4408-86C9-55005BB51701";
paths = (
{
closed = 1;
nodes = (
"387 -220 LINE SMOOTH",
"401 -220 OFFCURVE",
"413 -210 OFFCURVE",
"416 -197 CURVE SMOOTH",
"421 -174 LINE SMOOTH",
"424 -160 OFFCURVE",
"416 -151 OFFCURVE",
"403 -151 CURVE SMOOTH",
"397 -151 LINE SMOOTH",
"369 -151 OFFCURVE",
"354 -136 OFFCURVE",
"354 -107 CURVE SMOOTH",
"354 -55 OFFCURVE",
"390 -20 OFFCURVE",
"430 -6 CURVE SMOOTH",
"435 -5 LINE SMOOTH",
"445 -2 OFFCURVE",
"451 10 OFFCURVE",
"453 20 CURVE SMOOTH",
"554 497 LINE SMOOTH",
"557 510 OFFCURVE",
"548 520 OFFCURVE",
"535 520 CURVE SMOOTH",
"490 520 LINE SMOOTH",
"476 520 OFFCURVE",
"465 510 OFFCURVE",
"462 497 CURVE SMOOTH",
"454 456 LINE",
"430 498 OFFCURVE",
"393 530 OFFCURVE",
"307 530 CURVE SMOOTH",
"152 530 OFFCURVE",
"81 414 OFFCURVE",
"49 290 CURVE SMOOTH",
"44 268 OFFCURVE",
"40 252 OFFCURVE",
"36 230 CURVE SMOOTH",
"17 108 OFFCURVE",
"52 -10 OFFCURVE",
"203 -10 CURVE SMOOTH",
"288 -10 OFFCURVE",
"329 22 OFFCURVE",
"371 65 CURVE",
"362 22 LINE SMOOTH",
"358 5 OFFCURVE",
"369 0 OFFCURVE",
"380 0 CURVE",
"397 0 LINE",
"402 50 LINE",
"315 7 OFFCURVE",
"280 -58 OFFCURVE",
"280 -118 CURVE SMOOTH",
"280 -178 OFFCURVE",
"317 -220 OFFCURVE",
"378 -220 CURVE SMOOTH"
);
},
{
closed = 1;
nodes = (
"125 71 OFFCURVE",
"122 153 OFFCURVE",
"133 231 CURVE SMOOTH",
"136 251 OFFCURVE",
"139 269 OFFCURVE",
"145 289 CURVE SMOOTH",
"170 373 OFFCURVE",
"220 449 OFFCURVE",
"315 449 CURVE SMOOTH",
"415 449 OFFCURVE",
"432 364 OFFCURVE",
"418 302 CURVE SMOOTH",
"414 280 OFFCURVE",
"407 246 OFFCURVE",
"402 225 CURVE SMOOTH",
"384 151 OFFCURVE",
"324 71 OFFCURVE",
"224 71 CURVE SMOOTH"
);
}
);
width = 585.4375;
}
);
leftKerningGroup = a;
leftMetricsKey = a;
rightKerningGroup = a;
unicode = 0105;
userData = {
com.typemytype.robofont.guides = (
{
angle = 0;
isGlobal = 0;
magnetic = 5;
x = 0;
y = 22;
},
{
angle = 0;
isGlobal = 0;
magnetic = 5;
x = 0;
y = "-220";
},
{
angle = 90;
isGlobal = 0;
magnetic = 5;
x = 472;
y = 0;
}
);
};
},
{
color = 6;
glyphname = ae;
layers = (
{
anchors = (
{
name = bottom;
position = "{391, 0}";
},
{
name = top;
position = "{508, 520}";
}
);
layerId = "25564DC9-970B-4408-86C9-55005BB51701";
paths = (
{
closed = 1;
nodes = (
"263 -10 OFFCURVE",
"340 21 OFFCURVE",
"397 91 CURVE",
"419 31 OFFCURVE",
"470 -10 OFFCURVE",
"565 -10 CURVE SMOOTH",
"709 -10 OFFCURVE",
"800 83 OFFCURVE",
"807 117 CURVE SMOOTH",
"810 130 OFFCURVE",
"803 138 OFFCURVE",
"790 138 CURVE",
"745 138 LINE",
"730 138 OFFCURVE",
"726 136 OFFCURVE",
"711 121 CURVE SMOOTH",
"674 81 OFFCURVE",
"625 64 OFFCURVE",
"580 64 CURVE SMOOTH",
"519 64 OFFCURVE",
"461 106 OFFCURVE",
"482 220 CURVE",
"484 229 LINE",
"821 229 LINE",
"834 229 OFFCURVE",
"847 238 OFFCURVE",
"850 252 CURVE",
"853 269 LINE",
"876 379 OFFCURVE",
"869 530 OFFCURVE",
"681 530 CURVE SMOOTH",
"601 530 OFFCURVE",
"539 498 OFFCURVE",
"494 452 CURVE",
"478 496 OFFCURVE",
"433 530 OFFCURVE",
"337 530 CURVE SMOOTH",
"193 530 OFFCURVE",
"117 440 OFFCURVE",
"108 400 CURVE SMOOTH",
"106 388 OFFCURVE",
"114 378 OFFCURVE",
"126 378 CURVE",
"169 378 LINE",
"179 378 OFFCURVE",
"185 382 OFFCURVE",
"192 395 CURVE SMOOTH",
"213 422 OFFCURVE",
"254 457 OFFCURVE",
"321 457 CURVE SMOOTH",
"402 457 OFFCURVE",
"428 419 OFFCURVE",
"415 355 CURVE",
"410 328 LINE",
"257 307 LINE",
"133 290 OFFCURVE",
"39 232 OFFCURVE",
"20 141 CURVE SMOOTH",
"1 56 OFFCURVE",
"61 -10 OFFCURVE",
"173 -10 CURVE SMOOTH"
);
},
{
closed = 1;
nodes = (
"151 65 OFFCURVE",
"101 92 OFFCURVE",
"113 148 CURVE SMOOTH",
"122 195 OFFCURVE",
"177 228 OFFCURVE",
"275 241 CURVE",
"395 258 LINE",
"389 230 LINE",
"365 118 OFFCURVE",
"288 65 OFFCURVE",
"206 65 CURVE SMOOTH"
);
},
{
closed = 1;
nodes = (
"499 302 LINE",
"524 408 OFFCURVE",
"599 457 OFFCURVE",
"665 457 CURVE SMOOTH",
"755 457 OFFCURVE",
"782 392 OFFCURVE",
"765 302 CURVE",
"764 298 LINE",
"499 298 LINE"
);
}
);
width = 891.125;
}
);
leftKerningGroup = a;
rightKerningGroup = e;
unicode = 00E6;
userData = {
com.typemytype.robofont.guides = (
{
angle = 0;
isGlobal = 0;
magnetic = 5;
x = 0;
y = "-10";
},
{
angle = 0;
isGlobal = 0;
magnetic = 5;
x = 0;
y = 530;
},
{
angle = 90;
isGlobal = 0;
magnetic = 5;
x = 473;
y = 0;
},
{
angle = 90;
isGlobal = 0;
magnetic = 5;
x = "-379";
y = 0;
},
{
angle = 90;
isGlobal = 0;
magnetic = 5;
x = 453;
y = 0;
}
);
};
},
{
color = 6;
glyphname = b;
layers = (
{
anchors = (
{
name = bottom;
position = "{243, 0}";
},
{
name = top;
position = "{402, 750}";
}
);
layerId = "25564DC9-970B-4408-86C9-55005BB51701";
paths = (
{
closed = 1;
nodes = (
"419 -10 OFFCURVE",
"498 100 OFFCURVE",
"529 226 CURVE SMOOTH",
"535 248 OFFCURVE",
"541 272 OFFCURVE",
"544 294 CURVE SMOOTH",
"564 419 OFFCURVE",
"519 530 OFFCURVE",
"371 530 CURVE SMOOTH",
"293 530 OFFCURVE",
"245 498 OFFCURVE",
"204 457 CURVE",
"252 687 LINE SMOOTH",
"255 700 OFFCURVE",
"248 710 OFFCURVE",
"235 710 CURVE SMOOTH",
"186 710 LINE SMOOTH",
"173 710 OFFCURVE",
"161 700 OFFCURVE",
"158 687 CURVE SMOOTH",
"17 23 LINE SMOOTH",
"14 10 OFFCURVE",
"22 0 OFFCURVE",
"35 0 CURVE SMOOTH",
"81 0 LINE SMOOTH",
"94 0 OFFCURVE",
"106 10 OFFCURVE",
"109 23 CURVE SMOOTH",
"118 65 LINE",
"141 22 OFFCURVE",
"190 -10 OFFCURVE",
"270 -10 CURVE SMOOTH"
);
},
{
closed = 1;
nodes = (
"160 71 OFFCURVE",
"141 151 OFFCURVE",
"155 225 CURVE SMOOTH",
"158 246 OFFCURVE",
"165 280 OFFCURVE",
"170 302 CURVE SMOOTH",
"188 373 OFFCURVE",
"254 449 OFFCURVE",
"350 449 CURVE SMOOTH",
"452 449 OFFCURVE",
"460 374 OFFCURVE",
"447 289 CURVE SMOOTH",
"445 269 OFFCURVE",
"441 251 OFFCURVE",
"435 231 CURVE SMOOTH",
"410 147 OFFCURVE",
"359 71 OFFCURVE",
"260 71 CURVE SMOOTH"
);
}
);
width = 595;
}
);
leftKerningGroup = h;
rightKerningGroup = b;
unicode = 0062;
userData = {
com.typemytype.robofont.guides = (
{
angle = 0;
isGlobal = 0;
magnetic = 5;
x = 0;
y = 530;
},
{
angle = 0;
isGlobal = 0;
magnetic = 5;
x = 0;
y = "-10";
},
{
angle = 0;
isGlobal = 0;
magnetic = 5;
x = 0;
y = 710;
},
{
angle = 0;
isGlobal = 0;
magnetic = 5;
x = 0;
y = 288;
},
{
angle = 0;
isGlobal = 0;
magnetic = 5;
x = 0;
y = 232;
},
{
angle = 0;
isGlobal = 0;
magnetic = 5;
x = 0;
y = 451;
},
{
angle = 0;
isGlobal = 0;
magnetic = 5;
x = 0;
y = 69;
},
{
angle = 90;
isGlobal = 0;
magnetic = 5;
x = 121;
y = 0;
},
{
angle = 90;
isGlobal = 0;
magnetic = 5;
x = 79;
y = 0;
}
);
};
},
{
color = 6;
glyphname = c;
layers = (
{
anchors = (
{
name = bottom;
position = "{221, 0}";
},
{
name = top;
position = "{327, 520}";
}
);
layerId = "25564DC9-970B-4408-86C9-55005BB51701";
paths = (
{
closed = 1;
nodes = (
"382 -10 OFFCURVE",
"457 89 OFFCURVE",
"476 156 CURVE SMOOTH",
"480 169 OFFCURVE",
"473 179 OFFCURVE",
"460 179 CURVE SMOOTH",
"409 179 LINE SMOOTH",
"395 179 OFFCURVE",
"390 174 OFFCURVE",
"381 158 CURVE SMOOTH",
"347 92 OFFCURVE",
"292 69 OFFCURVE",
"231 69 CURVE SMOOTH",
"151 69 OFFCURVE",
"112 115 OFFCURVE",
"131 225 CURVE SMOOTH",
"135 245 OFFCURVE",
"141 273 OFFCURVE",
"146 295 CURVE SMOOTH",
"173 404 OFFCURVE",
"242 451 OFFCURVE",
"322 451 CURVE SMOOTH",
"387 451 OFFCURVE",
"426 424 OFFCURVE",
"424 358 CURVE SMOOTH",
"424 343 OFFCURVE",
"431 337 OFFCURVE",
"445 337 CURVE SMOOTH",
"497 337 LINE SMOOTH",
"510 337 OFFCURVE",
"519 347 OFFCURVE",
"521 360 CURVE SMOOTH",
"529 429 OFFCURVE",
"482 530 OFFCURVE",
"326 530 CURVE SMOOTH",
"181 530 OFFCURVE",
"88 444 OFFCURVE",
"52 300 CURVE SMOOTH",
"47 279 OFFCURVE",
"39 240 OFFCURVE",
"35 220 CURVE SMOOTH",
"9 76 OFFCURVE",
"91 -10 OFFCURVE",
"225 -10 CURVE SMOOTH"
);
}
);
width = 551.125;
}
);
leftKerningGroup = o;
rightKerningGroup = c;
unicode = 0063;
userData = {
com.typemytype.robofont.guides = (
{
angle = 0;
isGlobal = 0;
magnetic = 5;
x = 0;
y = "-10";
},
{
angle = 0;
isGlobal = 0;
magnetic = 5;
x = 0;
y = 295;
},
{
angle = 0;
isGlobal = 0;
magnetic = 5;
x = 0;
y = 225;
},
{
angle = 90;
isGlobal = 0;
magnetic = 5;
x = 445;
y = 0;
},
{
angle = 90;
isGlobal = 0;
magnetic = 5;
x = 484;
y = 0;
},
{
angle = 90;
isGlobal = 0;
magnetic = 5;
x = 137;
y = 0;
},
{
angle = 90;
isGlobal = 0;
magnetic = 5;
x = 270;
y = 0;
}
);
};
},
{
color = 6;
glyphname = ccedilla;
layers = (
{
layerId = "25564DC9-970B-4408-86C9-55005BB51701";
paths = (
{
closed = 1;
nodes = (
"246 -220 OFFCURVE",
"280 -184 OFFCURVE",
"290 -135 CURVE SMOOTH",
"301 -86 OFFCURVE",
"273 -48 OFFCURVE",
"232 -48 CURVE SMOOTH",
"219 -48 OFFCURVE",
"203 -50 OFFCURVE",
"194 -55 CURVE",
"226 -10 LINE",
"383 -9 OFFCURVE",
"457 89 OFFCURVE",
"476 156 CURVE SMOOTH",
"480 169 OFFCURVE",
"473 179 OFFCURVE",
"460 179 CURVE",
"409 179 LINE",
"395 179 OFFCURVE",
"390 174 OFFCURVE",
"381 158 CURVE SMOOTH",
"347 92 OFFCURVE",
"292 69 OFFCURVE",
"231 69 CURVE SMOOTH",
"151 69 OFFCURVE",
"112 115 OFFCURVE",
"131 225 CURVE SMOOTH",
"135 245 OFFCURVE",
"141 273 OFFCURVE",
"146 295 CURVE SMOOTH",
"173 404 OFFCURVE",
"242 451 OFFCURVE",
"322 451 CURVE SMOOTH",
"387 451 OFFCURVE",
"426 424 OFFCURVE",
"424 358 CURVE SMOOTH",
"424 343 OFFCURVE",
"431 337 OFFCURVE",
"445 337 CURVE",
"497 337 LINE",
"510 337 OFFCURVE",
"519 347 OFFCURVE",
"521 360 CURVE SMOOTH",
"529 429 OFFCURVE",
"482 530 OFFCURVE",
"326 530 CURVE SMOOTH",
"181 530 OFFCURVE",
"88 444 OFFCURVE",
"52 300 CURVE SMOOTH",
"47 279 OFFCURVE",
"39 240 OFFCURVE",
"35 220 CURVE SMOOTH",
"12 96 OFFCURVE",
"69 16 OFFCURVE",
"170 -5 CURVE",
"140 -51 LINE",
"133 -63 OFFCURVE",
"124 -74 OFFCURVE",
"130 -82 CURVE",
"144 -101 LINE",
"155 -117 OFFCURVE",
"174 -98 OFFCURVE",
"203 -98 CURVE SMOOTH",
"226 -98 OFFCURVE",
"240 -111 OFFCURVE",
"236 -133 CURVE SMOOTH",
"231 -156 OFFCURVE",
"211 -170 OFFCURVE",
"188 -170 CURVE SMOOTH",
"144 -170 OFFCURVE",
"143 -141 OFFCURVE",
"125 -155 CURVE",
"108 -169 LINE",
"86 -185 OFFCURVE",
"131 -220 OFFCURVE",
"188 -220 CURVE SMOOTH"
);
}
);
width = 551.125;
}
);
leftKerningGroup = o;
rightKerningGroup = c;
unicode = 00E7;
},
{
color = 6;
glyphname = d;
layers = (
{
anchors = (
{
name = bottom;
position = "{243, 0}";
},
{
name = center;
position = "{515, 614}";
},
{
name = top;
position = "{402, 750}";
},
{
name = topright;
position = "{664, 710}";
}
);
layerId = "25564DC9-970B-4408-86C9-55005BB51701";
paths = (
{
closed = 1;
nodes = (
"291 -10 OFFCURVE",
"336 22 OFFCURVE",
"378 65 CURVE",
"369 23 LINE SMOOTH",
"366 10 OFFCURVE",
"374 0 OFFCURVE",
"388 0 CURVE SMOOTH",
"433 0 LINE SMOOTH",
"447 0 OFFCURVE",
"458 10 OFFCURVE",
"461 23 CURVE SMOOTH",
"602 687 LINE SMOOTH",
"605 700 OFFCURVE",
"597 710 OFFCURVE",
"583 710 CURVE SMOOTH",
"535 710 LINE SMOOTH",
"522 710 OFFCURVE",
"511 700 OFFCURVE",
"508 687 CURVE SMOOTH",
"458 457 LINE",
"435 498 OFFCURVE",
"390 530 OFFCURVE",
"308 530 CURVE SMOOTH",
"156 530 OFFCURVE",
"80 414 OFFCURVE",
"48 290 CURVE SMOOTH",
"43 268 OFFCURVE",
"39 252 OFFCURVE",
"35 230 CURVE SMOOTH",
"15 104 OFFCURVE",
"59 -10 OFFCURVE",
"207 -10 CURVE SMOOTH"
);
},
{
closed = 1;
nodes = (
"132 71 OFFCURVE",
"119 146 OFFCURVE",
"132 231 CURVE SMOOTH",
"135 251 OFFCURVE",
"138 269 OFFCURVE",
"144 289 CURVE SMOOTH",
"169 373 OFFCURVE",
"223 449 OFFCURVE",
"319 449 CURVE SMOOTH",
"415 449 OFFCURVE",
"439 373 OFFCURVE",
"426 302 CURVE SMOOTH",
"422 280 OFFCURVE",
"415 246 OFFCURVE",
"409 225 CURVE SMOOTH",
"391 151 OFFCURVE",
"327 71 OFFCURVE",
"228 71 CURVE SMOOTH"
);
}
);
width = 594.375;
}
);
leftKerningGroup = d;
rightKerningGroup = d;
unicode = 0064;
userData = {
com.typemytype.robofont.guides = (
{
angle = 0;
isGlobal = 0;
magnetic = 5;
x = 0;
y = 650;
},
{
angle = 0;
isGlobal = 0;
magnetic = 5;
x = 0;
y = 530;
},
{
angle = 90;
isGlobal = 0;
magnetic = 5;
x = 438;
y = 0;
},
{
angle = 90;
isGlobal = 0;
magnetic = 5;
x = 499;
y = 0;
}
);
};
},
{
color = 6;
glyphname = eth;
layers = (
{
hints = (
{
horizontal = 1;
place = "{0, 0}";
type = Tag;
}
);
layerId = "25564DC9-970B-4408-86C9-55005BB51701";
paths = (
{
closed = 1;
nodes = (
"379 -10 OFFCURVE",
"482 88 OFFCURVE",
"513 228 CURVE SMOOTH",
"514 233 OFFCURVE",
"515 238 OFFCURVE",
"516 243 CURVE SMOOTH",
"548 406 OFFCURVE",
"534 505 OFFCURVE",
"491 580 CURVE",
"554 602 LINE",
"572 608 OFFCURVE",
"579 613 OFFCURVE",
"582 629 CURVE",
"586 650 LINE",
"588 662 OFFCURVE",
"582 668 OFFCURVE",
"571 668 CURVE SMOOTH",
"567 668 OFFCURVE",
"563 667 OFFCURVE",
"557 665 CURVE",
"457 629 LINE",
"443 649 OFFCURVE",
"426 667 OFFCURVE",
"407 687 CURVE SMOOTH",
"399 695 OFFCURVE",
"389 700 OFFCURVE",
"371 700 CURVE",
"319 700 LINE",
"307 700 OFFCURVE",
"297 692 OFFCURVE",
"295 680 CURVE SMOOTH",
"294 675 OFFCURVE",
"295 668 OFFCURVE",
"306 658 CURVE SMOOTH",
"328 638 OFFCURVE",
"348 617 OFFCURVE",
"365 597 CURVE",
"295 572 LINE",
"278 566 OFFCURVE",
"270 561 OFFCURVE",
"267 545 CURVE",
"263 524 LINE",
"261 512 OFFCURVE",
"267 506 OFFCURVE",
"278 506 CURVE SMOOTH",
"282 506 OFFCURVE",
"286 507 OFFCURVE",
"292 509 CURVE",
"400 548 LINE",
"418 516 OFFCURVE",
"430 481 OFFCURVE",
"435 438 CURVE",
"411 459 OFFCURVE",
"376 470 OFFCURVE",
"332 470 CURVE SMOOTH",
"185 470 OFFCURVE",
"78 373 OFFCURVE",
"49 231 CURVE",
"18 89 OFFCURVE",
"80 -10 OFFCURVE",
"230 -10 CURVE SMOOTH"
);
},
{
closed = 1;
nodes = (
"156 67 OFFCURVE",
"126 135 OFFCURVE",
"143 222 CURVE SMOOTH",
"143 226 OFFCURVE",
"144 230 OFFCURVE",
"146 237 CURVE SMOOTH",
"165 324 OFFCURVE",
"224 393 OFFCURVE",
"316 393 CURVE SMOOTH",
"408 393 OFFCURVE",
"438 324 OFFCURVE",
"420 237 CURVE SMOOTH",
"418 231 OFFCURVE",
"418 228 OFFCURVE",
"417 223 CURVE SMOOTH",
"397 136 OFFCURVE",
"337 67 OFFCURVE",
"246 67 CURVE SMOOTH"
);
}
);
width = 566.5;
}
);
unicode = 00F0;
userData = {
com.typemytype.robofont.guides = (
{
angle = 0;
isGlobal = 0;
magnetic = 5;
x = 0;
y = 512;
},
{
angle = 90;
isGlobal = 0;
magnetic = 5;
x = 214;
y = 0;
},
{
angle = 90;
isGlobal = 0;
magnetic = 5;
x = 484;
y = 0;
}
);
};
},
{
color = 6;
glyphname = dcroat;
layers = (
{
layerId = "25564DC9-970B-4408-86C9-55005BB51701";
paths = (
{
closed = 1;
nodes = (
"279 -10 OFFCURVE",
"338 23 OFFCURVE",
"380 67 CURVE",
"370 23 LINE SMOOTH",
"367 10 OFFCURVE",
"376 0 OFFCURVE",
"389 0 CURVE SMOOTH",
"435 0 LINE SMOOTH",
"448 0 OFFCURVE",
"459 10 OFFCURVE",
"462 23 CURVE SMOOTH",
"578 567 LINE",
"631 567 LINE SMOOTH",
"644 567 OFFCURVE",
"656 576 OFFCURVE",
"659 590 CURVE SMOOTH",
"663 611 LINE SMOOTH",
"665 624 OFFCURVE",
"658 634 OFFCURVE",
"644 634 CURVE SMOOTH",
"592 634 LINE",
"604 687 LINE SMOOTH",
"607 700 OFFCURVE",
"598 710 OFFCURVE",
"585 710 CURVE SMOOTH",
"536 710 LINE SMOOTH",
"523 710 OFFCURVE",
"512 700 OFFCURVE",
"509 687 CURVE SMOOTH",
"497 634 LINE",
"445 634 LINE SMOOTH",
"431 634 OFFCURVE",
"420 624 OFFCURVE",
"417 611 CURVE SMOOTH",
"413 590 LINE SMOOTH",
"410 576 OFFCURVE",
"417 567 OFFCURVE",
"431 567 CURVE SMOOTH",
"483 567 LINE",
"460 457 LINE",
"436 498 OFFCURVE",
"392 530 OFFCURVE",
"314 530 CURVE SMOOTH",
"149 530 OFFCURVE",
"76 399 OFFCURVE",
"50 290 CURVE SMOOTH",
"44 268 OFFCURVE",
"40 252 OFFCURVE",
"37 230 CURVE SMOOTH",
"17 120 OFFCURVE",
"34 -10 OFFCURVE",
"199 -10 CURVE SMOOTH"
);
},
{
closed = 1;
nodes = (
"135 71 OFFCURVE",
"117 146 OFFCURVE",
"133 231 CURVE SMOOTH",
"135 251 OFFCURVE",
"139 269 OFFCURVE",
"145 289 CURVE SMOOTH",
"166 374 OFFCURVE",
"216 449 OFFCURVE",
"318 449 CURVE SMOOTH",
"414 449 OFFCURVE",
"440 373 OFFCURVE",
"427 302 CURVE SMOOTH",
"423 280 OFFCURVE",
"416 246 OFFCURVE",
"411 225 CURVE SMOOTH",
"392 151 OFFCURVE",
"337 71 OFFCURVE",
"237 71 CURVE SMOOTH"
);
}
);
width = 595.1875;
}
);
leftKerningGroup = d;
rightKerningGroup = d;
unicode = 0111;
userData = {
com.typemytype.robofont.guides = (
{
angle = 0;
isGlobal = 0;
magnetic = 5;
x = 0;
y = 600;
}
);
};
},
{
color = 6;
glyphname = e;
layers = (
{
anchors = (
{
name = bottom;
position = "{224, 0}";
},
{
name = ogonek;
position = "{431, 30}";
},
{
name = top;
position = "{342, 520}";
}
);
layerId = "25564DC9-970B-4408-86C9-55005BB51701";
paths = (
{
closed = 1;
nodes = (
"368 -10 OFFCURVE",
"465 77 OFFCURVE",
"476 117 CURVE SMOOTH",
"479 130 OFFCURVE",
"471 138 OFFCURVE",
"459 138 CURVE SMOOTH",
"411 138 LINE SMOOTH",
"395 138 OFFCURVE",
"392 137 OFFCURVE",
"376 121 CURVE SMOOTH",
"362 105 OFFCURVE",
"317 64 OFFCURVE",
"246 64 CURVE SMOOTH",
"161 64 OFFCURVE",
"129 138 OFFCURVE",
"143 220 CURVE SMOOTH",
"144 222 OFFCURVE",
"145 228 OFFCURVE",
"145 229 CURVE",
"490 229 LINE SMOOTH",
"504 229 OFFCURVE",
"516 238 OFFCURVE",
"519 252 CURVE SMOOTH",
"523 269 LINE SMOOTH",
"554 427 OFFCURVE",
"495 530 OFFCURVE",
"345 530 CURVE SMOOTH",
"208 530 OFFCURVE",
"103 436 OFFCURVE",
"64 294 CURVE SMOOTH",
"59 277 OFFCURVE",
"52 244 OFFCURVE",
"49 227 CURVE SMOOTH",
"27 81 OFFCURVE",
"93 -10 OFFCURVE",
"231 -10 CURVE SMOOTH"
);
},
{
closed = 1;
nodes = (
"161 301 LINE SMOOTH",
"183 390 OFFCURVE",
"244 457 OFFCURVE",
"330 457 CURVE SMOOTH",
"416 457 OFFCURVE",
"456 390 OFFCURVE",
"434 301 CURVE SMOOTH",
"433 298 LINE",
"160 298 LINE"
);
}
);
width = 558.4375;
}
);
leftKerningGroup = o;
rightKerningGroup = e;
unicode = 0065;
userData = {
com.typemytype.robofont.guides = (
{
angle = 0;
isGlobal = 0;
magnetic = 5;
x = 0;
y = "-10";
},
{
angle = 90;
isGlobal = 0;
magnetic = 5;
x = 275;
y = 0;
},
{
angle = 90;
isGlobal = 0;
magnetic = 5;
x = 496;
y = 0;
},
{
angle = 90;
isGlobal = 0;
magnetic = 5;
x = 61;
y = 0;
},
{
angle = 90;
isGlobal = 0;
magnetic = 5;
x = 122;
y = 0;
},
{
angle = 90;
isGlobal = 0;
magnetic = 5;
x = 430;
y = 0;
}
);
};
},
{
color = 6;
glyphname = eogonek;
layers = (
{
anchors = (
{
name = top;
position = "{336, 520}";
}
);
hints = (
{
horizontal = 1;
place = "{121.875, 0}";
type = Tag;
}
);
layerId = "25564DC9-970B-4408-86C9-55005BB51701";
paths = (
{
closed = 1;
nodes = (
"256 -220 LINE",
"269 -220 OFFCURVE",
"281 -210 OFFCURVE",
"284 -197 CURVE",
"289 -174 LINE",
"292 -160 OFFCURVE",
"285 -151 OFFCURVE",
"271 -151 CURVE",
"257 -151 LINE",
"214 -151 OFFCURVE",
"192 -121 OFFCURVE",
"202 -76 CURVE SMOOTH",
"211 -34 OFFCURVE",
"239 -14 OFFCURVE",
"281 -6 CURVE SMOOTH",
"391 14 OFFCURVE",
"467 81 OFFCURVE",
"477 117 CURVE SMOOTH",
"480 130 OFFCURVE",
"472 138 OFFCURVE",
"460 138 CURVE SMOOTH",
"411 138 LINE SMOOTH",
"396 138 OFFCURVE",
"393 137 OFFCURVE",
"377 121 CURVE SMOOTH",
"363 105 OFFCURVE",
"318 64 OFFCURVE",
"247 64 CURVE SMOOTH",
"162 64 OFFCURVE",
"130 138 OFFCURVE",
"144 220 CURVE SMOOTH",
"146 229 LINE",
"491 229 LINE SMOOTH",
"504 229 OFFCURVE",
"517 238 OFFCURVE",
"520 252 CURVE SMOOTH",
"524 269 LINE SMOOTH",
"557 427 OFFCURVE",
"496 530 OFFCURVE",
"346 530 CURVE SMOOTH",
"208 530 OFFCURVE",
"103 436 OFFCURVE",
"64 293 CURVE SMOOTH",
"60 277 OFFCURVE",
"53 244 OFFCURVE",
"50 227 CURVE SMOOTH",
"32 108 OFFCURVE",
"71 25 OFFCURVE",
"162 -1 CURVE",
"146 -21 OFFCURVE",
"135 -47 OFFCURVE",
"130 -76 CURVE SMOOTH",
"111 -163 OFFCURVE",
"149 -220 OFFCURVE",
"238 -220 CURVE"
);
},
{
closed = 1;
nodes = (
"161 301 LINE SMOOTH",
"180 391 OFFCURVE",
"244 457 OFFCURVE",
"330 457 CURVE SMOOTH",
"416 457 OFFCURVE",
"453 391 OFFCURVE",
"434 301 CURVE SMOOTH",
"433 298 LINE",
"160 298 LINE"
);
}
);
width = 561.25;
}
);
leftKerningGroup = o;
rightKerningGroup = e;
unicode = 0119;
userData = {
com.typemytype.robofont.guides = (
{
angle = 0;
isGlobal = 0;
magnetic = 5;
x = 0;
y = 259;
},
{
angle = 0;
isGlobal = 0;
magnetic = 5;
x = 0;
y = "-220";
},
{
angle = 90;
isGlobal = 0;
magnetic = 5;
x = 339;
y = 0;
}
);
};
},
{
color = 6;
glyphname = f;
layers = (
{
anchors = (
{
name = bottom;
position = "{136, 0}";
},
{
name = top;
position = "{295, 750}";
}
);
layerId = "25564DC9-970B-4408-86C9-55005BB51701";
paths = (
{
closed = 1;
nodes = (
"132 0 LINE SMOOTH",
"145 0 OFFCURVE",
"156 10 OFFCURVE",
"159 23 CURVE SMOOTH",
"248 440 LINE",
"376 440 LINE SMOOTH",
"390 440 OFFCURVE",
"401 450 OFFCURVE",
"404 463 CURVE SMOOTH",
"411 497 LINE SMOOTH",
"414 510 OFFCURVE",
"407 520 OFFCURVE",
"393 520 CURVE SMOOTH",
"265 520 LINE",
"274 565 LINE SMOOTH",
"287 626 OFFCURVE",
"318 660 OFFCURVE",
"381 660 CURVE SMOOTH",
"433 660 LINE SMOOTH",
"446 660 OFFCURVE",
"458 670 OFFCURVE",
"461 683 CURVE SMOOTH",
"468 717 LINE SMOOTH",
"471 730 OFFCURVE",
"464 740 OFFCURVE",
"450 740 CURVE SMOOTH",
"382 740 LINE SMOOTH",
"270 740 OFFCURVE",
"205 673 OFFCURVE",
"183 570 CURVE SMOOTH",
"172 520 LINE",
"87 520 LINE SMOOTH",
"73 520 OFFCURVE",
"62 510 OFFCURVE",
"59 497 CURVE SMOOTH",
"52 463 LINE SMOOTH",
"49 450 OFFCURVE",
"57 440 OFFCURVE",
"70 440 CURVE SMOOTH",
"155 440 LINE",
"66 23 LINE SMOOTH",
"63 10 OFFCURVE",
"72 0 OFFCURVE",
"85 0 CURVE SMOOTH"
);
}
);
width = 381.3125;
}
);
leftKerningGroup = f;
rightKerningGroup = f;
unicode = 0066;
userData = {
com.typemytype.robofont.guides = (
{
angle = 0;
isGlobal = 0;
magnetic = 5;
x = 0;
y = 345;
},
{
angle = 0;
isGlobal = 0;
magnetic = 5;
x = 0;
y = 9;
},
{
angle = 0;
isGlobal = 0;
magnetic = 5;
x = 0;
y = 740;
},
{
angle = 90;
isGlobal = 0;
magnetic = 5;
x = 297;
y = 0;
},
{
angle = 90;
isGlobal = 0;
magnetic = 5;
x = 371;
y = 0;
}
);
};
},
{
color = 6;
glyphname = g;
layers = (
{
anchors = (
{
name = bottom;
position = "{195, -225}";
},
{
name = top;
position = "{335, 520}";
}
);
layerId = "25564DC9-970B-4408-86C9-55005BB51701";
paths = (
{
closed = 1;
nodes = (
"368 -220 OFFCURVE",
"431 -124 OFFCURVE",
"459 11 CURVE SMOOTH",
"562 496 LINE SMOOTH",
"565 510 OFFCURVE",
"557 520 OFFCURVE",
"543 520 CURVE SMOOTH",
"498 520 LINE SMOOTH",
"484 520 OFFCURVE",
"472 510 OFFCURVE",
"469 496 CURVE SMOOTH",
"460 453 LINE",
"437 496 OFFCURVE",
"387 530 OFFCURVE",
"308 530 CURVE SMOOTH",
"155 530 OFFCURVE",
"81 414 OFFCURVE",
"48 290 CURVE SMOOTH",
"43 270 OFFCURVE",
"39 255 OFFCURVE",
"36 235 CURVE SMOOTH",
"15 109 OFFCURVE",
"55 -4 OFFCURVE",
"209 -4 CURVE SMOOTH",
"286 -4 OFFCURVE",
"335 27 OFFCURVE",
"376 68 CURVE",
"362 0 LINE SMOOTH",
"339 -111 OFFCURVE",
"265 -143 OFFCURVE",
"183 -143 CURVE SMOOTH",
"94 -143 OFFCURVE",
"80 -93 OFFCURVE",
"78 -64 CURVE SMOOTH",
"76 -47 OFFCURVE",
"69 -43 OFFCURVE",
"58 -43 CURVE SMOOTH",
"6 -43 LINE SMOOTH",
"-6 -43 OFFCURVE",
"-16 -54 OFFCURVE",
"-18 -67 CURVE SMOOTH",
"-25 -108 OFFCURVE",
"5 -220 OFFCURVE",
"180 -220 CURVE SMOOTH"
);
},
{
closed = 1;
nodes = (
"130 76 OFFCURVE",
"118 152 OFFCURVE",
"132 236 CURVE SMOOTH",
"135 254 OFFCURVE",
"139 271 OFFCURVE",
"143 289 CURVE SMOOTH",
"166 373 OFFCURVE",
"223 449 OFFCURVE",
"318 449 CURVE SMOOTH",
"417 449 OFFCURVE",
"436 370 OFFCURVE",
"424 297 CURVE SMOOTH",
"421 279 OFFCURVE",
"414 246 OFFCURVE",
"410 228 CURVE SMOOTH",
"391 156 OFFCURVE",
"327 76 OFFCURVE",
"229 76 CURVE SMOOTH"
);
}
);
width = 595.125;
}
);
leftKerningGroup = g;
rightKerningGroup = u;
unicode = 0067;
userData = {
com.typemytype.robofont.guides = (
{
angle = 0;
isGlobal = 0;
magnetic = 5;
x = 0;
y = 530;
},
{
angle = 0;
isGlobal = 0;
magnetic = 5;
x = 0;
y = "-220";
},
{
angle = 0;
isGlobal = 0;
magnetic = 5;
x = 0;
y = 288;
},
{
angle = 0;
isGlobal = 0;
magnetic = 5;
x = 0;
y = 232;
},
{
angle = 90;
isGlobal = 0;
magnetic = 5;
x = 56;
y = 0;
},
{
angle = 90;
isGlobal = 0;
magnetic = 5;
x = 270;
y = 0;
}
);
};
},
{
color = 6;
glyphname = h;
layers = (
{
anchors = (
{
name = bottom;
position = "{250, 0}";
},
{
name = center;
position = "{221, 599}";
},
{
name = top;
position = "{358, 675}";
}
);
layerId = "25564DC9-970B-4408-86C9-55005BB51701";
paths = (
{
closed = 1;
nodes = (
"86 0 LINE SMOOTH",
"99 0 OFFCURVE",
"110 10 OFFCURVE",
"113 23 CURVE SMOOTH",
"171 300 LINE SMOOTH",
"192 394 OFFCURVE",
"267 449 OFFCURVE",
"351 449 CURVE SMOOTH",
"438 449 OFFCURVE",
"462 393 OFFCURVE",
"443 300 CURVE SMOOTH",
"384 23 LINE SMOOTH",
"381 10 OFFCURVE",
"390 0 OFFCURVE",
"403 0 CURVE SMOOTH",
"454 0 LINE SMOOTH",
"467 0 OFFCURVE",
"478 10 OFFCURVE",
"481 23 CURVE SMOOTH",
"541 305 LINE SMOOTH",
"570 438 OFFCURVE",
"510 530 OFFCURVE",
"375 530 CURVE SMOOTH",
"296 530 OFFCURVE",
"246 500 OFFCURVE",
"204 454 CURVE",
"254 687 LINE SMOOTH",
"257 700 OFFCURVE",
"249 710 OFFCURVE",
"236 710 CURVE SMOOTH",
"185 710 LINE SMOOTH",
"172 710 OFFCURVE",
"161 700 OFFCURVE",
"158 687 CURVE SMOOTH",
"16 23 LINE SMOOTH",
"13 10 OFFCURVE",
"22 0 OFFCURVE",
"35 0 CURVE SMOOTH"
);
}
);
width = 608.625;
}
);
leftKerningGroup = h;
rightKerningGroup = n;
unicode = 0068;
userData = {
com.typemytype.robofont.guides = (
{
angle = 0;
isGlobal = 0;
magnetic = 5;
x = 0;
y = 9;
},
{
angle = 0;
isGlobal = 0;
magnetic = 5;
x = 0;
y = 301;
},
{
angle = 0;
isGlobal = 0;
magnetic = 5;
x = 0;
y = 414;
},
{
angle = 0;
isGlobal = 0;
magnetic = 5;
x = 0;
y = 710;
},
{
angle = 90;
isGlobal = 0;
magnetic = 5;
x = 79;
y = 0;
},
{
angle = 90;
isGlobal = 0;
magnetic = 5;
x = 291;
y = 0;
}
);
};
},
{
color = 3;
glyphname = hbar;
layers = (
{
components = (
{
alignment = -1;
name = h;
}
);
layerId = "25564DC9-970B-4408-86C9-55005BB51701";
paths = (
{
closed = 1;
nodes = (
"280 565 LINE SMOOTH",
"293 565 OFFCURVE",
"305 574 OFFCURVE",
"308 588 CURVE SMOOTH",
"312 609 LINE SMOOTH",
"315 622 OFFCURVE",
"307 632 OFFCURVE",
"294 632 CURVE SMOOTH",
"94 632 LINE SMOOTH",
"80 632 OFFCURVE",
"69 622 OFFCURVE",
"67 609 CURVE SMOOTH",
"62 588 LINE SMOOTH",
"59 574 OFFCURVE",
"67 565 OFFCURVE",
"80 565 CURVE SMOOTH"
);
}
);
width = 608.625;
}
);
leftKerningGroup = h;
rightKerningGroup = n;
rightMetricsKey = h;
unicode = 0127;
userData = {
com.typemytype.robofont.guides = (
{
angle = 90;
isGlobal = 0;
magnetic = 5;
x = 189;
y = 0;
},
{
angle = 90;
isGlobal = 0;
magnetic = 5;
x = 110;
y = 0;
}
);
};
},
{
color = 6;
glyphname = i;
layers = (
{
anchors = (
{
name = bottom;
position = "{66, 0}";
},
{
name = top;
position = "{209, 722}";
}
);
layerId = "25564DC9-970B-4408-86C9-55005BB51701";
paths = (
{
closed = 1;
nodes = (
"83 0 LINE SMOOTH",
"96 0 OFFCURVE",
"107 10 OFFCURVE",
"110 23 CURVE SMOOTH",
"210 497 LINE SMOOTH",
"213 510 OFFCURVE",
"206 520 OFFCURVE",
"193 520 CURVE SMOOTH",
"145 520 LINE SMOOTH",
"132 520 OFFCURVE",
"120 510 OFFCURVE",
"117 497 CURVE SMOOTH",
"16 23 LINE SMOOTH",
"13 10 OFFCURVE",
"22 0 OFFCURVE",
"35 0 CURVE SMOOTH"
);
},
{
closed = 1;
nodes = (
"221 617 LINE SMOOTH",
"234 617 OFFCURVE",
"246 627 OFFCURVE",
"249 640 CURVE",
"261 694 LINE",
"263 707 OFFCURVE",
"255 718 OFFCURVE",
"241 718 CURVE SMOOTH",
"179 718 LINE SMOOTH",
"166 718 OFFCURVE",
"154 707 OFFCURVE",
"152 694 CURVE",
"139 640 LINE",
"137 627 OFFCURVE",
"145 617 OFFCURVE",
"158 617 CURVE SMOOTH"
);
}
);
width = 242.5625;
}
);
leftKerningGroup = i;
rightKerningGroup = i;
unicode = 0069;
userData = {
com.typemytype.robofont.guides = (
{
angle = 0;
isGlobal = 0;
magnetic = 5;
x = 0;
y = 510;
},
{
angle = 0;
isGlobal = 0;
magnetic = 5;
x = 0;
y = 22;
},
{
angle = 0;
isGlobal = 0;
magnetic = 5;
x = 0;
y = 627;
},
{
angle = 90;
isGlobal = 0;
magnetic = 5;
x = 79;
y = 0;
},
{
angle = 90;
isGlobal = 0;
magnetic = 5;
x = 121;
y = 0;
},
{
angle = 90;
isGlobal = 0;
magnetic = 5;
x = 70;
y = 0;
},
{
angle = 90;
isGlobal = 0;
magnetic = 5;
x = 131;
y = 0;
}
);
};
},
{
color = 6;
glyphname = idotless;
layers = (
{
anchors = (
{
name = bottom;
position = "{66, 0}";
},
{
name = ogonek;
position = "{119, 70}";
},
{
name = top;
position = "{169, 520}";
}
);
layerId = "25564DC9-970B-4408-86C9-55005BB51701";
paths = (
{
closed = 1;
nodes = (
"83 0 LINE SMOOTH",
"96 0 OFFCURVE",
"107 10 OFFCURVE",
"110 23 CURVE SMOOTH",
"210 497 LINE SMOOTH",
"213 510 OFFCURVE",
"206 520 OFFCURVE",
"193 520 CURVE SMOOTH",
"145 520 LINE SMOOTH",
"132 520 OFFCURVE",
"120 510 OFFCURVE",
"117 497 CURVE SMOOTH",
"16 23 LINE SMOOTH",
"13 10 OFFCURVE",
"22 0 OFFCURVE",
"35 0 CURVE SMOOTH"
);
}
);
width = 242.5625;
}
);
leftKerningGroup = i;
rightKerningGroup = i;
unicode = 0131;
},
{
color = 6;
glyphname = iogonek;
layers = (
{
hints = (
{
horizontal = 1;
place = "{0, 0}";
type = Tag;
},
{
horizontal = 1;
place = "{0, 0}";
type = Tag;
}
);
layerId = "25564DC9-970B-4408-86C9-55005BB51701";
paths = (
{
closed = 1;
nodes = (
"75 -215 LINE",
"88 -215 OFFCURVE",
"100 -205 OFFCURVE",
"103 -192 CURVE",
"108 -170 LINE",
"111 -157 OFFCURVE",
"103 -147 OFFCURVE",
"90 -147 CURVE",
"76 -147 LINE",
"33 -147 OFFCURVE",
"10 -119 OFFCURVE",
"20 -74 CURVE SMOOTH",
"30 -29 OFFCURVE",
"64 0 OFFCURVE",
"107 0 CURVE",
"113 0 LINE",
"126 0 OFFCURVE",
"138 10 OFFCURVE",
"141 23 CURVE",
"241 497 LINE",
"244 510 OFFCURVE",
"237 520 OFFCURVE",
"224 520 CURVE",
"176 520 LINE",
"163 520 OFFCURVE",
"151 510 OFFCURVE",
"148 497 CURVE",
"55 57 LINE",
"53 53 OFFCURVE",
"55 49 OFFCURVE",
"58 47 CURVE",
"58 44 LINE",
"4 32 OFFCURVE",
"-37 -11 OFFCURVE",
"-50 -74 CURVE SMOOTH",
"-68 -159 OFFCURVE",
"-30 -215 OFFCURVE",
"57 -215 CURVE"
);
},
{
closed = 1;
nodes = (
"251 617 LINE",
"264 617 OFFCURVE",
"277 627 OFFCURVE",
"280 640 CURVE",
"291 694 LINE",
"294 707 OFFCURVE",
"286 718 OFFCURVE",
"273 718 CURVE",
"210 718 LINE",
"197 718 OFFCURVE",
"185 707 OFFCURVE",
"182 694 CURVE",
"170 640 LINE",
"167 627 OFFCURVE",
"175 617 OFFCURVE",
"188 617 CURVE"
);
}
);
width = 258.8125;
}
);
leftKerningGroup = i;
rightKerningGroup = i;
unicode = 012F;
userData = {
com.typemytype.robofont.guides = (
{
angle = 0;
isGlobal = 0;
magnetic = 5;
x = 0;
y = 22;
},
{
angle = 90;
isGlobal = 0;
magnetic = 5;
x = 131;
y = 0;
}
);
};
},
{
color = 6;
glyphname = j;
layers = (
{
anchors = (
{
name = top;
position = "{220, 722}";
}
);
layerId = "25564DC9-970B-4408-86C9-55005BB51701";
paths = (
{
closed = 1;
nodes = (
"-88 -190 LINE SMOOTH",
"39 -190 OFFCURVE",
"92 -117 OFFCURVE",
"114 -12 CURVE SMOOTH",
"222 497 LINE SMOOTH",
"225 510 OFFCURVE",
"217 520 OFFCURVE",
"204 520 CURVE SMOOTH",
"155 520 LINE SMOOTH",
"141 520 OFFCURVE",
"130 510 OFFCURVE",
"127 497 CURVE SMOOTH",
"19 -11 LINE SMOOTH",
"7 -67 OFFCURVE",
"-20 -110 OFFCURVE",
"-79 -110 CURVE SMOOTH",
"-97 -110 LINE SMOOTH",
"-110 -110 OFFCURVE",
"-121 -120 OFFCURVE",
"-124 -133 CURVE SMOOTH",
"-131 -167 LINE SMOOTH",
"-134 -180 OFFCURVE",
"-127 -190 OFFCURVE",
"-113 -190 CURVE SMOOTH"
);
},
{
closed = 1;
nodes = (
"232 617 LINE SMOOTH",
"245 617 OFFCURVE",
"258 627 OFFCURVE",
"260 640 CURVE",
"272 694 LINE",
"274 707 OFFCURVE",
"266 718 OFFCURVE",
"253 718 CURVE SMOOTH",
"188 718 LINE SMOOTH",
"175 718 OFFCURVE",
"163 707 OFFCURVE",
"161 694 CURVE",
"149 640 LINE",
"147 627 OFFCURVE",
"154 617 OFFCURVE",
"168 617 CURVE SMOOTH"
);
}
);
width = 254.8125;
}
);
rightKerningGroup = i;
unicode = 006A;
userData = {
com.typemytype.robofont.guides = (
{
angle = 0;
isGlobal = 0;
magnetic = 5;
x = 0;
y = 740;
},
{
angle = 0;
isGlobal = 0;
magnetic = 5;
x = 0;
y = "-190";
},
{
angle = 90;
isGlobal = 0;
magnetic = 5;
x = "-46";
y = 0;
}
);
};
},
{
color = 6;
glyphname = jdotless;
layers = (
{
anchors = (
{
name = bottom;
position = "{50, -225}";
},
{
name = top;
position = "{173, 520}";
}
);
layerId = "25564DC9-970B-4408-86C9-55005BB51701";
paths = (
{
closed = 1;
nodes = (
"-44 -190 LINE SMOOTH",
"82 -190 OFFCURVE",
"143 -112 OFFCURVE",
"166 -5 CURVE SMOOTH",
"272 497 LINE SMOOTH",
"275 510 OFFCURVE",
"268 520 OFFCURVE",
"255 520 CURVE SMOOTH",
"88 520 LINE SMOOTH",
"74 520 OFFCURVE",
"63 510 OFFCURVE",
"60 497 CURVE SMOOTH",
"52 462 LINE SMOOTH",
"49 448 OFFCURVE",
"57 439 OFFCURVE",
"71 439 CURVE SMOOTH",
"165 439 LINE",
"71 -5 LINE SMOOTH",
"59 -60 OFFCURVE",
"40 -103 OFFCURVE",
"-32 -103 CURVE SMOOTH",
"-54 -103 LINE SMOOTH",
"-67 -103 OFFCURVE",
"-77 -113 OFFCURVE",
"-80 -126 CURVE SMOOTH",
"-89 -167 LINE SMOOTH",
"-92 -180 OFFCURVE",
"-84 -190 OFFCURVE",
"-72 -190 CURVE SMOOTH"
);
}
);
width = 305.5;
}
);
leftKerningGroup = dotlessj;
rightKerningGroup = i;
unicode = 0237;
userData = {
com.typemytype.robofont.guides = (
{
angle = 0;
isGlobal = 0;
magnetic = 5;
x = 0;
y = "-190";
},
{
angle = 90;
isGlobal = 0;
magnetic = 5;
x = 45;
y = 0;
}
);
};
},
{
color = 6;
glyphname = k;
layers = (
{
anchors = (
{
name = bottom;
position = "{203, 0}";
},
{
name = top;
position = "{362, 750}";
}
);
layerId = "25564DC9-970B-4408-86C9-55005BB51701";
paths = (
{
closed = 1;
nodes = (
"82 0 LINE",
"95 0 OFFCURVE",
"106 10 OFFCURVE",
"109 23 CURVE",
"156 240 LINE",
"342 15 LINE",
"348 9 OFFCURVE",
"355 0 OFFCURVE",
"375 0 CURVE SMOOTH",
"425 0 LINE",
"443 0 OFFCURVE",
"454 20 OFFCURVE",
"441 35 CURVE SMOOTH",
"236 284 LINE",
"508 480 LINE SMOOTH",
"532 496 OFFCURVE",
"527 520 OFFCURVE",
"507 520 CURVE SMOOTH",
"446 520 LINE",
"426 520 OFFCURVE",
"421 515 OFFCURVE",
"402 503 CURVE",
"178 344 LINE",
"251 687 LINE",
"254 700 OFFCURVE",
"245 710 OFFCURVE",
"232 710 CURVE",
"185 710 LINE",
"172 710 OFFCURVE",
"161 700 OFFCURVE",
"158 687 CURVE",
"16 23 LINE",
"13 10 OFFCURVE",
"22 0 OFFCURVE",
"35 0 CURVE"
);
}
);
width = 515.9375;
}
);
leftKerningGroup = h;
rightKerningGroup = k;
unicode = 006B;
userData = {
com.typemytype.robofont.guides = (
{
angle = 0;
isGlobal = 0;
magnetic = 5;
x = 0;
y = 520;
},
{
angle = 0;
isGlobal = 0;
magnetic = 5;
x = 0;
y = 710;
},
{
angle = 0;
isGlobal = 0;
magnetic = 5;
x = 0;
y = 260;
},
{
angle = 90;
isGlobal = 0;
magnetic = 5;
x = 460;
y = 0;
},
{
angle = 90;
isGlobal = 0;
magnetic = 5;
x = 430;
y = 0;
}
);
};
},
{
color = 6;
glyphname = kgreenlandic;
layers = (
{
anchors = (
{
name = bottom;
position = "{204, 0}";
},
{
name = top;
position = "{314, 520}";
}
);
hints = (
{
horizontal = 1;
place = "{0, 0}";
type = Tag;
}
);
layerId = "25564DC9-970B-4408-86C9-55005BB51701";
paths = (
{
closed = 1;
nodes = (
"95 0 LINE SMOOTH",
"108 0 OFFCURVE",
"120 10 OFFCURVE",
"123 23 CURVE SMOOTH",
"162 207 LINE",
"343 17 LINE",
"355 6 OFFCURVE",
"359 0 OFFCURVE",
"379 0 CURVE SMOOTH",
"433 0 LINE SMOOTH",
"445 0 OFFCURVE",
"456 9 OFFCURVE",
"458 21 CURVE SMOOTH",
"460 26 OFFCURVE",
"457 33 OFFCURVE",
"451 39 CURVE SMOOTH",
"242 261 LINE",
"524 480 LINE",
"534 486 OFFCURVE",
"538 494 OFFCURVE",
"539 499 CURVE SMOOTH",
"542 511 OFFCURVE",
"536 520 OFFCURVE",
"523 520 CURVE SMOOTH",
"474 520 LINE SMOOTH",
"455 520 OFFCURVE",
"449 515 OFFCURVE",
"431 503 CURVE",
"185 312 LINE",
"224 497 LINE SMOOTH",
"227 510 OFFCURVE",
"219 520 OFFCURVE",
"206 520 CURVE SMOOTH",
"159 520 LINE SMOOTH",
"146 520 OFFCURVE",
"134 510 OFFCURVE",
"131 497 CURVE SMOOTH",
"30 23 LINE SMOOTH",
"27 10 OFFCURVE",
"35 0 OFFCURVE",
"48 0 CURVE SMOOTH"
);
}
);
width = 517.0625;
}
);
leftKerningGroup = n;
rightKerningGroup = k;
unicode = 0138;
userData = {
com.typemytype.robofont.guides = (
{
angle = 0;
isGlobal = 0;
magnetic = 5;
x = 0;
y = 520;
},
{
angle = 0;
isGlobal = 0;
magnetic = 5;
x = 0;
y = 260;
}
);
};
},
{
color = 6;
glyphname = l;
layers = (
{
anchors = (
{
name = bottom;
position = "{60, 0}";
},
{
name = center;
position = "{146, 375}";
},
{
name = top;
position = "{214, 675}";
},
{
name = topright;
position = "{313, 710}";
}
);
layerId = "25564DC9-970B-4408-86C9-55005BB51701";
paths = (
{
closed = 1;
nodes = (
"83 0 LINE SMOOTH",
"96 0 OFFCURVE",
"107 10 OFFCURVE",
"110 23 CURVE SMOOTH",
"251 687 LINE SMOOTH",
"254 700 OFFCURVE",
"246 710 OFFCURVE",
"233 710 CURVE SMOOTH",
"185 710 LINE SMOOTH",
"172 710 OFFCURVE",
"161 700 OFFCURVE",
"158 687 CURVE SMOOTH",
"16 23 LINE SMOOTH",
"13 10 OFFCURVE",
"22 0 OFFCURVE",
"35 0 CURVE SMOOTH"
);
}
);
width = 243.5625;
}
);
leftKerningGroup = l;
rightKerningGroup = l;
unicode = 006C;
userData = {
com.typemytype.robofont.guides = (
{
angle = 0;
isGlobal = 0;
magnetic = 5;
x = 0;
y = 9;
},
{
angle = 0;
isGlobal = 0;
magnetic = 5;
x = 0;
y = 710;
}
);
};
},
{
color = 6;
glyphname = lslash;
layers = (
{
hints = (
{
horizontal = 1;
place = "{0, 0}";
type = Tag;
}
);
layerId = "25564DC9-970B-4408-86C9-55005BB51701";
paths = (
{
closed = 1;
nodes = (
"113 0 LINE SMOOTH",
"127 0 OFFCURVE",
"139 10 OFFCURVE",
"142 23 CURVE SMOOTH",
"208 337 LINE",
"258 355 LINE SMOOTH",
"275 361 OFFCURVE",
"283 366 OFFCURVE",
"286 382 CURVE SMOOTH",
"293 417 LINE SMOOTH",
"296 429 OFFCURVE",
"289 436 OFFCURVE",
"278 436 CURVE SMOOTH",
"275 436 OFFCURVE",
"270 435 OFFCURVE",
"265 433 CURVE SMOOTH",
"226 419 LINE",
"282 687 LINE SMOOTH",
"285 700 OFFCURVE",
"278 710 OFFCURVE",
"264 710 CURVE SMOOTH",
"217 710 LINE SMOOTH",
"204 710 OFFCURVE",
"192 700 OFFCURVE",
"189 687 CURVE SMOOTH",
"125 383 LINE",
"75 366 LINE SMOOTH",
"58 360 OFFCURVE",
"50 355 OFFCURVE",
"47 339 CURVE SMOOTH",
"40 303 LINE SMOOTH",
"37 291 OFFCURVE",
"44 285 OFFCURVE",
"55 285 CURVE SMOOTH",
"59 285 OFFCURVE",
"63 286 OFFCURVE",
"69 288 CURVE SMOOTH",
"108 301 LINE",
"48 23 LINE SMOOTH",
"45 10 OFFCURVE",
"53 0 OFFCURVE",
"66 0 CURVE SMOOTH"
);
}
);
width = 275.6875;
}
);
leftKerningGroup = l;
rightKerningGroup = l;
unicode = 0142;
userData = {
com.typemytype.robofont.guides = (
{
angle = 0;
isGlobal = 0;
magnetic = 5;
x = 0;
y = 355;
},
{
angle = 90;
isGlobal = 0;
magnetic = 5;
x = 231;
y = 0;
},
{
angle = 90;
isGlobal = 0;
magnetic = 5;
x = 100;
y = 0;
},
{
angle = 90;
isGlobal = 0;
magnetic = 5;
x = 30;
y = 0;
}
);
};
},
{
color = 6;
glyphname = m;
layers = (
{
anchors = (
{
name = bottom;
position = "{390, 0}";
},
{
name = top;
position = "{500, 520}";
}
);
layerId = "25564DC9-970B-4408-86C9-55005BB51701";
paths = (
{
closed = 1;
nodes = (
"83 0 LINE SMOOTH",
"96 0 OFFCURVE",
"107 10 OFFCURVE",
"110 23 CURVE SMOOTH",
"170 304 LINE SMOOTH",
"194 415 OFFCURVE",
"270 449 OFFCURVE",
"325 449 CURVE SMOOTH",
"384 449 OFFCURVE",
"427 415 OFFCURVE",
"403 303 CURVE SMOOTH",
"343 23 LINE SMOOTH",
"340 10 OFFCURVE",
"349 0 OFFCURVE",
"362 0 CURVE SMOOTH",
"409 0 LINE SMOOTH",
"422 0 OFFCURVE",
"433 10 OFFCURVE",
"436 23 CURVE SMOOTH",
"496 303 LINE SMOOTH",
"520 415 OFFCURVE",
"596 449 OFFCURVE",
"651 449 CURVE SMOOTH",
"714 449 OFFCURVE",
"753 415 OFFCURVE",
"729 303 CURVE SMOOTH",
"670 23 LINE SMOOTH",
"667 10 OFFCURVE",
"675 0 OFFCURVE",
"688 0 CURVE SMOOTH",
"735 0 LINE SMOOTH",
"748 0 OFFCURVE",
"759 10 OFFCURVE",
"762 23 CURVE SMOOTH",
"824 312 LINE SMOOTH",
"854 458 OFFCURVE",
"781 530 OFFCURVE",
"674 530 CURVE SMOOTH",
"598 530 OFFCURVE",
"540 493 OFFCURVE",
"497 438 CURVE",
"479 497 OFFCURVE",
"425 530 OFFCURVE",
"349 530 CURVE SMOOTH",
"280 530 OFFCURVE",
"240 503 OFFCURVE",
"201 462 CURVE",
"208 497 LINE SMOOTH",
"211 510 OFFCURVE",
"203 520 OFFCURVE",
"190 520 CURVE SMOOTH",
"145 520 LINE SMOOTH",
"132 520 OFFCURVE",
"120 510 OFFCURVE",
"117 497 CURVE SMOOTH",
"16 23 LINE SMOOTH",
"13 10 OFFCURVE",
"22 0 OFFCURVE",
"35 0 CURVE SMOOTH"
);
}
);
width = 890.0625;
}
);
leftKerningGroup = n;
rightKerningGroup = n;
unicode = 006D;
},
{
color = 6;
glyphname = n;
layers = (
{
anchors = (
{
name = bottom;
position = "{245, 0}";
},
{
name = top;
position = "{351, 520}";
}
);
layerId = "25564DC9-970B-4408-86C9-55005BB51701";
paths = (
{
closed = 1;
nodes = (
"85 0 LINE SMOOTH",
"98 0 OFFCURVE",
"109 10 OFFCURVE",
"112 23 CURVE SMOOTH",
"170 300 LINE SMOOTH",
"191 394 OFFCURVE",
"260 449 OFFCURVE",
"351 449 CURVE SMOOTH",
"446 449 OFFCURVE",
"462 399 OFFCURVE",
"441 300 CURVE SMOOTH",
"382 23 LINE SMOOTH",
"379 10 OFFCURVE",
"388 0 OFFCURVE",
"401 0 CURVE SMOOTH",
"451 0 LINE SMOOTH",
"464 0 OFFCURVE",
"475 10 OFFCURVE",
"478 23 CURVE SMOOTH",
"539 305 LINE SMOOTH",
"567 438 OFFCURVE",
"520 530 OFFCURVE",
"375 530 CURVE SMOOTH",
"300 530 OFFCURVE",
"241 497 OFFCURVE",
"200 453 CURVE",
"210 497 LINE SMOOTH",
"213 510 OFFCURVE",
"205 520 OFFCURVE",
"192 520 CURVE SMOOTH",
"145 520 LINE SMOOTH",
"132 520 OFFCURVE",
"120 510 OFFCURVE",
"117 497 CURVE SMOOTH",
"16 23 LINE SMOOTH",
"13 10 OFFCURVE",
"22 0 OFFCURVE",
"35 0 CURVE SMOOTH"
);
}
);
width = 605.75;
}
);
leftKerningGroup = n;
rightKerningGroup = n;
unicode = 006E;
userData = {
com.typemytype.robofont.guides = (
{
angle = 0;
isGlobal = 0;
magnetic = 5;
x = 0;
y = 530;
},
{
angle = 0;
isGlobal = 0;
magnetic = 5;
x = 0;
y = 301;
},
{
angle = 0;
isGlobal = 0;
magnetic = 5;
x = 0;
y = 650;
},
{
angle = 0;
isGlobal = 0;
magnetic = 5;
x = 0;
y = 407;
},
{
angle = 0;
isGlobal = 0;
magnetic = 5;
x = 0;
y = 451;
},
{
angle = 90;
isGlobal = 0;
magnetic = 5;
x = 291;
y = 0;
},
{
angle = 90;
isGlobal = 0;
magnetic = 5;
x = 131;
y = 0;
}
);
};
},
{
color = 3;
glyphname = napostrophe;
layers = (
{
components = (
{
alignment = -1;
name = n;
}
);
layerId = "25564DC9-970B-4408-86C9-55005BB51701";
paths = (
{
closed = 1;
nodes = (
"64 566 LINE SMOOTH",
"82 566 OFFCURVE",
"89 576 OFFCURVE",
"98 589 CURVE",
"164 701 LINE SMOOTH",
"168 707 OFFCURVE",
"170 712 OFFCURVE",
"171 717 CURVE SMOOTH",
"173 725 OFFCURVE",
"169 734 OFFCURVE",
"159 734 CURVE SMOOTH",
"96 734 LINE SMOOTH",
"78 734 OFFCURVE",
"68 721 OFFCURVE",
"62 705 CURVE SMOOTH",
"19 587 LINE SMOOTH",
"15 575 OFFCURVE",
"19 566 OFFCURVE",
"30 566 CURVE SMOOTH"
);
}
);
width = 605.75;
}
);
leftKerningGroup = n;
rightKerningGroup = n;
rightMetricsKey = n;
unicode = 0149;
userData = {
com.typemytype.robofont.guides = (
{
angle = 0;
isGlobal = 0;
magnetic = 5;
x = 0;
y = 575;
},
{
angle = 90;
isGlobal = 0;
magnetic = 5;
x = 286;
y = 0;
}
);
};
},
{
color = 6;
glyphname = eng;
layers = (
{
layerId = "25564DC9-970B-4408-86C9-55005BB51701";
paths = (
{
closed = 1;
nodes = (
"245 -225 LINE",
"392 -225 OFFCURVE",
"441 -149 OFFCURVE",
"465 -37 CURVE",
"539 305 LINE",
"567 438 OFFCURVE",
"520 530 OFFCURVE",
"375 530 CURVE SMOOTH",
"300 530 OFFCURVE",
"241 497 OFFCURVE",
"200 453 CURVE",
"210 497 LINE",
"213 510 OFFCURVE",
"205 520 OFFCURVE",
"192 520 CURVE",
"145 520 LINE",
"132 520 OFFCURVE",
"120 510 OFFCURVE",
"117 497 CURVE",
"16 23 LINE SMOOTH",
"13 10 OFFCURVE",
"22 0 OFFCURVE",
"35 0 CURVE SMOOTH",
"85 0 LINE",
"98 0 OFFCURVE",
"109 10 OFFCURVE",
"112 23 CURVE",
"170 300 LINE",
"191 394 OFFCURVE",
"260 449 OFFCURVE",
"351 449 CURVE SMOOTH",
"446 449 OFFCURVE",
"462 399 OFFCURVE",
"441 300 CURVE",
"370 -35 LINE",
"357 -96 OFFCURVE",
"334 -140 OFFCURVE",
"262 -140 CURVE",
"252 -140 LINE",
"238 -140 OFFCURVE",
"227 -149 OFFCURVE",
"224 -163 CURVE",
"215 -202 LINE",
"212 -215 OFFCURVE",
"221 -225 OFFCURVE",
"234 -225 CURVE"
);
}
);
width = 605.75;
}
);
leftKerningGroup = n;
rightKerningGroup = n;
unicode = 014B;
userData = {
com.typemytype.robofont.guides = (
{
angle = 0;
isGlobal = 0;
magnetic = 5;
x = 0;
y = "-300";
},
{
angle = 90;
isGlobal = 0;
magnetic = 5;
x = 225;
y = 0;
}
);
};
},
{
color = 6;
glyphname = o;
layers = (
{
anchors = (
{
name = bottom;
position = "{231, 0}";
},
{
name = center;
position = "{286, 260}";
},
{
name = ogonek;
position = "{461, 10}";
},
{
name = top;
position = "{334, 520}";
},
{
name = topright;
position = "{607, 520}";
}
);
layerId = "25564DC9-970B-4408-86C9-55005BB51701";
paths = (
{
closed = 1;
nodes = (
"381 -10 OFFCURVE",
"470 85 OFFCURVE",
"504 217 CURVE SMOOTH",
"509 239 OFFCURVE",
"518 281 OFFCURVE",
"522 303 CURVE SMOOTH",
"545 435 OFFCURVE",
"475 530 OFFCURVE",
"328 530 CURVE SMOOTH",
"176 530 OFFCURVE",
"85 435 OFFCURVE",
"53 303 CURVE",
"46 281 OFFCURVE",
"37 239 OFFCURVE",
"34 217 CURVE",
"11 85 OFFCURVE",
"81 -10 OFFCURVE",
"227 -10 CURVE SMOOTH"
);
},
{
closed = 1;
nodes = (
"146 67 OFFCURVE",
"113 121 OFFCURVE",
"131 222 CURVE SMOOTH",
"134 242 OFFCURVE",
"141 278 OFFCURVE",
"147 298 CURVE",
"172 399 OFFCURVE",
"240 453 OFFCURVE",
"324 453 CURVE SMOOTH",
"408 453 OFFCURVE",
"443 399 OFFCURVE",
"426 298 CURVE SMOOTH",
"422 278 OFFCURVE",
"414 242 OFFCURVE",
"409 222 CURVE SMOOTH",
"384 121 OFFCURVE",
"315 67 OFFCURVE",
"231 67 CURVE SMOOTH"
);
}
);
width = 571.9375;
}
);
leftKerningGroup = o;
rightKerningGroup = o;
unicode = 006F;
userData = {
com.typemytype.robofont.guides = (
{
angle = 0;
isGlobal = 0;
magnetic = 5;
x = 0;
y = 302;
},
{
angle = 0;
isGlobal = 0;
magnetic = 5;
x = 0;
y = 218;
},
{
angle = 0;
isGlobal = 0;
magnetic = 5;
x = 0;
y = 411;
},
{
angle = 0;
isGlobal = 0;
magnetic = 5;
x = 0;
y = 109;
},
{
angle = 90;
isGlobal = 0;
magnetic = 5;
x = 278;
y = 0;
},
{
angle = 90;
isGlobal = 0;
magnetic = 5;
x = 56;
y = 0;
},
{
angle = 90;
isGlobal = 0;
magnetic = 5;
x = 500;
y = 0;
}
);
};
},
{
color = 6;
glyphname = oe;
layers = (
{
anchors = (
{
name = bottom;
position = "{414, 0}";
},
{
name = top;
position = "{524, 520}";
}
);
hints = (
{
horizontal = 1;
place = "{0, 0}";
type = Tag;
},
{
horizontal = 1;
place = "{0, 0}";
type = Tag;
},
{
horizontal = 1;
place = "{0, 0}";
type = Tag;
},
{
horizontal = 1;
place = "{0, 0}";
type = Tag;
}
);
layerId = "25564DC9-970B-4408-86C9-55005BB51701";
paths = (
{
closed = 1;
nodes = (
"328 -10 OFFCURVE",
"398 27 OFFCURVE",
"447 86 CURVE",
"472 26 OFFCURVE",
"527 -10 OFFCURVE",
"610 -10 CURVE SMOOTH",
"743 -10 OFFCURVE",
"840 77 OFFCURVE",
"851 117 CURVE SMOOTH",
"854 130 OFFCURVE",
"846 138 OFFCURVE",
"834 138 CURVE SMOOTH",
"786 138 LINE SMOOTH",
"770 138 OFFCURVE",
"767 137 OFFCURVE",
"751 121 CURVE SMOOTH",
"737 105 OFFCURVE",
"692 64 OFFCURVE",
"625 64 CURVE SMOOTH",
"540 64 OFFCURVE",
"508 138 OFFCURVE",
"522 220 CURVE SMOOTH",
"524 229 LINE",
"869 229 LINE SMOOTH",
"883 229 OFFCURVE",
"895 238 OFFCURVE",
"898 252 CURVE SMOOTH",
"902 269 LINE SMOOTH",
"935 427 OFFCURVE",
"874 530 OFFCURVE",
"724 530 CURVE SMOOTH",
"641 530 OFFCURVE",
"571 493 OFFCURVE",
"521 432 CURVE",
"498 492 OFFCURVE",
"442 530 OFFCURVE",
"352 530 CURVE SMOOTH",
"202 530 OFFCURVE",
"102 435 OFFCURVE",
"68 303 CURVE SMOOTH",
"63 281 OFFCURVE",
"54 239 OFFCURVE",
"51 217 CURVE SMOOTH",
"27 85 OFFCURVE",
"85 -10 OFFCURVE",
"237 -10 CURVE SMOOTH"
);
},
{
closed = 1;
nodes = (
"170 67 OFFCURVE",
"129 121 OFFCURVE",
"147 222 CURVE SMOOTH",
"150 242 OFFCURVE",
"158 278 OFFCURVE",
"163 298 CURVE SMOOTH",
"189 399 OFFCURVE",
"253 453 OFFCURVE",
"336 453 CURVE SMOOTH",
"418 453 OFFCURVE",
"460 399 OFFCURVE",
"441 298 CURVE SMOOTH",
"438 278 OFFCURVE",
"431 242 OFFCURVE",
"426 222 CURVE SMOOTH",
"400 121 OFFCURVE",
"336 67 OFFCURVE",
"253 67 CURVE SMOOTH"
);
},
{
closed = 1;
nodes = (
"540 301 LINE SMOOTH",
"559 391 OFFCURVE",
"623 457 OFFCURVE",
"709 457 CURVE SMOOTH",
"795 457 OFFCURVE",
"832 391 OFFCURVE",
"813 301 CURVE SMOOTH",
"812 298 LINE",
"539 298 LINE"
);
}
);
width = 937;
}
);
leftKerningGroup = o;
rightKerningGroup = e;
unicode = 0153;
userData = {
com.typemytype.robofont.guides = (
{
angle = 90;
isGlobal = 0;
magnetic = 5;
x = 51;
y = 0;
},
{
angle = 90;
isGlobal = 0;
magnetic = 5;
x = 495;
y = 0;
}
);
};
},
{
color = 6;
glyphname = p;
layers = (
{
anchors = (
{
name = bottom;
position = "{243, 0}";
},
{
name = top;
position = "{353, 520}";
}
);
layerId = "25564DC9-970B-4408-86C9-55005BB51701";
paths = (
{
closed = 1;
nodes = (
"44 -190 LINE SMOOTH",
"57 -190 OFFCURVE",
"68 -180 OFFCURVE",
"71 -167 CURVE SMOOTH",
"121 65 LINE",
"143 22 OFFCURVE",
"188 -10 OFFCURVE",
"270 -10 CURVE",
"423 -10 OFFCURVE",
"498 106 OFFCURVE",
"530 230 CURVE SMOOTH",
"536 252 OFFCURVE",
"540 268 OFFCURVE",
"543 290 CURVE SMOOTH",
"563 416 OFFCURVE",
"519 530 OFFCURVE",
"372 530 CURVE SMOOTH",
"287 530 OFFCURVE",
"241 497 OFFCURVE",
"200 453 CURVE",
"209 497 LINE SMOOTH",
"212 510 OFFCURVE",
"204 520 OFFCURVE",
"191 520 CURVE SMOOTH",
"145 520 LINE SMOOTH",
"132 520 OFFCURVE",
"121 510 OFFCURVE",
"118 497 CURVE SMOOTH",
"-24 -167 LINE SMOOTH",
"-27 -180 OFFCURVE",
"-18 -190 OFFCURVE",
"-5 -190 CURVE SMOOTH"
);
},
{
closed = 1;
nodes = (
"163 71 OFFCURVE",
"140 147 OFFCURVE",
"153 218 CURVE SMOOTH",
"157 240 OFFCURVE",
"164 274 OFFCURVE",
"169 295 CURVE SMOOTH",
"187 369 OFFCURVE",
"251 449 OFFCURVE",
"351 449 CURVE SMOOTH",
"446 449 OFFCURVE",
"459 374 OFFCURVE",
"447 289 CURVE SMOOTH",
"444 269 OFFCURVE",
"440 251 OFFCURVE",
"434 231 CURVE SMOOTH",
"409 147 OFFCURVE",
"355 71 OFFCURVE",
"260 71 CURVE SMOOTH"
);
}
);
width = 594.375;
}
);
leftKerningGroup = n;
rightKerningGroup = b;
unicode = 0070;
userData = {
com.typemytype.robofont.guides = (
{
angle = 0;
isGlobal = 0;
magnetic = 5;
x = 0;
y = 530;
},
{
angle = 0;
isGlobal = 0;
magnetic = 5;
x = 0;
y = "-10";
},
{
angle = 0;
isGlobal = 0;
magnetic = 5;
x = 0;
y = 422;
},
{
angle = 0;
isGlobal = 0;
magnetic = 5;
x = 0;
y = "-190";
},
{
angle = 90;
isGlobal = 0;
magnetic = 5;
x = 419;
y = 0;
},
{
angle = 90;
isGlobal = 0;
magnetic = 5;
x = "-609";
y = 0;
},
{
angle = 90;
isGlobal = 0;
magnetic = 5;
x = 79;
y = 0;
},
{
angle = 90;
isGlobal = 0;
magnetic = 5;
x = 122;
y = 0;
},
{
angle = 90;
isGlobal = 0;
magnetic = 5;
x = 291;
y = 0;
}
);
};
},
{
color = 6;
glyphname = thorn;
layers = (
{
anchors = (
{
name = bottom;
position = "{243, 0}";
},
{
name = top;
position = "{353, 520}";
}
);
layerId = "25564DC9-970B-4408-86C9-55005BB51701";
paths = (
{
closed = 1;
nodes = (
"44 -190 LINE",
"57 -190 OFFCURVE",
"68 -180 OFFCURVE",
"71 -167 CURVE SMOOTH",
"121 65 LINE",
"143 22 OFFCURVE",
"188 -10 OFFCURVE",
"270 -10 CURVE SMOOTH",
"423 -10 OFFCURVE",
"498 106 OFFCURVE",
"530 230 CURVE SMOOTH",
"536 252 OFFCURVE",
"540 268 OFFCURVE",
"543 290 CURVE SMOOTH",
"563 416 OFFCURVE",
"519 530 OFFCURVE",
"372 530 CURVE SMOOTH",
"287 530 OFFCURVE",
"240 496 OFFCURVE",
"203 455 CURVE",
"253 687 LINE",
"256 701 OFFCURVE",
"248 710 OFFCURVE",
"235 710 CURVE",
"186 710 LINE",
"173 710 OFFCURVE",
"162 700 OFFCURVE",
"159 687 CURVE",
"-24 -167 LINE",
"-27 -180 OFFCURVE",
"-18 -190 OFFCURVE",
"-5 -190 CURVE"
);
},
{
closed = 1;
nodes = (
"163 71 OFFCURVE",
"140 147 OFFCURVE",
"153 218 CURVE SMOOTH",
"157 240 OFFCURVE",
"164 274 OFFCURVE",
"169 295 CURVE SMOOTH",
"187 369 OFFCURVE",
"251 449 OFFCURVE",
"351 449 CURVE SMOOTH",
"446 449 OFFCURVE",
"459 374 OFFCURVE",
"447 289 CURVE SMOOTH",
"444 269 OFFCURVE",
"440 251 OFFCURVE",
"434 231 CURVE SMOOTH",
"409 147 OFFCURVE",
"355 71 OFFCURVE",
"260 71 CURVE SMOOTH"
);
}
);
width = 594.375;
}
);
leftKerningGroup = h;
rightKerningGroup = b;
unicode = 00FE;
userData = {
com.typemytype.robofont.guides = (
{
angle = 0;
isGlobal = 0;
magnetic = 5;
x = 0;
y = 710;
}
);
};
},
{
color = 6;
glyphname = q;
layers = (
{
anchors = (
{
name = bottom;
position = "{243, 0}";
},
{
name = top;
position = "{353, 520}";
}
);
layerId = "25564DC9-970B-4408-86C9-55005BB51701";
paths = (
{
closed = 1;
nodes = (
"393 -190 LINE SMOOTH",
"407 -190 OFFCURVE",
"419 -180 OFFCURVE",
"422 -167 CURVE SMOOTH",
"562 497 LINE SMOOTH",
"565 510 OFFCURVE",
"558 520 OFFCURVE",
"544 520 CURVE SMOOTH",
"499 520 LINE SMOOTH",
"485 520 OFFCURVE",
"474 510 OFFCURVE",
"471 497 CURVE SMOOTH",
"461 453 LINE",
"439 497 OFFCURVE",
"390 530 OFFCURVE",
"309 530 CURVE SMOOTH",
"161 530 OFFCURVE",
"82 421 OFFCURVE",
"50 294 CURVE SMOOTH",
"45 272 OFFCURVE",
"39 248 OFFCURVE",
"36 226 CURVE SMOOTH",
"16 101 OFFCURVE",
"60 -10 OFFCURVE",
"209 -10 CURVE SMOOTH",
"286 -10 OFFCURVE",
"335 22 OFFCURVE",
"376 65 CURVE",
"327 -167 LINE SMOOTH",
"324 -180 OFFCURVE",
"332 -190 OFFCURVE",
"345 -190 CURVE SMOOTH"
);
},
{
closed = 1;
nodes = (
"127 71 OFFCURVE",
"119 146 OFFCURVE",
"132 231 CURVE SMOOTH",
"135 251 OFFCURVE",
"139 269 OFFCURVE",
"145 289 CURVE SMOOTH",
"169 373 OFFCURVE",
"222 449 OFFCURVE",
"320 449 CURVE SMOOTH",
"419 449 OFFCURVE",
"438 369 OFFCURVE",
"425 295 CURVE SMOOTH",
"422 274 OFFCURVE",
"415 240 OFFCURVE",
"409 218 CURVE SMOOTH",
"392 147 OFFCURVE",
"326 71 OFFCURVE",
"229 71 CURVE SMOOTH"
);
}
);
width = 595.1875;
}
);
leftKerningGroup = d;
rightKerningGroup = u;
unicode = 0071;
userData = {
com.typemytype.robofont.guides = (
{
angle = 0;
isGlobal = 0;
magnetic = 5;
x = 0;
y = 530;
},
{
angle = 0;
isGlobal = 0;
magnetic = 5;
x = 0;
y = "-10";
},
{
angle = 0;
isGlobal = 0;
magnetic = 5;
x = 0;
y = "-190";
}
);
};
},
{
color = 6;
glyphname = r;
layers = (
{
anchors = (
{
name = bottom;
position = "{60, 0}";
},
{
name = top;
position = "{259, 520}";
}
);
layerId = "25564DC9-970B-4408-86C9-55005BB51701";
paths = (
{
closed = 1;
nodes = (
"84 0 LINE SMOOTH",
"97 0 OFFCURVE",
"109 10 OFFCURVE",
"112 23 CURVE SMOOTH",
"174 317 LINE SMOOTH",
"190 389 OFFCURVE",
"244 434 OFFCURVE",
"316 434 CURVE SMOOTH",
"375 434 LINE SMOOTH",
"389 434 OFFCURVE",
"400 443 OFFCURVE",
"403 456 CURVE SMOOTH",
"411 497 LINE SMOOTH",
"414 510 OFFCURVE",
"407 520 OFFCURVE",
"394 520 CURVE SMOOTH",
"351 520 LINE SMOOTH",
"282 520 OFFCURVE",
"232 496 OFFCURVE",
"200 452 CURVE",
"210 496 LINE SMOOTH",
"213 510 OFFCURVE",
"204 520 OFFCURVE",
"191 520 CURVE SMOOTH",
"145 520 LINE SMOOTH",
"132 520 OFFCURVE",
"120 510 OFFCURVE",
"117 496 CURVE SMOOTH",
"16 23 LINE SMOOTH",
"13 10 OFFCURVE",
"22 0 OFFCURVE",
"35 0 CURVE SMOOTH"
);
}
);
width = 381.6875;
}
);
leftKerningGroup = n;
rightKerningGroup = r;
unicode = 0072;
userData = {
com.typemytype.robofont.guides = (
{
angle = 0;
isGlobal = 0;
magnetic = 5;
x = 0;
y = 462;
}
);
};
},
{
color = 6;
glyphname = s;
layers = (
{
anchors = (
{
name = bottom;
position = "{216, 0}";
},
{
name = top;
position = "{298, 520}";
}
);
hints = (
{
horizontal = 1;
place = "{0, 0}";
type = Tag;
},
{
horizontal = 1;
place = "{0, 0}";
type = Tag;
}
);
layerId = "25564DC9-970B-4408-86C9-55005BB51701";
paths = (
{
closed = 1;
nodes = (
"342 -10 OFFCURVE",
"432 58 OFFCURVE",
"450 143 CURVE SMOOTH",
"466 217 OFFCURVE",
"433 268 OFFCURVE",
"308 296 CURVE SMOOTH",
"192 322 OFFCURVE",
"173 343 OFFCURVE",
"182 383 CURVE SMOOTH",
"191 425 OFFCURVE",
"231 457 OFFCURVE",
"298 457 CURVE SMOOTH",
"368 457 OFFCURVE",
"384 427 OFFCURVE",
"401 401 CURVE SMOOTH",
"404 395 OFFCURVE",
"409 391 OFFCURVE",
"419 391 CURVE SMOOTH",
"460 391 LINE SMOOTH",
"472 391 OFFCURVE",
"485 400 OFFCURVE",
"487 414 CURVE SMOOTH",
"493 448 OFFCURVE",
"450 530 OFFCURVE",
"313 530 CURVE SMOOTH",
"185 530 OFFCURVE",
"104 453 OFFCURVE",
"88 380 CURVE SMOOTH",
"73 308 OFFCURVE",
"102 259 OFFCURVE",
"216 232 CURVE SMOOTH",
"331 205 OFFCURVE",
"363 188 OFFCURVE",
"353 140 CURVE SMOOTH",
"342 90 OFFCURVE",
"287 63 OFFCURVE",
"220 63 CURVE SMOOTH",
"149 63 OFFCURVE",
"125 94 OFFCURVE",
"105 123 CURVE SMOOTH",
"100 132 OFFCURVE",
"96 133 OFFCURVE",
"89 133 CURVE SMOOTH",
"44 133 LINE SMOOTH",
"34 133 OFFCURVE",
"19 125 OFFCURVE",
"17 110 CURVE SMOOTH",
"13 78 OFFCURVE",
"53 -10 OFFCURVE",
"203 -10 CURVE SMOOTH"
);
}
);
width = 510.375;
}
);
leftKerningGroup = s;
rightKerningGroup = s;
unicode = 0073;
userData = {
com.typemytype.robofont.guides = (
{
angle = 0;
isGlobal = 0;
magnetic = 5;
x = 0;
y = 265;
},
{
angle = 0;
isGlobal = 0;
magnetic = 5;
x = 0;
y = 139;
},
{
angle = 90;
isGlobal = 0;
magnetic = 5;
x = 250;
y = 0;
}
);
};
},
{
color = 6;
glyphname = scedilla;
layers = (
{
hints = (
{
horizontal = 1;
place = "{0, 0}";
type = Tag;
}
);
layerId = "25564DC9-970B-4408-86C9-55005BB51701";
paths = (
{
closed = 1;
nodes = (
"242 -221 OFFCURVE",
"284 -181 OFFCURVE",
"294 -132 CURVE SMOOTH",
"304 -83 OFFCURVE",
"281 -48 OFFCURVE",
"235 -48 CURVE SMOOTH",
"226 -48 OFFCURVE",
"215 -50 OFFCURVE",
"206 -52 CURVE",
"229 -10 LINE",
"354 -2 OFFCURVE",
"433 63 OFFCURVE",
"450 143 CURVE SMOOTH",
"466 217 OFFCURVE",
"433 268 OFFCURVE",
"308 296 CURVE SMOOTH",
"192 322 OFFCURVE",
"173 343 OFFCURVE",
"182 383 CURVE SMOOTH",
"191 425 OFFCURVE",
"231 457 OFFCURVE",
"298 457 CURVE SMOOTH",
"368 457 OFFCURVE",
"384 427 OFFCURVE",
"401 401 CURVE SMOOTH",
"404 395 OFFCURVE",
"409 391 OFFCURVE",
"418 391 CURVE SMOOTH",
"460 391 LINE SMOOTH",
"472 391 OFFCURVE",
"485 400 OFFCURVE",
"487 414 CURVE SMOOTH",
"493 448 OFFCURVE",
"450 530 OFFCURVE",
"313 530 CURVE SMOOTH",
"185 530 OFFCURVE",
"104 453 OFFCURVE",
"88 380 CURVE SMOOTH",
"73 308 OFFCURVE",
"102 259 OFFCURVE",
"216 232 CURVE SMOOTH",
"331 205 OFFCURVE",
"363 188 OFFCURVE",
"353 140 CURVE SMOOTH",
"342 90 OFFCURVE",
"287 63 OFFCURVE",
"220 63 CURVE SMOOTH",
"149 63 OFFCURVE",
"124 94 OFFCURVE",
"104 123 CURVE SMOOTH",
"99 132 OFFCURVE",
"94 133 OFFCURVE",
"87 133 CURVE SMOOTH",
"44 133 LINE SMOOTH",
"34 133 OFFCURVE",
"19 125 OFFCURVE",
"17 110 CURVE SMOOTH",
"12 80 OFFCURVE",
"47 3 OFFCURVE",
"176 -8 CURVE",
"150 -52 LINE SMOOTH",
"143 -64 OFFCURVE",
"138 -75 OFFCURVE",
"145 -83 CURVE SMOOTH",
"157 -101 LINE SMOOTH",
"169 -117 OFFCURVE",
"188 -98 OFFCURVE",
"207 -98 CURVE SMOOTH",
"229 -98 OFFCURVE",
"244 -111 OFFCURVE",
"239 -133 CURVE SMOOTH",
"234 -156 OFFCURVE",
"213 -170 OFFCURVE",
"191 -170 CURVE SMOOTH",
"149 -170 OFFCURVE",
"148 -139 OFFCURVE",
"128 -155 CURVE SMOOTH",
"110 -169 LINE SMOOTH",
"89 -185 OFFCURVE",
"125 -219 OFFCURVE",
"180 -220 CURVE SMOOTH"
);
}
);
width = 510.375;
}
);
leftKerningGroup = s;
rightKerningGroup = s;
unicode = 015F;
},
{
color = 6;
glyphname = germandbls;
layers = (
{
anchors = (
{
name = bottom;
position = "{240, 0}";
},
{
name = top;
position = "{350, 520}";
}
);
hints = (
{
horizontal = 1;
place = "{0, 0}";
type = Tag;
}
);
layerId = "25564DC9-970B-4408-86C9-55005BB51701";
paths = (
{
closed = 1;
nodes = (
"96 0 LINE SMOOTH",
"110 0 OFFCURVE",
"121 10 OFFCURVE",
"124 23 CURVE SMOOTH",
"224 490 LINE SMOOTH",
"244 585 OFFCURVE",
"304 631 OFFCURVE",
"380 631 CURVE SMOOTH",
"456 631 OFFCURVE",
"497 585 OFFCURVE",
"483 521 CURVE SMOOTH",
"469 451 OFFCURVE",
"418 412 OFFCURVE",
"329 411 CURVE SMOOTH",
"284 411 LINE SMOOTH",
"269 411 OFFCURVE",
"259 402 OFFCURVE",
"257 388 CURVE SMOOTH",
"250 359 LINE SMOOTH",
"247 345 OFFCURVE",
"254 336 OFFCURVE",
"268 336 CURVE SMOOTH",
"322 336 LINE SMOOTH",
"419 336 OFFCURVE",
"457 279 OFFCURVE",
"441 207 CURVE SMOOTH",
"426 135 OFFCURVE",
"364 79 OFFCURVE",
"268 79 CURVE",
"215 79 LINE SMOOTH",
"200 79 OFFCURVE",
"189 69 OFFCURVE",
"186 56 CURVE SMOOTH",
"179 23 LINE SMOOTH",
"176 10 OFFCURVE",
"183 0 OFFCURVE",
"198 0 CURVE SMOOTH",
"265 0 LINE SMOOTH",
"428 0 OFFCURVE",
"517 113 OFFCURVE",
"537 205 CURVE SMOOTH",
"552 278 OFFCURVE",
"541 347 OFFCURVE",
"460 377 CURVE",
"504 397 OFFCURVE",
"558 443 OFFCURVE",
"575 523 CURVE SMOOTH",
"595 612 OFFCURVE",
"553 710 OFFCURVE",
"397 710 CURVE SMOOTH",
"240 710 OFFCURVE",
"156 609 OFFCURVE",
"131 493 CURVE SMOOTH",
"31 23 LINE SMOOTH",
"28 10 OFFCURVE",
"36 0 OFFCURVE",
"49 0 CURVE SMOOTH"
);
}
);
width = 589.375;
}
);
leftKerningGroup = h;
unicode = 00DF;
userData = {
com.typemytype.robofont.guides = (
{
angle = 0;
isGlobal = 0;
magnetic = 5;
x = 0;
y = 527;
},
{
angle = 0;
isGlobal = 0;
magnetic = 5;
x = 0;
y = 601;
},
{
angle = 90;
isGlobal = 0;
magnetic = 5;
x = 267;
y = 0;
},
{
angle = 90;
isGlobal = 0;
magnetic = 5;
x = 499;
y = 0;
}
);
};
},
{
color = 6;
glyphname = longs;
layers = (
{
anchors = (
{
name = bottom;
position = "{91, 0}";
},
{
name = top;
position = "{201, 520}";
}
);
layerId = "25564DC9-970B-4408-86C9-55005BB51701";
paths = (
{
closed = 1;
nodes = (
"130 0 LINE SMOOTH",
"143 0 OFFCURVE",
"154 10 OFFCURVE",
"157 23 CURVE",
"272 565 LINE SMOOTH",
"285 626 OFFCURVE",
"317 660 OFFCURVE",
"379 660 CURVE SMOOTH",
"431 660 LINE SMOOTH",
"444 660 OFFCURVE",
"456 670 OFFCURVE",
"459 683 CURVE SMOOTH",
"466 717 LINE SMOOTH",
"469 730 OFFCURVE",
"462 740 OFFCURVE",
"449 740 CURVE SMOOTH",
"380 740 LINE SMOOTH",
"269 740 OFFCURVE",
"203 673 OFFCURVE",
"181 570 CURVE SMOOTH",
"170 520 LINE",
"85 520 LINE",
"72 520 OFFCURVE",
"60 510 OFFCURVE",
"57 497 CURVE",
"50 463 LINE SMOOTH",
"47 450 OFFCURVE",
"55 440 OFFCURVE",
"68 440 CURVE SMOOTH",
"154 440 LINE",
"65 23 LINE SMOOTH",
"62 10 OFFCURVE",
"70 0 OFFCURVE",
"83 0 CURVE SMOOTH"
);
}
);
width = 290.9375;
}
);
unicode = 017F;
},
{
color = 6;
glyphname = t;
layers = (
{
anchors = (
{
name = bottom;
position = "{179, 0}";
},
{
name = center;
position = "{180, 287}";
},
{
name = top;
position = "{248, 520}";
},
{
name = topright;
position = "{396, 778}";
}
);
layerId = "25564DC9-970B-4408-86C9-55005BB51701";
paths = (
{
closed = 1;
nodes = (
"279 0 LINE SMOOTH",
"292 0 OFFCURVE",
"303 10 OFFCURVE",
"306 23 CURVE SMOOTH",
"313 59 LINE SMOOTH",
"316 72 OFFCURVE",
"309 82 OFFCURVE",
"296 82 CURVE SMOOTH",
"230 82 LINE SMOOTH",
"163 82 OFFCURVE",
"169 120 OFFCURVE",
"183 183 CURVE SMOOTH",
"238 440 LINE",
"362 440 LINE SMOOTH",
"376 440 OFFCURVE",
"387 450 OFFCURVE",
"390 463 CURVE SMOOTH",
"397 497 LINE SMOOTH",
"400 510 OFFCURVE",
"392 520 OFFCURVE",
"379 520 CURVE SMOOTH",
"255 520 LINE",
"290 687 LINE SMOOTH",
"293 700 OFFCURVE",
"285 710 OFFCURVE",
"272 710 CURVE SMOOTH",
"225 710 LINE SMOOTH",
"212 710 OFFCURVE",
"201 700 OFFCURVE",
"198 687 CURVE SMOOTH",
"162 520 LINE",
"84 520 LINE SMOOTH",
"70 520 OFFCURVE",
"59 510 OFFCURVE",
"56 497 CURVE SMOOTH",
"49 463 LINE SMOOTH",
"46 450 OFFCURVE",
"54 440 OFFCURVE",
"67 440 CURVE SMOOTH",
"145 440 LINE",
"89 176 LINE SMOOTH",
"66 69 OFFCURVE",
"87 0 OFFCURVE",
"219 0 CURVE SMOOTH"
);
}
);
width = 384.375;
}
);
leftKerningGroup = t;
rightKerningGroup = t;
unicode = 0074;
userData = {
com.typemytype.robofont.guides = (
{
angle = 0;
isGlobal = 0;
magnetic = 5;
x = 0;
y = 175;
},
{
angle = 90;
isGlobal = 0;
magnetic = 5;
x = 342;
y = 0;
},
{
angle = 90;
isGlobal = 0;
magnetic = 5;
x = 35;
y = 0;
}
);
};
},
{
color = 6;
glyphname = tbar;
layers = (
{
layerId = "25564DC9-970B-4408-86C9-55005BB51701";
paths = (
{
closed = 1;
nodes = (
"284 0 LINE",
"297 0 OFFCURVE",
"308 10 OFFCURVE",
"311 23 CURVE",
"319 59 LINE",
"322 72 OFFCURVE",
"314 82 OFFCURVE",
"301 82 CURVE",
"235 82 LINE",
"168 82 OFFCURVE",
"175 120 OFFCURVE",
"188 183 CURVE",
"212 297 LINE",
"337 297 LINE",
"350 297 OFFCURVE",
"362 306 OFFCURVE",
"365 320 CURVE",
"369 341 LINE",
"372 354 OFFCURVE",
"364 364 OFFCURVE",
"351 364 CURVE",
"226 364 LINE",
"246 453 LINE",
"370 453 LINE",
"384 453 OFFCURVE",
"395 463 OFFCURVE",
"397 476 CURVE",
"402 497 LINE",
"405 510 OFFCURVE",
"398 520 OFFCURVE",
"384 520 CURVE",
"260 520 LINE",
"296 687 LINE",
"299 700 OFFCURVE",
"290 710 OFFCURVE",
"277 710 CURVE",
"230 710 LINE",
"217 710 OFFCURVE",
"206 700 OFFCURVE",
"203 687 CURVE",
"167 520 LINE",
"89 520 LINE",
"76 520 OFFCURVE",
"64 510 OFFCURVE",
"61 497 CURVE",
"56 476 LINE",
"54 463 OFFCURVE",
"62 453 OFFCURVE",
"75 453 CURVE",
"153 453 LINE",
"134 364 LINE",
"55 364 LINE",
"42 364 OFFCURVE",
"31 354 OFFCURVE",
"28 341 CURVE SMOOTH",
"24 320 LINE SMOOTH",
"21 306 OFFCURVE",
"28 297 OFFCURVE",
"42 297 CURVE SMOOTH",
"120 297 LINE",
"94 176 LINE",
"71 69 OFFCURVE",
"90 0 OFFCURVE",
"223 0 CURVE"
);
}
);
width = 391.25;
}
);
leftKerningGroup = t;
rightKerningGroup = t;
unicode = 0167;
userData = {
com.typemytype.robofont.guides = (
{
angle = 90;
isGlobal = 0;
magnetic = 5;
x = 342;
y = 0;
}
);
};
},
{
color = 6;
glyphname = u;
layers = (
{
anchors = (
{
name = bottom;
position = "{246, 0}";
},
{
name = ogonek;
position = "{472, 48}";
},
{
name = top;
position = "{337, 520}";
},
{
name = topright;
position = "{637, 520}";
}
);
layerId = "25564DC9-970B-4408-86C9-55005BB51701";
paths = (
{
closed = 1;
nodes = (
"303 -10 OFFCURVE",
"341 20 OFFCURVE",
"386 67 CURVE",
"377 23 LINE SMOOTH",
"374 10 OFFCURVE",
"382 0 OFFCURVE",
"396 0 CURVE SMOOTH",
"442 0 LINE SMOOTH",
"456 0 OFFCURVE",
"466 10 OFFCURVE",
"469 23 CURVE SMOOTH",
"570 497 LINE SMOOTH",
"573 510 OFFCURVE",
"566 520 OFFCURVE",
"552 520 CURVE SMOOTH",
"503 520 LINE SMOOTH",
"490 520 OFFCURVE",
"478 510 OFFCURVE",
"475 497 CURVE SMOOTH",
"416 220 LINE SMOOTH",
"396 126 OFFCURVE",
"325 71 OFFCURVE",
"238 71 CURVE SMOOTH",
"143 71 OFFCURVE",
"128 121 OFFCURVE",
"149 220 CURVE SMOOTH",
"207 497 LINE SMOOTH",
"210 510 OFFCURVE",
"203 520 OFFCURVE",
"190 520 CURVE SMOOTH",
"140 520 LINE SMOOTH",
"127 520 OFFCURVE",
"115 510 OFFCURVE",
"112 497 CURVE SMOOTH",
"52 215 LINE SMOOTH",
"24 82 OFFCURVE",
"71 -10 OFFCURVE",
"214 -10 CURVE SMOOTH"
);
}
);
width = 602.3125;
}
);
leftKerningGroup = u;
rightKerningGroup = u;
unicode = 0075;
userData = {
com.typemytype.robofont.guides = (
{
angle = 0;
isGlobal = 0;
magnetic = 5;
x = 0;
y = "-10";
},
{
angle = 90;
isGlobal = 0;
magnetic = 5;
x = 432;
y = 0;
},
{
angle = 90;
isGlobal = 0;
magnetic = 5;
x = 126;
y = 0;
},
{
angle = 90;
isGlobal = 0;
magnetic = 5;
x = 65;
y = 0;
}
);
};
},
{
color = 6;
glyphname = uogonek;
layers = (
{
hints = (
{
horizontal = 1;
place = "{-300.625, 0}";
type = Tag;
}
);
layerId = "25564DC9-970B-4408-86C9-55005BB51701";
paths = (
{
closed = 1;
nodes = (
"409 -220 LINE SMOOTH",
"422 -220 OFFCURVE",
"434 -210 OFFCURVE",
"437 -197 CURVE SMOOTH",
"442 -174 LINE SMOOTH",
"445 -160 OFFCURVE",
"437 -151 OFFCURVE",
"424 -151 CURVE SMOOTH",
"418 -151 LINE SMOOTH",
"383 -151 OFFCURVE",
"368 -128 OFFCURVE",
"377 -82 CURVE SMOOTH",
"386 -42 OFFCURVE",
"410 -17 OFFCURVE",
"455 -2 CURVE",
"460 0 LINE",
"474 5 OFFCURVE",
"481 14 OFFCURVE",
"484 23 CURVE SMOOTH",
"584 497 LINE SMOOTH",
"587 510 OFFCURVE",
"580 520 OFFCURVE",
"567 520 CURVE SMOOTH",
"517 520 LINE SMOOTH",
"504 520 OFFCURVE",
"492 510 OFFCURVE",
"489 497 CURVE SMOOTH",
"430 220 LINE SMOOTH",
"410 126 OFFCURVE",
"344 71 OFFCURVE",
"261 71 CURVE SMOOTH",
"174 71 OFFCURVE",
"142 121 OFFCURVE",
"163 220 CURVE SMOOTH",
"222 497 LINE SMOOTH",
"225 510 OFFCURVE",
"217 520 OFFCURVE",
"204 520 CURVE SMOOTH",
"154 520 LINE SMOOTH",
"141 520 OFFCURVE",
"129 510 OFFCURVE",
"126 497 CURVE SMOOTH",
"66 215 LINE SMOOTH",
"38 82 OFFCURVE",
"88 -10 OFFCURVE",
"217 -10 CURVE SMOOTH",
"300 -10 OFFCURVE",
"355 20 OFFCURVE",
"401 67 CURVE",
"394 40 LINE",
"394 35 OFFCURVE",
"394 31 OFFCURVE",
"396 28 CURVE",
"363 12 OFFCURVE",
"317 -27 OFFCURVE",
"305 -82 CURVE SMOOTH",
"287 -169 OFFCURVE",
"326 -220 OFFCURVE",
"399 -220 CURVE SMOOTH"
);
}
);
width = 601.6875;
}
);
leftKerningGroup = u;
rightKerningGroup = u;
unicode = 0173;
userData = {
com.typemytype.robofont.guides = (
{
angle = 0;
isGlobal = 0;
magnetic = 5;
x = 0;
y = 213;
},
{
angle = 90;
isGlobal = 0;
magnetic = 5;
x = 493;
y = 0;
}
);
};
},
{
color = 6;
glyphname = v;
layers = (
{
anchors = (
{
name = bottom;
position = "{221, 0}";
},
{
name = top;
position = "{331, 520}";
}
);
layerId = "25564DC9-970B-4408-86C9-55005BB51701";
paths = (
{
closed = 1;
nodes = (
"237 0 LINE SMOOTH",
"257 0 OFFCURVE",
"267 11 OFFCURVE",
"276 25 CURVE",
"560 489 LINE SMOOTH",
"571 507 OFFCURVE",
"561 520 OFFCURVE",
"548 520 CURVE SMOOTH",
"495 520 LINE SMOOTH",
"480 520 OFFCURVE",
"471 509 OFFCURVE",
"467 503 CURVE",
"231 109 LINE",
"163 498 LINE",
"161 514 OFFCURVE",
"153 520 OFFCURVE",
"139 520 CURVE SMOOTH",
"94 520 LINE SMOOTH",
"81 520 OFFCURVE",
"70 512 OFFCURVE",
"73 495 CURVE SMOOTH",
"160 25 LINE",
"163 11 OFFCURVE",
"169 0 OFFCURVE",
"189 0 CURVE"
);
}
);
width = 551.5625;
}
);
unicode = 0076;
userData = {
com.typemytype.robofont.guides = (
{
angle = 90;
isGlobal = 0;
magnetic = 5;
x = 267;
y = 0;
}
);
};
},
{
color = 6;
glyphname = w;
layers = (
{
anchors = (
{
name = bottom;
position = "{346, 0}";
},
{
name = top;
position = "{436, 520}";
}
);
layerId = "25564DC9-970B-4408-86C9-55005BB51701";
paths = (
{
closed = 1;
nodes = (
"188 0 LINE SMOOTH",
"206 0 OFFCURVE",
"218 9 OFFCURVE",
"227 25 CURVE SMOOTH",
"416 383 LINE",
"459 25 LINE SMOOTH",
"461 9 OFFCURVE",
"470 0 OFFCURVE",
"488 0 CURVE SMOOTH",
"529 0 LINE SMOOTH",
"547 0 OFFCURVE",
"557 8 OFFCURVE",
"566 25 CURVE SMOOTH",
"806 492 LINE SMOOTH",
"813 506 OFFCURVE",
"810 520 OFFCURVE",
"792 520 CURVE SMOOTH",
"742 520 LINE SMOOTH",
"728 520 OFFCURVE",
"719 509 OFFCURVE",
"717 503 CURVE SMOOTH",
"525 126 LINE",
"484 499 LINE SMOOTH",
"483 508 OFFCURVE",
"479 520 OFFCURVE",
"461 520 CURVE SMOOTH",
"424 520 LINE SMOOTH",
"407 520 OFFCURVE",
"398 508 OFFCURVE",
"393 499 CURVE",
"197 126 LINE",
"164 503 LINE SMOOTH",
"163 513 OFFCURVE",
"157 520 OFFCURVE",
"142 520 CURVE SMOOTH",
"101 520 LINE SMOOTH",
"84 520 OFFCURVE",
"75 508 OFFCURVE",
"76 495 CURVE SMOOTH",
"120 25 LINE SMOOTH",
"122 9 OFFCURVE",
"129 0 OFFCURVE",
"147 0 CURVE SMOOTH"
);
}
);
width = 802.125;
}
);
leftKerningGroup = w;
rightKerningGroup = w;
unicode = 0077;
userData = {
com.typemytype.robofont.guides = (
{
angle = 90;
isGlobal = 0;
magnetic = 5;
x = 45;
y = 0;
},
{
angle = 90;
isGlobal = 0;
magnetic = 5;
x = 737;
y = 0;
}
);
};
},
{
color = 6;
glyphname = x;
layers = (
{
anchors = (
{
name = bottom;
position = "{215, 0}";
},
{
name = top;
position = "{325, 520}";
}
);
layerId = "25564DC9-970B-4408-86C9-55005BB51701";
paths = (
{
closed = 1;
nodes = (
"42 0 LINE",
"62 0 OFFCURVE",
"69 9 OFFCURVE",
"75 15 CURVE",
"250 193 LINE",
"348 15 LINE SMOOTH",
"352 8 OFFCURVE",
"360 0 OFFCURVE",
"374 0 CURVE",
"423 0 LINE",
"442 0 OFFCURVE",
"449 18 OFFCURVE",
"441 32 CURVE SMOOTH",
"321 255 LINE",
"544 485 LINE SMOOTH",
"559 500 OFFCURVE",
"546 521 OFFCURVE",
"531 520 CURVE",
"482 520 LINE",
"462 520 OFFCURVE",
"454 510 OFFCURVE",
"448 504 CURVE",
"273 327 LINE",
"175 504 LINE",
"171 511 OFFCURVE",
"165 520 OFFCURVE",
"151 520 CURVE",
"102 520 LINE",
"84 520 OFFCURVE",
"77 501 OFFCURVE",
"84 488 CURVE",
"204 268 LINE",
"-23 35 LINE SMOOTH",
"-36 21 OFFCURVE",
"-27 0 OFFCURVE",
"-9 0 CURVE SMOOTH"
);
}
);
width = 538.375;
}
);
unicode = 0078;
userData = {
com.typemytype.robofont.guides = (
{
angle = 90;
isGlobal = 0;
magnetic = 5;
x = 255;
y = 0;
}
);
};
},
{
color = 6;
glyphname = y;
layers = (
{
anchors = (
{
name = bottom;
position = "{223, 0}";
},
{
name = top;
position = "{321, 520}";
}
);
layerId = "25564DC9-970B-4408-86C9-55005BB51701";
paths = (
{
closed = 1;
nodes = (
"111 -190 LINE",
"125 -190 OFFCURVE",
"134 -182 OFFCURVE",
"140 -173 CURVE SMOOTH",
"569 491 LINE SMOOTH",
"580 508 OFFCURVE",
"568 520 OFFCURVE",
"555 520 CURVE SMOOTH",
"503 520 LINE",
"488 520 OFFCURVE",
"480 512 OFFCURVE",
"474 503 CURVE",
"240 138 LINE",
"163 503 LINE SMOOTH",
"161 513 OFFCURVE",
"155 520 OFFCURVE",
"141 520 CURVE",
"97 520 LINE",
"77 520 OFFCURVE",
"71 507 OFFCURVE",
"74 493 CURVE",
"172 35 LINE",
"49 -157 LINE SMOOTH",
"37 -175 OFFCURVE",
"44 -190 OFFCURVE",
"60 -190 CURVE SMOOTH"
);
}
);
width = 555;
}
);
leftKerningGroup = y;
rightKerningGroup = y;
unicode = 0079;
},
{
color = 6;
glyphname = z;
layers = (
{
anchors = (
{
name = bottom;
position = "{198, 0}";
},
{
name = center;
position = "{253, 260}";
},
{
name = top;
position = "{301, 520}";
}
);
layerId = "25564DC9-970B-4408-86C9-55005BB51701";
paths = (
{
closed = 1;
nodes = (
"386 0 LINE SMOOTH",
"399 0 OFFCURVE",
"410 10 OFFCURVE",
"413 23 CURVE SMOOTH",
"420 56 LINE SMOOTH",
"423 70 OFFCURVE",
"416 79 OFFCURVE",
"402 79 CURVE SMOOTH",
"118 79 LINE",
"474 439 LINE SMOOTH",
"481 445 OFFCURVE",
"485 451 OFFCURVE",
"486 460 CURVE SMOOTH",
"493 497 LINE SMOOTH",
"495 510 OFFCURVE",
"489 520 OFFCURVE",
"476 520 CURVE SMOOTH",
"120 520 LINE SMOOTH",
"106 520 OFFCURVE",
"95 510 OFFCURVE",
"92 497 CURVE SMOOTH",
"84 464 LINE SMOOTH",
"81 450 OFFCURVE",
"90 441 OFFCURVE",
"103 441 CURVE SMOOTH",
"359 441 LINE",
"1 80 LINE SMOOTH",
"-5 74 OFFCURVE",
"-8 69 OFFCURVE",
"-11 58 CURVE SMOOTH",
"-19 23 LINE SMOOTH",
"-22 10 OFFCURVE",
"-13 0 OFFCURVE",
"0 0 CURVE SMOOTH"
);
}
);
width = 505.6875;
}
);
leftKerningGroup = z;
rightKerningGroup = z;
unicode = 007A;
userData = {
com.typemytype.robofont.guides = (
{
angle = 0;
isGlobal = 0;
magnetic = 5;
x = 0;
y = 36;
},
{
angle = 90;
isGlobal = 0;
magnetic = 5;
x = 480;
y = 0;
},
{
angle = 90;
isGlobal = 0;
magnetic = 5;
x = 70;
y = 0;
}
);
};
},
{
color = 6;
glyphname = f_f;
layers = (
{
anchors = (
{
name = caret_1;
position = "{344, 0}";
}
);
layerId = "25564DC9-970B-4408-86C9-55005BB51701";
paths = (
{
closed = 1;
nodes = (
"580 565 LINE",
"593 626 OFFCURVE",
"625 660 OFFCURVE",
"687 660 CURVE",
"739 660 LINE",
"752 660 OFFCURVE",
"764 670 OFFCURVE",
"767 683 CURVE",
"774 717 LINE",
"777 730 OFFCURVE",
"770 740 OFFCURVE",
"757 740 CURVE",
"688 740 LINE",
"577 740 OFFCURVE",
"511 673 OFFCURVE",
"489 570 CURVE",
"478 520 LINE",
"265 520 LINE",
"274 565 LINE",
"287 626 OFFCURVE",
"318 660 OFFCURVE",
"381 660 CURVE",
"433 660 LINE",
"446 660 OFFCURVE",
"458 670 OFFCURVE",
"461 683 CURVE",
"468 717 LINE",
"471 730 OFFCURVE",
"464 740 OFFCURVE",
"450 740 CURVE",
"382 740 LINE",
"270 740 OFFCURVE",
"205 673 OFFCURVE",
"183 570 CURVE",
"172 520 LINE",
"87 520 LINE",
"73 520 OFFCURVE",
"62 510 OFFCURVE",
"59 497 CURVE",
"52 463 LINE",
"49 450 OFFCURVE",
"57 440 OFFCURVE",
"70 440 CURVE",
"155 440 LINE",
"66 23 LINE",
"63 10 OFFCURVE",
"72 0 OFFCURVE",
"85 0 CURVE",
"132 0 LINE",
"145 0 OFFCURVE",
"156 10 OFFCURVE",
"159 23 CURVE",
"248 440 LINE",
"462 440 LINE",
"373 23 LINE",
"370 10 OFFCURVE",
"378 0 OFFCURVE",
"391 0 CURVE",
"438 0 LINE",
"451 0 OFFCURVE",
"462 10 OFFCURVE",
"465 23 CURVE",
"554 440 LINE",
"683 440 LINE",
"696 440 OFFCURVE",
"708 450 OFFCURVE",
"710 463 CURVE",
"717 497 LINE",
"720 510 OFFCURVE",
"713 520 OFFCURVE",
"700 520 CURVE",
"571 520 LINE"
);
}
);
width = 687.6875;
}
);
leftKerningGroup = f;
rightKerningGroup = f;
userData = {
com.typemytype.robofont.guides = (
{
angle = 0;
isGlobal = 0;
magnetic = 5;
x = 0;
y = 345;
},
{
angle = 0;
isGlobal = 0;
magnetic = 5;
x = 0;
y = 9;
},
{
angle = 0;
isGlobal = 0;
magnetic = 5;
x = 0;
y = 740;
},
{
angle = 90;
isGlobal = 0;
magnetic = 5;
x = 297;
y = 0;
},
{
angle = 90;
isGlobal = 0;
magnetic = 5;
x = 371;
y = 0;
}
);
};
},
{
color = 6;
glyphname = f_f_i;
layers = (
{
anchors = (
{
name = caret_1;
position = "{285, 0}";
},
{
name = caret_2;
position = "{569, 0}";
}
);
layerId = "25564DC9-970B-4408-86C9-55005BB51701";
paths = (
{
closed = 1;
nodes = (
"132 0 LINE",
"145 0 OFFCURVE",
"156 10 OFFCURVE",
"159 23 CURVE",
"248 440 LINE",
"462 440 LINE",
"373 23 LINE",
"370 10 OFFCURVE",
"378 0 OFFCURVE",
"391 0 CURVE",
"438 0 LINE",
"451 0 OFFCURVE",
"462 10 OFFCURVE",
"465 23 CURVE",
"554 440 LINE",
"717 440 LINE",
"629 23 LINE",
"626 10 OFFCURVE",
"634 0 OFFCURVE",
"648 0 CURVE",
"694 0 LINE",
"708 0 OFFCURVE",
"718 10 OFFCURVE",
"721 23 CURVE",
"822 497 LINE",
"825 510 OFFCURVE",
"818 520 OFFCURVE",
"804 520 CURVE",
"571 520 LINE",
"580 565 LINE",
"593 626 OFFCURVE",
"625 660 OFFCURVE",
"687 660 CURVE",
"834 660 LINE",
"847 660 OFFCURVE",
"859 670 OFFCURVE",
"862 683 CURVE",
"869 717 LINE",
"872 730 OFFCURVE",
"865 740 OFFCURVE",
"851 740 CURVE",
"688 740 LINE",
"577 740 OFFCURVE",
"511 673 OFFCURVE",
"489 570 CURVE",
"478 520 LINE",
"265 520 LINE",
"274 565 LINE",
"287 626 OFFCURVE",
"318 660 OFFCURVE",
"381 660 CURVE",
"433 660 LINE",
"446 660 OFFCURVE",
"458 670 OFFCURVE",
"461 683 CURVE",
"468 717 LINE",
"471 730 OFFCURVE",
"464 740 OFFCURVE",
"450 740 CURVE",
"382 740 LINE",
"270 740 OFFCURVE",
"205 673 OFFCURVE",
"183 570 CURVE",
"172 520 LINE",
"87 520 LINE",
"73 520 OFFCURVE",
"62 510 OFFCURVE",
"59 497 CURVE",
"52 463 LINE",
"49 450 OFFCURVE",
"57 440 OFFCURVE",
"70 440 CURVE",
"155 440 LINE",
"66 23 LINE",
"63 10 OFFCURVE",
"72 0 OFFCURVE",
"85 0 CURVE"
);
}
);
width = 854.125;
}
);
leftKerningGroup = f;
rightKerningGroup = i;
userData = {
com.typemytype.robofont.guides = (
{
angle = 90;
isGlobal = 0;
magnetic = 5;
x = 712;
y = 0;
}
);
};
},
{
color = 6;
glyphname = f_f_l;
layers = (
{
anchors = (
{
name = caret_1;
position = "{302, 0}";
},
{
name = caret_2;
position = "{604, 0}";
}
);
layerId = "25564DC9-970B-4408-86C9-55005BB51701";
paths = (
{
closed = 1;
nodes = (
"132 0 LINE",
"145 0 OFFCURVE",
"156 10 OFFCURVE",
"159 23 CURVE",
"248 440 LINE",
"462 440 LINE",
"373 23 LINE",
"370 10 OFFCURVE",
"378 0 OFFCURVE",
"391 0 CURVE",
"438 0 LINE",
"451 0 OFFCURVE",
"462 10 OFFCURVE",
"465 23 CURVE",
"554 440 LINE",
"767 440 LINE",
"679 23 LINE",
"676 10 OFFCURVE",
"684 0 OFFCURVE",
"698 0 CURVE",
"744 0 LINE",
"758 0 OFFCURVE",
"768 10 OFFCURVE",
"771 23 CURVE",
"919 717 LINE",
"922 730 OFFCURVE",
"914 740 OFFCURVE",
"900 740 CURVE",
"854 740 LINE",
"840 740 OFFCURVE",
"830 730 OFFCURVE",
"827 717 CURVE",
"785 520 LINE",
"571 520 LINE",
"580 565 LINE",
"593 626 OFFCURVE",
"625 660 OFFCURVE",
"687 660 CURVE",
"735 660 LINE",
"749 660 OFFCURVE",
"760 670 OFFCURVE",
"763 683 CURVE",
"771 717 LINE",
"774 730 OFFCURVE",
"766 740 OFFCURVE",
"753 740 CURVE",
"688 740 LINE",
"577 740 OFFCURVE",
"511 673 OFFCURVE",
"489 570 CURVE",
"478 520 LINE",
"265 520 LINE",
"274 565 LINE",
"287 626 OFFCURVE",
"318 660 OFFCURVE",
"381 660 CURVE",
"433 660 LINE",
"446 660 OFFCURVE",
"458 670 OFFCURVE",
"461 683 CURVE",
"468 717 LINE",
"471 730 OFFCURVE",
"464 740 OFFCURVE",
"450 740 CURVE",
"382 740 LINE",
"270 740 OFFCURVE",
"205 673 OFFCURVE",
"183 570 CURVE",
"172 520 LINE",
"87 520 LINE",
"73 520 OFFCURVE",
"62 510 OFFCURVE",
"59 497 CURVE",
"52 463 LINE",
"49 450 OFFCURVE",
"57 440 OFFCURVE",
"70 440 CURVE",
"155 440 LINE",
"66 23 LINE",
"63 10 OFFCURVE",
"72 0 OFFCURVE",
"85 0 CURVE"
);
}
);
width = 905.3125;
}
);
leftKerningGroup = f;
rightKerningGroup = l;
},
{
color = 6;
glyphname = fi;
layers = (
{
anchors = (
{
name = caret_1;
position = "{274, 0}";
}
);
layerId = "25564DC9-970B-4408-86C9-55005BB51701";
paths = (
{
closed = 1;
nodes = (
"132 0 LINE",
"145 0 OFFCURVE",
"156 10 OFFCURVE",
"159 23 CURVE",
"248 440 LINE",
"411 440 LINE",
"322 23 LINE",
"319 10 OFFCURVE",
"328 0 OFFCURVE",
"341 0 CURVE",
"388 0 LINE",
"401 0 OFFCURVE",
"412 10 OFFCURVE",
"415 23 CURVE",
"516 497 LINE",
"519 510 OFFCURVE",
"511 520 OFFCURVE",
"498 520 CURVE",
"265 520 LINE",
"274 565 LINE",
"287 626 OFFCURVE",
"318 660 OFFCURVE",
"381 660 CURVE",
"527 660 LINE",
"541 660 OFFCURVE",
"552 670 OFFCURVE",
"555 683 CURVE",
"563 717 LINE",
"566 730 OFFCURVE",
"558 740 OFFCURVE",
"545 740 CURVE",
"382 740 LINE",
"270 740 OFFCURVE",
"205 673 OFFCURVE",
"183 570 CURVE",
"172 520 LINE",
"87 520 LINE",
"73 520 OFFCURVE",
"62 510 OFFCURVE",
"59 497 CURVE",
"52 463 LINE",
"49 450 OFFCURVE",
"57 440 OFFCURVE",
"70 440 CURVE",
"155 440 LINE",
"66 23 LINE",
"63 10 OFFCURVE",
"72 0 OFFCURVE",
"85 0 CURVE"
);
}
);
width = 547.75;
}
);
leftKerningGroup = f;
rightKerningGroup = i;
unicode = FB01;
userData = {
com.typemytype.robofont.guides = (
{
angle = 90;
isGlobal = 0;
magnetic = 5;
x = 430;
y = 0;
},
{
angle = 90;
isGlobal = 0;
magnetic = 5;
x = 35;
y = 0;
}
);
};
},
{
color = 6;
glyphname = fl;
layers = (
{
anchors = (
{
name = caret_1;
position = "{299, 0}";
}
);
layerId = "25564DC9-970B-4408-86C9-55005BB51701";
paths = (
{
closed = 1;
nodes = (
"132 0 LINE",
"145 0 OFFCURVE",
"156 10 OFFCURVE",
"159 23 CURVE",
"248 440 LINE",
"461 440 LINE",
"373 23 LINE",
"370 10 OFFCURVE",
"378 0 OFFCURVE",
"391 0 CURVE",
"438 0 LINE",
"451 0 OFFCURVE",
"462 10 OFFCURVE",
"465 23 CURVE",
"613 717 LINE",
"616 730 OFFCURVE",
"607 740 OFFCURVE",
"594 740 CURVE",
"547 740 LINE",
"534 740 OFFCURVE",
"523 730 OFFCURVE",
"520 717 CURVE",
"478 520 LINE",
"265 520 LINE",
"274 565 LINE",
"287 626 OFFCURVE",
"318 660 OFFCURVE",
"381 660 CURVE",
"429 660 LINE",
"442 660 OFFCURVE",
"454 670 OFFCURVE",
"457 683 CURVE",
"464 717 LINE",
"467 730 OFFCURVE",
"460 740 OFFCURVE",
"446 740 CURVE",
"382 740 LINE",
"270 740 OFFCURVE",
"205 673 OFFCURVE",
"183 570 CURVE",
"172 520 LINE",
"87 520 LINE",
"74 520 OFFCURVE",
"62 510 OFFCURVE",
"59 497 CURVE",
"52 463 LINE",
"49 450 OFFCURVE",
"57 440 OFFCURVE",
"70 440 CURVE",
"155 440 LINE",
"66 23 LINE",
"63 10 OFFCURVE",
"72 0 OFFCURVE",
"85 0 CURVE"
);
}
);
width = 598.9375;
}
);
leftKerningGroup = f;
rightKerningGroup = l;
unicode = FB02;
userData = {
com.typemytype.robofont.guides = (
{
angle = 90;
isGlobal = 0;
magnetic = 5;
x = 35;
y = 0;
}
);
};
},
{
color = 6;
glyphname = ordfeminine;
layers = (
{
layerId = "25564DC9-970B-4408-86C9-55005BB51701";
paths = (
{
closed = 1;
nodes = (
"215 429 OFFCURVE",
"243 443 OFFCURVE",
"259 463 CURVE",
"257 455 LINE SMOOTH",
"255 443 OFFCURVE",
"262 434 OFFCURVE",
"274 434 CURVE",
"304 434 LINE SMOOTH",
"316 434 OFFCURVE",
"326 443 OFFCURVE",
"328 455 CURVE SMOOTH",
"359 597 LINE SMOOTH",
"373 662 OFFCURVE",
"338 705 OFFCURVE",
"261 705 CURVE SMOOTH",
"180 705 OFFCURVE",
"144 662 OFFCURVE",
"138 641 CURVE SMOOTH",
"136 629 OFFCURVE",
"144 625 OFFCURVE",
"155 625 CURVE SMOOTH",
"186 625 LINE SMOOTH",
"207 625 OFFCURVE",
"212 644 OFFCURVE",
"259 644 CURVE SMOOTH",
"301 644 OFFCURVE",
"291 619 OFFCURVE",
"289 610 CURVE",
"228 601 LINE SMOOTH",
"151 590 OFFCURVE",
"100 557 OFFCURVE",
"93 506 CURVE SMOOTH",
"87 463 OFFCURVE",
"122 429 OFFCURVE",
"180 429 CURVE SMOOTH"
);
},
{
closed = 1;
nodes = (
"169 487 OFFCURVE",
"163 497 OFFCURVE",
"165 509 CURVE SMOOTH",
"168 527 OFFCURVE",
"186 543 OFFCURVE",
"231 549 CURVE SMOOTH",
"277 556 LINE",
"270 518 OFFCURVE",
"237 487 OFFCURVE",
"189 487 CURVE SMOOTH"
);
}
);
width = 361.1875;
}
);
unicode = 00AA;
},
{
color = 6;
glyphname = ordmasculine;
layers = (
{
layerId = "25564DC9-970B-4408-86C9-55005BB51701";
paths = (
{
closed = 1;
nodes = (
"285 429 OFFCURVE",
"333 466 OFFCURVE",
"354 544 CURVE SMOOTH",
"357 554 OFFCURVE",
"363 580 OFFCURVE",
"364 590 CURVE SMOOTH",
"377 668 OFFCURVE",
"326 705 OFFCURVE",
"259 705 CURVE SMOOTH",
"188 705 OFFCURVE",
"134 668 OFFCURVE",
"113 590 CURVE SMOOTH",
"110 580 OFFCURVE",
"104 554 OFFCURVE",
"103 544 CURVE SMOOTH",
"90 466 OFFCURVE",
"136 429 OFFCURVE",
"209 429 CURVE SMOOTH"
);
},
{
closed = 1;
nodes = (
"179 492 OFFCURVE",
"171 509 OFFCURVE",
"176 545 CURVE SMOOTH",
"177 555 OFFCURVE",
"183 579 OFFCURVE",
"186 589 CURVE SMOOTH",
"195 622 OFFCURVE",
"219 643 OFFCURVE",
"252 643 CURVE SMOOTH",
"287 643 OFFCURVE",
"295 622 OFFCURVE",
"291 589 CURVE SMOOTH",
"290 579 OFFCURVE",
"284 555 OFFCURVE",
"281 545 CURVE SMOOTH",
"271 509 OFFCURVE",
"248 492 OFFCURVE",
"215 492 CURVE SMOOTH"
);
}
);
width = 356.125;
}
);
unicode = 00BA;
userData = {
com.typemytype.robofont.guides = (
{
angle = 0;
isGlobal = 0;
magnetic = 5;
x = 0;
y = 589;
},
{
angle = 0;
isGlobal = 0;
magnetic = 5;
x = 0;
y = 545;
},
{
angle = 0;
isGlobal = 0;
magnetic = 5;
x = 0;
y = 429;
},
{
angle = 0;
isGlobal = 0;
magnetic = 5;
x = 0;
y = 705;
},
{
angle = 90;
isGlobal = 0;
magnetic = 5;
x = 134;
y = 0;
}
);
};
},
{
color = 6;
glyphname = "Be-cy";
layers = (
{
layerId = "25564DC9-970B-4408-86C9-55005BB51701";
paths = (
{
closed = 1;
nodes = (
"309 0 LINE SMOOTH",
"461 0 OFFCURVE",
"556 109 OFFCURVE",
"577 208 CURVE SMOOTH",
"602 324 OFFCURVE",
"545 407 OFFCURVE",
"395 407 CURVE SMOOTH",
"197 407 LINE",
"241 613 LINE",
"601 613 LINE SMOOTH",
"615 613 OFFCURVE",
"627 622 OFFCURVE",
"629 636 CURVE SMOOTH",
"638 676 LINE SMOOTH",
"641 690 OFFCURVE",
"633 700 OFFCURVE",
"619 700 CURVE SMOOTH",
"184 700 LINE SMOOTH",
"170 700 OFFCURVE",
"159 690 OFFCURVE",
"157 676 CURVE SMOOTH",
"17 23 LINE SMOOTH",
"15 10 OFFCURVE",
"22 0 OFFCURVE",
"36 0 CURVE SMOOTH"
);
},
{
closed = 1;
nodes = (
"181 331 LINE",
"367 331 LINE SMOOTH",
"460 331 OFFCURVE",
"493 281 OFFCURVE",
"478 211 CURVE SMOOTH",
"463 141 OFFCURVE",
"400 81 OFFCURVE",
"313 81 CURVE SMOOTH",
"127 81 LINE"
);
}
);
width = 639.5;
}
);
leftKerningGroup = afii10026;
unicode = 0411;
userData = {
com.typemytype.robofont.guides = (
{
angle = 0;
isGlobal = 0;
magnetic = 5;
x = 0;
y = 280;
},
{
angle = 0;
isGlobal = 0;
magnetic = 5;
x = 0;
y = 447;
},
{
angle = 90;
isGlobal = 0;
magnetic = 5;
x = 516;
y = 0;
}
);
};
},
{
color = 6;
glyphname = "Ge-cy";
layers = (
{
anchors = (
{
name = bottomright;
position = "{59, 0}";
},
{
name = top;
position = "{377, 700}";
}
);
layerId = "25564DC9-970B-4408-86C9-55005BB51701";
paths = (
{
closed = 1;
nodes = (
"87 0 LINE SMOOTH",
"101 0 OFFCURVE",
"112 10 OFFCURVE",
"115 23 CURVE SMOOTH",
"241 613 LINE",
"551 613 LINE SMOOTH",
"566 613 OFFCURVE",
"576 622 OFFCURVE",
"579 636 CURVE SMOOTH",
"589 676 LINE SMOOTH",
"593 690 OFFCURVE",
"583 700 OFFCURVE",
"569 700 CURVE SMOOTH",
"184 700 LINE SMOOTH",
"170 700 OFFCURVE",
"160 690 OFFCURVE",
"157 676 CURVE SMOOTH",
"17 23 LINE SMOOTH",
"14 10 OFFCURVE",
"22 0 OFFCURVE",
"36 0 CURVE SMOOTH"
);
}
);
width = 522.625;
}
);
leftKerningGroup = afii10026;
rightKerningGroup = afii10020;
unicode = 0413;
userData = {
com.typemytype.robofont.guides = (
{
angle = 90;
isGlobal = 0;
magnetic = 5;
x = 516;
y = 0;
}
);
};
},
{
color = 6;
glyphname = "Gheupturn-cy";
layers = (
{
layerId = "25564DC9-970B-4408-86C9-55005BB51701";
paths = (
{
closed = 1;
nodes = (
"559 840 LINE SMOOTH",
"545 840 OFFCURVE",
"534 830 OFFCURVE",
"532 817 CURVE SMOOTH",
"507 700 LINE",
"196 700 LINE SMOOTH",
"182 700 OFFCURVE",
"171 690 OFFCURVE",
"168 676 CURVE SMOOTH",
"28 23 LINE SMOOTH",
"26 10 OFFCURVE",
"33 0 OFFCURVE",
"47 0 CURVE SMOOTH",
"98 0 LINE SMOOTH",
"112 0 OFFCURVE",
"124 10 OFFCURVE",
"126 23 CURVE SMOOTH",
"252 613 LINE",
"562 613 LINE SMOOTH",
"577 613 OFFCURVE",
"588 622 OFFCURVE",
"590 636 CURVE SMOOTH",
"630 817 LINE SMOOTH",
"632 830 OFFCURVE",
"624 840 OFFCURVE",
"610 840 CURVE SMOOTH"
);
}
);
width = 533.625;
}
);
leftMetricsKey = "En-cy";
rightMetricsKey = "Ge-cy";
unicode = 0490;
},
{
color = 3;
glyphname = "Ghestroke-cy";
layers = (
{
components = (
{
alignment = -1;
name = "Ge-cy";
transform = "{1, 0, 0, 1, 7, 0}";
}
);
layerId = "25564DC9-970B-4408-86C9-55005BB51701";
paths = (
{
closed = 1;
nodes = (
"324 311 LINE SMOOTH",
"338 311 OFFCURVE",
"349 321 OFFCURVE",
"353 334 CURVE SMOOTH",
"357 358 LINE SMOOTH",
"360 372 OFFCURVE",
"352 381 OFFCURVE",
"339 381 CURVE SMOOTH",
"45 381 LINE SMOOTH",
"32 381 OFFCURVE",
"20 372 OFFCURVE",
"17 358 CURVE SMOOTH",
"13 334 LINE SMOOTH",
"10 321 OFFCURVE",
"17 311 OFFCURVE",
"31 311 CURVE SMOOTH"
);
}
);
width = 529.375;
}
);
unicode = 0492;
},
{
color = 6;
glyphname = "Ghemiddlehook-cy";
layers = (
{
layerId = "25564DC9-970B-4408-86C9-55005BB51701";
paths = (
{
closed = 1;
nodes = (
"99 0 LINE SMOOTH",
"113 0 OFFCURVE",
"124 10 OFFCURVE",
"127 23 CURVE SMOOTH",
"253 613 LINE",
"563 613 LINE SMOOTH",
"577 613 OFFCURVE",
"589 622 OFFCURVE",
"591 636 CURVE SMOOTH",
"600 676 LINE SMOOTH",
"603 690 OFFCURVE",
"595 700 OFFCURVE",
"581 700 CURVE SMOOTH",
"196 700 LINE SMOOTH",
"182 700 OFFCURVE",
"171 690 OFFCURVE",
"168 676 CURVE SMOOTH",
"29 23 LINE SMOOTH",
"26 10 OFFCURVE",
"34 0 OFFCURVE",
"47 0 CURVE SMOOTH"
);
},
{
closed = 1;
nodes = (
"172 233 LINE",
"193 335 OFFCURVE",
"287 355 OFFCURVE",
"355 355 CURVE SMOOTH",
"451 355 OFFCURVE",
"484 313 OFFCURVE",
"466 225 CURVE SMOOTH",
"448 140 LINE SMOOTH",
"431 64 OFFCURVE",
"387 5 OFFCURVE",
"265 5 CURVE SMOOTH",
"260 5 LINE SMOOTH",
"246 5 OFFCURVE",
"235 -5 OFFCURVE",
"232 -18 CURVE SMOOTH",
"224 -55 LINE SMOOTH",
"222 -68 OFFCURVE",
"229 -78 OFFCURVE",
"243 -78 CURVE SMOOTH",
"248 -78 LINE SMOOTH",
"424 -78 OFFCURVE",
"518 12 OFFCURVE",
"546 140 CURVE SMOOTH",
"564 225 LINE SMOOTH",
"593 361 OFFCURVE",
"529 443 OFFCURVE",
"392 443 CURVE SMOOTH",
"308 443 OFFCURVE",
"240 419 OFFCURVE",
"195 373 CURVE"
);
}
);
width = 628.5;
}
);
leftMetricsKey = "En-cy";
rightMetricsKey = "Dje-cy";
unicode = 0494;
},
{
color = 6;
glyphname = "De-cy";
layers = (
{
layerId = "25564DC9-970B-4408-86C9-55005BB51701";
paths = (
{
closed = 1;
nodes = (
"8 -139 LINE SMOOTH",
"22 -139 OFFCURVE",
"34 -130 OFFCURVE",
"37 -116 CURVE SMOOTH",
"61 0 LINE",
"516 0 LINE",
"492 -116 LINE SMOOTH",
"489 -130 OFFCURVE",
"496 -139 OFFCURVE",
"510 -139 CURVE SMOOTH",
"561 -139 LINE SMOOTH",
"575 -139 OFFCURVE",
"587 -130 OFFCURVE",
"590 -116 CURVE SMOOTH",
"628 67 LINE SMOOTH",
"631 80 OFFCURVE",
"623 90 OFFCURVE",
"609 90 CURVE SMOOTH",
"560 90 LINE",
"685 676 LINE SMOOTH",
"688 690 OFFCURVE",
"680 700 OFFCURVE",
"666 700 CURVE SMOOTH",
"276 700 LINE SMOOTH",
"263 700 OFFCURVE",
"251 690 OFFCURVE",
"248 677 CURVE SMOOTH",
"203 462 LINE SMOOTH",
"148 205 OFFCURVE",
"89 90 OFFCURVE",
"27 90 CURVE SMOOTH",
"5 90 LINE SMOOTH",
"-8 90 OFFCURVE",
"-20 80 OFFCURVE",
"-23 67 CURVE SMOOTH",
"-61 -116 LINE SMOOTH",
"-64 -130 OFFCURVE",
"-57 -139 OFFCURVE",
"-43 -139 CURVE SMOOTH"
);
},
{
closed = 1;
nodes = (
"210 148 OFFCURVE",
"256 259 OFFCURVE",
"296 449 CURVE SMOOTH",
"330 610 LINE",
"573 610 LINE",
"462 90 LINE",
"155 90 LINE"
);
}
);
width = 712.5625;
}
);
rightMetricsKey = "Tse-cy";
unicode = 0414;
userData = {
com.typemytype.robofont.guides = (
{
angle = 0;
isGlobal = 0;
magnetic = 5;
x = 0;
y = "-110";
}
);
};
},
{
color = 6;
glyphname = "Zhe-cy";
layers = (
{
anchors = (
{
name = bottomright;
position = "{860, 0}";
},
{
name = top;
position = "{609, 700}";
}
);
layerId = "25564DC9-970B-4408-86C9-55005BB51701";
paths = (
{
closed = 1;
nodes = (
"976 700 LINE SMOOTH",
"958 700 OFFCURVE",
"947 694 OFFCURVE",
"938 684 CURVE",
"703 400 LINE",
"592 400 LINE",
"651 677 LINE",
"653 690 OFFCURVE",
"646 700 OFFCURVE",
"632 700 CURVE SMOOTH",
"582 700 LINE SMOOTH",
"569 700 OFFCURVE",
"557 690 OFFCURVE",
"555 677 CURVE",
"495 400 LINE",
"385 400 LINE",
"267 684 LINE SMOOTH",
"263 694 OFFCURVE",
"253 700 OFFCURVE",
"236 700 CURVE SMOOTH",
"188 700 LINE SMOOTH",
"173 700 OFFCURVE",
"165 691 OFFCURVE",
"163 680 CURVE",
"162 676 OFFCURVE",
"163 672 OFFCURVE",
"165 667 CURVE SMOOTH",
"292 361 LINE",
"12 35 LINE",
"9 32 OFFCURVE",
"8 27 OFFCURVE",
"7 24 CURVE SMOOTH",
"4 11 OFFCURVE",
"12 0 OFFCURVE",
"25 0 CURVE SMOOTH",
"90 0 LINE SMOOTH",
"105 0 OFFCURVE",
"112 7 OFFCURVE",
"119 15 CURVE SMOOTH",
"373 310 LINE",
"477 310 LINE",
"415 23 LINE",
"413 9 OFFCURVE",
"421 0 OFFCURVE",
"434 0 CURVE SMOOTH",
"484 0 LINE SMOOTH",
"498 0 OFFCURVE",
"509 9 OFFCURVE",
"512 22 CURVE",
"573 310 LINE",
"698 310 LINE",
"835 15 LINE SMOOTH",
"839 7 OFFCURVE",
"844 0 OFFCURVE",
"859 0 CURVE SMOOTH",
"910 0 LINE SMOOTH",
"922 0 OFFCURVE",
"934 11 OFFCURVE",
"937 24 CURVE SMOOTH",
"938 27 OFFCURVE",
"938 32 OFFCURVE",
"937 35 CURVE",
"787 361 LINE",
"1044 667 LINE SMOOTH",
"1047 672 OFFCURVE",
"1050 676 OFFCURVE",
"1051 680 CURVE SMOOTH",
"1054 691 OFFCURVE",
"1049 700 OFFCURVE",
"1035 700 CURVE SMOOTH"
);
}
);
width = 1044.8125;
}
);
leftMetricsKey = "=|Ka-cy";
rightMetricsKey = "Ka-cy";
unicode = 0416;
},
{
color = 6;
glyphname = "Ze-cy";
layers = (
{
anchors = (
{
name = bottom;
position = "{250, 0}";
},
{
name = top;
position = "{379, 700}";
}
);
layerId = "25564DC9-970B-4408-86C9-55005BB51701";
paths = (
{
closed = 1;
nodes = (
"395 -10 OFFCURVE",
"509 74 OFFCURVE",
"535 196 CURVE SMOOTH",
"550 269 OFFCURVE",
"532 333 OFFCURVE",
"468 368 CURVE",
"535 403 OFFCURVE",
"568 462 OFFCURVE",
"581 522 CURVE SMOOTH",
"601 618 OFFCURVE",
"532 710 OFFCURVE",
"372 710 CURVE SMOOTH",
"212 710 OFFCURVE",
"120 636 OFFCURVE",
"89 533 CURVE SMOOTH",
"86 521 OFFCURVE",
"94 512 OFFCURVE",
"106 512 CURVE SMOOTH",
"159 512 LINE SMOOTH",
"171 512 OFFCURVE",
"180 517 OFFCURVE",
"188 532 CURVE SMOOTH",
"215 597 OFFCURVE",
"279 625 OFFCURVE",
"361 625 CURVE SMOOTH",
"440 625 OFFCURVE",
"494 583 OFFCURVE",
"481 517 CURVE SMOOTH",
"463 438 OFFCURVE",
"400 404 OFFCURVE",
"318 404 CURVE SMOOTH",
"250 404 LINE SMOOTH",
"237 404 OFFCURVE",
"225 394 OFFCURVE",
"222 380 CURVE SMOOTH",
"215 345 LINE SMOOTH",
"212 332 OFFCURVE",
"219 322 OFFCURVE",
"232 322 CURVE SMOOTH",
"304 322 LINE SMOOTH",
"401 322 OFFCURVE",
"453 277 OFFCURVE",
"436 198 CURVE SMOOTH",
"419 120 OFFCURVE",
"332 75 OFFCURVE",
"240 75 CURVE SMOOTH",
"152 75 OFFCURVE",
"105 112 OFFCURVE",
"101 166 CURVE SMOOTH",
"99 184 OFFCURVE",
"90 187 OFFCURVE",
"77 187 CURVE SMOOTH",
"28 187 LINE SMOOTH",
"16 187 OFFCURVE",
"3 180 OFFCURVE",
"2 168 CURVE SMOOTH",
"-9 70 OFFCURVE",
"68 -10 OFFCURVE",
"231 -10 CURVE SMOOTH"
);
}
);
width = 613.875;
}
);
rightMetricsKey = "Ve-cy";
unicode = 0417;
userData = {
com.typemytype.robofont.guides = (
{
angle = 0;
isGlobal = 0;
magnetic = 5;
x = 0;
y = "-10";
},
{
angle = 0;
isGlobal = 0;
magnetic = 5;
x = 0;
y = 180;
},
{
angle = 90;
isGlobal = 0;
magnetic = 5;
x = 61;
y = 0;
},
{
angle = 90;
isGlobal = 0;
magnetic = 5;
x = 309;
y = 0;
}
);
};
},
{
color = 6;
glyphname = "Ii-cy";
layers = (
{
anchors = (
{
name = bottomright;
position = "{667, 0}";
},
{
name = top;
position = "{454, 700}";
}
);
layerId = "25564DC9-970B-4408-86C9-55005BB51701";
paths = (
{
closed = 1;
nodes = (
"98 0 LINE SMOOTH",
"113 0 OFFCURVE",
"121 9 OFFCURVE",
"125 14 CURVE SMOOTH",
"609 536 LINE",
"499 23 LINE SMOOTH",
"496 10 OFFCURVE",
"504 0 OFFCURVE",
"519 0 CURVE SMOOTH",
"570 0 LINE SMOOTH",
"583 0 OFFCURVE",
"594 10 OFFCURVE",
"597 23 CURVE SMOOTH",
"737 676 LINE SMOOTH",
"740 690 OFFCURVE",
"731 700 OFFCURVE",
"718 700 CURVE SMOOTH",
"668 700 LINE SMOOTH",
"654 700 OFFCURVE",
"645 691 OFFCURVE",
"641 686 CURVE SMOOTH",
"156 158 LINE",
"266 676 LINE SMOOTH",
"269 690 OFFCURVE",
"261 700 OFFCURVE",
"248 700 CURVE SMOOTH",
"196 700 LINE SMOOTH",
"182 700 OFFCURVE",
"171 690 OFFCURVE",
"168 676 CURVE SMOOTH",
"29 24 LINE SMOOTH",
"26 10 OFFCURVE",
"34 0 OFFCURVE",
"47 0 CURVE SMOOTH"
);
}
);
width = 742.375;
}
);
leftKerningGroup = afii10026;
leftMetricsKey = "En-cy";
rightKerningGroup = afii10026;
rightMetricsKey = "En-cy";
unicode = 0418;
},
{
color = 6;
glyphname = "Ka-cy";
layers = (
{
anchors = (
{
name = bottomright;
position = "{462, 0}";
},
{
name = top;
position = "{406, 700}";
}
);
layerId = "25564DC9-970B-4408-86C9-55005BB51701";
paths = (
{
closed = 1;
nodes = (
"590 700 LINE SMOOTH",
"573 700 OFFCURVE",
"561 694 OFFCURVE",
"552 684 CURVE",
"318 400 LINE",
"206 400 LINE",
"266 676 LINE",
"268 690 OFFCURVE",
"260 700 OFFCURVE",
"246 700 CURVE SMOOTH",
"195 700 LINE SMOOTH",
"181 700 OFFCURVE",
"170 690 OFFCURVE",
"168 676 CURVE",
"28 23 LINE",
"26 9 OFFCURVE",
"33 0 OFFCURVE",
"47 0 CURVE SMOOTH",
"98 0 LINE SMOOTH",
"112 0 OFFCURVE",
"124 10 OFFCURVE",
"126 23 CURVE",
"187 310 LINE",
"311 310 LINE",
"441 15 LINE SMOOTH",
"445 7 OFFCURVE",
"450 0 OFFCURVE",
"465 0 CURVE SMOOTH",
"516 0 LINE SMOOTH",
"529 0 OFFCURVE",
"541 11 OFFCURVE",
"543 24 CURVE SMOOTH",
"544 27 OFFCURVE",
"544 32 OFFCURVE",
"543 35 CURVE",
"401 361 LINE",
"658 667 LINE SMOOTH",
"662 672 OFFCURVE",
"665 676 OFFCURVE",
"666 680 CURVE",
"668 691 OFFCURVE",
"664 700 OFFCURVE",
"649 700 CURVE SMOOTH"
);
}
);
width = 651.0625;
}
);
leftKerningGroup = afii10026;
leftMetricsKey = "En-cy";
rightKerningGroup = afii10028;
unicode = 041A;
},
{
color = 6;
glyphname = "El-cy";
layers = (
{
layerId = "25564DC9-970B-4408-86C9-55005BB51701";
paths = (
{
closed = 1;
nodes = (
"522 0 LINE SMOOTH",
"536 0 OFFCURVE",
"548 10 OFFCURVE",
"550 23 CURVE SMOOTH",
"690 676 LINE SMOOTH",
"692 690 OFFCURVE",
"684 700 OFFCURVE",
"670 700 CURVE SMOOTH",
"274 700 LINE SMOOTH",
"261 700 OFFCURVE",
"250 690 OFFCURVE",
"247 677 CURVE SMOOTH",
"201 462 LINE SMOOTH",
"146 203 OFFCURVE",
"76 104 OFFCURVE",
"-9 92 CURVE",
"-22 90 OFFCURVE",
"-33 81 OFFCURVE",
"-35 69 CURVE SMOOTH",
"-44 25 LINE SMOOTH",
"-47 11 OFFCURVE",
"-39 0 OFFCURVE",
"-26 1 CURVE SMOOTH",
"136 10 OFFCURVE",
"227 128 OFFCURVE",
"295 449 CURVE SMOOTH",
"329 610 LINE",
"578 610 LINE",
"452 23 LINE SMOOTH",
"450 10 OFFCURVE",
"457 0 OFFCURVE",
"471 0 CURVE SMOOTH"
);
}
);
width = 695.4375;
}
);
leftKerningGroup = afii10029;
rightKerningGroup = afii10026;
rightMetricsKey = "En-cy";
unicode = 041B;
userData = {
com.typemytype.robofont.guides = (
{
angle = 0;
isGlobal = 0;
magnetic = 5;
x = 0;
y = "-10";
}
);
};
},
{
color = 6;
glyphname = "Pe-cy";
layers = (
{
anchors = (
{
name = bottomright;
position = "{492, 0}";
}
);
layerId = "25564DC9-970B-4408-86C9-55005BB51701";
paths = (
{
closed = 1;
nodes = (
"87 0 LINE SMOOTH",
"101 0 OFFCURVE",
"112 10 OFFCURVE",
"115 23 CURVE SMOOTH",
"240 610 LINE",
"584 610 LINE",
"459 23 LINE SMOOTH",
"456 10 OFFCURVE",
"464 0 OFFCURVE",
"478 0 CURVE SMOOTH",
"529 0 LINE SMOOTH",
"543 0 OFFCURVE",
"554 10 OFFCURVE",
"557 23 CURVE SMOOTH",
"697 676 LINE SMOOTH",
"700 690 OFFCURVE",
"691 700 OFFCURVE",
"677 700 CURVE SMOOTH",
"184 700 LINE SMOOTH",
"170 700 OFFCURVE",
"160 690 OFFCURVE",
"157 676 CURVE SMOOTH",
"17 23 LINE SMOOTH",
"14 9 OFFCURVE",
"22 0 OFFCURVE",
"36 0 CURVE"
);
}
);
width = 713.5;
}
);
leftKerningGroup = afii10026;
rightKerningGroup = afii10026;
unicode = 041F;
userData = {
com.typemytype.robofont.guides = (
{
angle = 90;
isGlobal = 0;
magnetic = 5;
x = 85;
y = 0;
}
);
};
},
{
color = 6;
glyphname = "U-cy";
layers = (
{
anchors = (
{
name = top;
position = "{379, 700}";
}
);
layerId = "25564DC9-970B-4408-86C9-55005BB51701";
paths = (
{
closed = 1;
nodes = (
"87 0 LINE SMOOTH",
"208 0 OFFCURVE",
"261 63 OFFCURVE",
"354 204 CURVE SMOOTH",
"656 666 LINE SMOOTH",
"658 670 OFFCURVE",
"661 674 OFFCURVE",
"662 680 CURVE SMOOTH",
"664 691 OFFCURVE",
"657 700 OFFCURVE",
"645 700 CURVE SMOOTH",
"591 700 LINE SMOOTH",
"580 700 OFFCURVE",
"569 694 OFFCURVE",
"562 683 CURVE SMOOTH",
"273 239 LINE SMOOTH",
"205 133 OFFCURVE",
"164 89 OFFCURVE",
"101 89 CURVE SMOOTH",
"66 89 LINE SMOOTH",
"52 89 OFFCURVE",
"41 79 OFFCURVE",
"38 65 CURVE SMOOTH",
"29 23 LINE SMOOTH",
"26 10 OFFCURVE",
"34 0 OFFCURVE",
"48 0 CURVE SMOOTH"
);
},
{
closed = 1;
nodes = (
"318 270 LINE",
"178 683 LINE SMOOTH",
"174 694 OFFCURVE",
"168 700 OFFCURVE",
"157 700 CURVE SMOOTH",
"111 700 LINE SMOOTH",
"99 700 OFFCURVE",
"87 691 OFFCURVE",
"86 679 CURVE SMOOTH",
"85 675 OFFCURVE",
"86 672 OFFCURVE",
"87 668 CURVE SMOOTH",
"254 170 LINE"
);
}
);
width = 588.3125;
}
);
leftKerningGroup = afii10037;
rightKerningGroup = afii10037;
unicode = 0423;
userData = {
com.typemytype.robofont.guides = (
{
angle = 90;
isGlobal = 0;
magnetic = 5;
x = 4678;
y = 0;
},
{
angle = 90;
isGlobal = 0;
magnetic = 5;
x = 6607;
y = 0;
},
{
angle = 90;
isGlobal = 0;
magnetic = 5;
x = 6901;
y = 0;
}
);
};
},
{
color = 6;
glyphname = "Ef-cy";
layers = (
{
layerId = "25564DC9-970B-4408-86C9-55005BB51701";
paths = (
{
closed = 1;
nodes = (
"383 -32 LINE SMOOTH",
"397 -32 OFFCURVE",
"408 -22 OFFCURVE",
"411 -9 CURVE SMOOTH",
"427 70 LINE",
"626 70 OFFCURVE",
"748 155 OFFCURVE",
"801 329 CURVE SMOOTH",
"808 355 OFFCURVE",
"811 373 OFFCURVE",
"813 391 CURVE SMOOTH",
"841 557 OFFCURVE",
"725 658 OFFCURVE",
"553 658 CURVE",
"567 727 LINE SMOOTH",
"570 741 OFFCURVE",
"563 750 OFFCURVE",
"549 750 CURVE SMOOTH",
"497 750 LINE SMOOTH",
"484 750 OFFCURVE",
"472 741 OFFCURVE",
"469 727 CURVE SMOOTH",
"455 658 LINE",
"267 658 OFFCURVE",
"128 572 OFFCURVE",
"82 399 CURVE SMOOTH",
"76 378 OFFCURVE",
"70 350 OFFCURVE",
"67 329 CURVE SMOOTH",
"47 171 OFFCURVE",
"147 70 OFFCURVE",
"329 70 CURVE",
"313 -9 LINE SMOOTH",
"310 -22 OFFCURVE",
"318 -32 OFFCURVE",
"331 -32 CURVE SMOOTH"
);
},
{
closed = 1;
nodes = (
"216 156 OFFCURVE",
"149 209 OFFCURVE",
"168 334 CURVE SMOOTH",
"172 356 OFFCURVE",
"175 372 OFFCURVE",
"181 395 CURVE SMOOTH",
"218 520 OFFCURVE",
"305 573 OFFCURVE",
"437 573 CURVE",
"348 156 LINE"
);
},
{
closed = 1;
nodes = (
"534 573 LINE",
"666 573 OFFCURVE",
"728 520 OFFCURVE",
"714 395 CURVE SMOOTH",
"713 375 OFFCURVE",
"707 354 OFFCURVE",
"702 334 CURVE SMOOTH",
"669 209 OFFCURVE",
"578 156 OFFCURVE",
"446 156 CURVE"
);
}
);
width = 854.9375;
}
);
leftMetricsKey = O;
rightMetricsKey = O;
unicode = 0424;
userData = {
com.typemytype.robofont.guides = (
{
angle = 0;
isGlobal = 0;
magnetic = 5;
x = 0;
y = 183;
},
{
angle = 0;
isGlobal = 0;
magnetic = 5;
x = 0;
y = 350;
},
{
angle = 0;
isGlobal = 0;
magnetic = 5;
x = 0;
y = 535;
},
{
angle = 0;
isGlobal = 0;
magnetic = 5;
x = 0;
y = 595;
},
{
angle = 90;
isGlobal = 0;
magnetic = 5;
x = 50;
y = 0;
}
);
};
},
{
color = 6;
glyphname = "Che-cy";
layers = (
{
anchors = (
{
name = bottomright;
position = "{456, 0}";
},
{
name = top;
position = "{402, 700}";
}
);
layerId = "25564DC9-970B-4408-86C9-55005BB51701";
paths = (
{
closed = 1;
nodes = (
"492 0 LINE SMOOTH",
"507 0 OFFCURVE",
"517 10 OFFCURVE",
"520 23 CURVE SMOOTH",
"660 677 LINE SMOOTH",
"663 690 OFFCURVE",
"655 700 OFFCURVE",
"640 700 CURVE SMOOTH",
"589 700 LINE SMOOTH",
"576 700 OFFCURVE",
"565 690 OFFCURVE",
"562 677 CURVE SMOOTH",
"507 424 LINE SMOOTH",
"489 339 OFFCURVE",
"388 321 OFFCURVE",
"327 321 CURVE SMOOTH",
"214 321 OFFCURVE",
"181 363 OFFCURVE",
"200 453 CURVE SMOOTH",
"248 677 LINE SMOOTH",
"251 690 OFFCURVE",
"243 700 OFFCURVE",
"229 700 CURVE SMOOTH",
"177 700 LINE SMOOTH",
"164 700 OFFCURVE",
"153 690 OFFCURVE",
"150 677 CURVE SMOOTH",
"101 447 LINE SMOOTH",
"72 313 OFFCURVE",
"138 230 OFFCURVE",
"291 230 CURVE SMOOTH",
"353 230 OFFCURVE",
"439 245 OFFCURVE",
"477 280 CURVE",
"422 23 LINE SMOOTH",
"419 10 OFFCURVE",
"428 0 OFFCURVE",
"441 0 CURVE SMOOTH"
);
}
);
width = 665.625;
}
);
rightKerningGroup = afii10026;
unicode = 0427;
userData = {
com.typemytype.robofont.guides = (
{
angle = 0;
isGlobal = 0;
magnetic = 5;
x = 0;
y = 700;
},
{
angle = 0;
isGlobal = 0;
magnetic = 5;
x = 0;
y = 434;
},
{
angle = 0;
isGlobal = 0;
magnetic = 5;
x = 0;
y = 206;
},
{
angle = 0;
isGlobal = 0;
magnetic = 5;
x = 0;
y = 1286;
},
{
angle = 90;
isGlobal = 0;
magnetic = 5;
x = 1609;
y = 0;
},
{
angle = 90;
isGlobal = 0;
magnetic = 5;
x = 50;
y = 0;
}
);
};
},
{
color = 6;
glyphname = "Tse-cy";
layers = (
{
layerId = "25564DC9-970B-4408-86C9-55005BB51701";
paths = (
{
closed = 1;
nodes = (
"584 -140 LINE SMOOTH",
"598 -140 OFFCURVE",
"609 -130 OFFCURVE",
"612 -117 CURVE SMOOTH",
"652 67 LINE SMOOTH",
"654 80 OFFCURVE",
"646 90 OFFCURVE",
"632 90 CURVE SMOOTH",
"583 90 LINE",
"708 677 LINE SMOOTH",
"711 690 OFFCURVE",
"703 700 OFFCURVE",
"689 700 CURVE SMOOTH",
"638 700 LINE SMOOTH",
"624 700 OFFCURVE",
"613 690 OFFCURVE",
"610 677 CURVE SMOOTH",
"485 90 LINE",
"141 90 LINE",
"266 677 LINE SMOOTH",
"269 690 OFFCURVE",
"261 700 OFFCURVE",
"247 700 CURVE SMOOTH",
"195 700 LINE SMOOTH",
"182 700 OFFCURVE",
"171 691 OFFCURVE",
"168 677 CURVE SMOOTH",
"29 24 LINE SMOOTH",
"26 10 OFFCURVE",
"33 0 OFFCURVE",
"46 0 CURVE SMOOTH",
"538 0 LINE",
"514 -117 LINE SMOOTH",
"511 -130 OFFCURVE",
"519 -140 OFFCURVE",
"532 -140 CURVE SMOOTH"
);
}
);
width = 735.375;
}
);
leftKerningGroup = afii10026;
leftMetricsKey = "En-cy";
rightKerningGroup = afii10040;
unicode = 0426;
userData = {
com.typemytype.robofont.guides = (
{
angle = 0;
isGlobal = 0;
magnetic = 5;
x = 0;
y = "-110";
},
{
angle = 90;
isGlobal = 0;
magnetic = 5;
x = 85;
y = 0;
}
);
};
},
{
color = 6;
glyphname = "Sha-cy";
layers = (
{
layerId = "25564DC9-970B-4408-86C9-55005BB51701";
paths = (
{
closed = 1;
nodes = (
"784 0 LINE SMOOTH",
"799 0 OFFCURVE",
"810 10 OFFCURVE",
"812 23 CURVE SMOOTH",
"952 677 LINE SMOOTH",
"954 690 OFFCURVE",
"947 700 OFFCURVE",
"932 700 CURVE SMOOTH",
"881 700 LINE SMOOTH",
"868 700 OFFCURVE",
"856 690 OFFCURVE",
"854 677 CURVE SMOOTH",
"728 90 LINE",
"483 90 LINE",
"609 677 LINE SMOOTH",
"611 690 OFFCURVE",
"603 700 OFFCURVE",
"589 700 CURVE SMOOTH",
"538 700 LINE",
"525 700 OFFCURVE",
"513 690 OFFCURVE",
"511 677 CURVE SMOOTH",
"385 90 LINE",
"140 90 LINE",
"266 677 LINE SMOOTH",
"268 690 OFFCURVE",
"260 700 OFFCURVE",
"246 700 CURVE SMOOTH",
"195 700 LINE SMOOTH",
"181 700 OFFCURVE",
"170 691 OFFCURVE",
"168 677 CURVE SMOOTH",
"28 23 LINE SMOOTH",
"26 10 OFFCURVE",
"33 0 OFFCURVE",
"47 0 CURVE SMOOTH"
);
}
);
width = 957.5625;
}
);
leftKerningGroup = afii10026;
leftMetricsKey = "En-cy";
rightKerningGroup = afii10026;
rightMetricsKey = "En-cy";
unicode = 0428;
userData = {
com.typemytype.robofont.guides = (
{
angle = 90;
isGlobal = 0;
magnetic = 5;
x = 422;
y = 0;
}
);
};
},
{
color = 6;
glyphname = "Shcha-cy";
layers = (
{
layerId = "25564DC9-970B-4408-86C9-55005BB51701";
paths = (
{
closed = 1;
nodes = (
"827 -140 LINE SMOOTH",
"841 -140 OFFCURVE",
"853 -130 OFFCURVE",
"855 -117 CURVE SMOOTH",
"895 67 LINE SMOOTH",
"897 80 OFFCURVE",
"890 90 OFFCURVE",
"876 90 CURVE SMOOTH",
"826 90 LINE",
"952 677 LINE SMOOTH",
"954 690 OFFCURVE",
"947 700 OFFCURVE",
"932 700 CURVE SMOOTH",
"881 700 LINE SMOOTH",
"868 700 OFFCURVE",
"856 690 OFFCURVE",
"854 677 CURVE SMOOTH",
"728 90 LINE",
"483 90 LINE",
"609 677 LINE SMOOTH",
"612 690 OFFCURVE",
"603 700 OFFCURVE",
"589 700 CURVE SMOOTH",
"538 700 LINE SMOOTH",
"525 700 OFFCURVE",
"514 690 OFFCURVE",
"511 677 CURVE SMOOTH",
"385 90 LINE",
"140 90 LINE",
"266 677 LINE SMOOTH",
"269 690 OFFCURVE",
"260 700 OFFCURVE",
"246 700 CURVE SMOOTH",
"195 700 LINE SMOOTH",
"181 700 OFFCURVE",
"171 691 OFFCURVE",
"168 677 CURVE SMOOTH",
"28 23 LINE SMOOTH",
"25 10 OFFCURVE",
"32 0 OFFCURVE",
"46 0 CURVE",
"782 0 LINE",
"757 -117 LINE SMOOTH",
"755 -130 OFFCURVE",
"762 -140 OFFCURVE",
"776 -140 CURVE SMOOTH"
);
}
);
width = 978.8125;
}
);
leftKerningGroup = afii10026;
leftMetricsKey = "En-cy";
rightKerningGroup = afii10040;
rightMetricsKey = "Tse-cy";
unicode = 0429;
userData = {
com.typemytype.robofont.guides = (
{
angle = 0;
isGlobal = 0;
magnetic = 5;
x = 0;
y = "-110";
},
{
angle = 0;
isGlobal = 0;
magnetic = 5;
x = 0;
y = 60;
}
);
};
},
{
color = 6;
glyphname = "Dzhe-cy";
layers = (
{
layerId = "25564DC9-970B-4408-86C9-55005BB51701";
paths = (
{
closed = 1;
nodes = (
"289 -140 LINE SMOOTH",
"303 -140 OFFCURVE",
"314 -130 OFFCURVE",
"317 -117 CURVE SMOOTH",
"341 0 LINE",
"539 0 LINE SMOOTH",
"553 0 OFFCURVE",
"565 10 OFFCURVE",
"568 23 CURVE SMOOTH",
"708 677 LINE SMOOTH",
"710 690 OFFCURVE",
"702 700 OFFCURVE",
"688 700 CURVE SMOOTH",
"637 700 LINE SMOOTH",
"623 700 OFFCURVE",
"612 690 OFFCURVE",
"610 677 CURVE SMOOTH",
"484 90 LINE",
"140 90 LINE",
"266 677 LINE SMOOTH",
"268 690 OFFCURVE",
"260 700 OFFCURVE",
"246 700 CURVE SMOOTH",
"195 700 LINE SMOOTH",
"181 700 OFFCURVE",
"170 691 OFFCURVE",
"168 677 CURVE SMOOTH",
"28 23 LINE SMOOTH",
"25 10 OFFCURVE",
"32 0 OFFCURVE",
"46 0 CURVE SMOOTH",
"243 0 LINE",
"219 -117 LINE SMOOTH",
"216 -130 OFFCURVE",
"224 -140 OFFCURVE",
"237 -140 CURVE"
);
}
);
width = 713.3125;
}
);
leftKerningGroup = afii10026;
leftMetricsKey = "En-cy";
rightKerningGroup = afii10026;
rightMetricsKey = "En-cy";
unicode = 040F;
userData = {
com.typemytype.robofont.guides = (
{
angle = 0;
isGlobal = 0;
magnetic = 5;
x = 0;
y = "-110";
},
{
angle = 90;
isGlobal = 0;
magnetic = 5;
x = 1327;
y = 0;
},
{
angle = 90;
isGlobal = 0;
magnetic = 5;
x = 1072;
y = 0;
},
{
angle = 90;
isGlobal = 0;
magnetic = 5;
x = 85;
y = 0;
}
);
};
},
{
color = 6;
glyphname = "Softsign-cy";
layers = (
{
layerId = "25564DC9-970B-4408-86C9-55005BB51701";
paths = (
{
closed = 1;
nodes = (
"275 0 LINE SMOOTH",
"429 0 OFFCURVE",
"524 106 OFFCURVE",
"549 220 CURVE SMOOTH",
"576 345 OFFCURVE",
"519 430 OFFCURVE",
"366 430 CURVE SMOOTH",
"213 430 LINE",
"266 677 LINE SMOOTH",
"269 690 OFFCURVE",
"260 700 OFFCURVE",
"246 700 CURVE SMOOTH",
"195 700 LINE",
"181 700 OFFCURVE",
"170 690 OFFCURVE",
"168 677 CURVE SMOOTH",
"28 23 LINE SMOOTH",
"26 10 OFFCURVE",
"33 0 OFFCURVE",
"47 0 CURVE SMOOTH"
);
},
{
closed = 1;
nodes = (
"196 351 LINE",
"341 351 LINE SMOOTH",
"432 351 OFFCURVE",
"467 307 OFFCURVE",
"450 222 CURVE SMOOTH",
"432 139 OFFCURVE",
"370 84 OFFCURVE",
"283 84 CURVE SMOOTH",
"139 84 LINE"
);
}
);
width = 614.4375;
}
);
leftKerningGroup = afii10026;
leftMetricsKey = "En-cy";
rightKerningGroup = afii10046;
unicode = 042C;
},
{
color = 6;
glyphname = "Yeru-cy";
layers = (
{
anchors = (
{
name = top;
position = "{498, 700}";
}
);
layerId = "25564DC9-970B-4408-86C9-55005BB51701";
paths = (
{
closed = 1;
nodes = (
"250 0 LINE SMOOTH",
"405 0 OFFCURVE",
"500 106 OFFCURVE",
"524 220 CURVE SMOOTH",
"551 345 OFFCURVE",
"495 430 OFFCURVE",
"342 430 CURVE SMOOTH",
"213 430 LINE",
"266 677 LINE SMOOTH",
"269 690 OFFCURVE",
"260 700 OFFCURVE",
"246 700 CURVE SMOOTH",
"195 700 LINE",
"181 700 OFFCURVE",
"171 690 OFFCURVE",
"168 677 CURVE SMOOTH",
"28 23 LINE SMOOTH",
"25 10 OFFCURVE",
"33 0 OFFCURVE",
"47 0 CURVE SMOOTH"
);
},
{
closed = 1;
nodes = (
"196 351 LINE",
"316 351 LINE",
"408 351 OFFCURVE",
"443 307 OFFCURVE",
"425 222 CURVE SMOOTH",
"408 139 OFFCURVE",
"346 84 OFFCURVE",
"259 84 CURVE SMOOTH",
"139 84 LINE"
);
},
{
closed = 1;
nodes = (
"650 0 LINE SMOOTH",
"664 0 OFFCURVE",
"674 10 OFFCURVE",
"677 23 CURVE SMOOTH",
"817 677 LINE SMOOTH",
"820 690 OFFCURVE",
"812 700 OFFCURVE",
"798 700 CURVE SMOOTH",
"745 700 LINE SMOOTH",
"731 700 OFFCURVE",
"721 690 OFFCURVE",
"718 677 CURVE SMOOTH",
"578 23 LINE SMOOTH",
"575 10 OFFCURVE",
"583 0 OFFCURVE",
"597 0 CURVE SMOOTH"
);
}
);
width = 822.75;
}
);
leftKerningGroup = afii10026;
leftMetricsKey = "En-cy";
rightKerningGroup = afii10026;
rightMetricsKey = "En-cy";
unicode = 042B;
},
{
color = 6;
glyphname = "Hardsign-cy";
layers = (
{
anchors = (
{
name = top;
position = "{455, 700}";
}
);
layerId = "25564DC9-970B-4408-86C9-55005BB51701";
paths = (
{
closed = 1;
nodes = (
"382 0 LINE SMOOTH",
"537 0 OFFCURVE",
"632 106 OFFCURVE",
"656 220 CURVE SMOOTH",
"683 345 OFFCURVE",
"626 430 OFFCURVE",
"473 430 CURVE SMOOTH",
"328 430 LINE",
"381 677 LINE SMOOTH",
"384 690 OFFCURVE",
"376 700 OFFCURVE",
"362 700 CURVE SMOOTH",
"130 700 LINE SMOOTH",
"116 700 OFFCURVE",
"105 690 OFFCURVE",
"103 676 CURVE SMOOTH",
"94 638 LINE SMOOTH",
"91 624 OFFCURVE",
"99 615 OFFCURVE",
"112 615 CURVE SMOOTH",
"270 615 LINE",
"144 23 LINE SMOOTH",
"141 10 OFFCURVE",
"149 0 OFFCURVE",
"162 0 CURVE SMOOTH"
);
},
{
closed = 1;
nodes = (
"312 351 LINE",
"448 351 LINE SMOOTH",
"540 351 OFFCURVE",
"575 307 OFFCURVE",
"557 222 CURVE SMOOTH",
"540 139 OFFCURVE",
"477 84 OFFCURVE",
"391 84 CURVE SMOOTH",
"254 84 LINE"
);
}
);
width = 721.9375;
}
);
leftMetricsKey = T;
rightKerningGroup = afii10046;
rightMetricsKey = "Softsign-cy";
unicode = 042A;
userData = {
com.typemytype.robofont.guides = (
{
angle = 90;
isGlobal = 0;
magnetic = 5;
x = 160;
y = 0;
},
{
angle = 90;
isGlobal = 0;
magnetic = 5;
x = 41;
y = 0;
}
);
};
},
{
color = 6;
glyphname = "Lje-cy";
layers = (
{
layerId = "25564DC9-970B-4408-86C9-55005BB51701";
paths = (
{
closed = 1;
nodes = (
"136 9 OFFCURVE",
"227 128 OFFCURVE",
"295 449 CURVE SMOOTH",
"329 610 LINE",
"553 610 LINE",
"428 23 LINE SMOOTH",
"426 10 OFFCURVE",
"433 0 OFFCURVE",
"446 0 CURVE SMOOTH",
"650 0 LINE SMOOTH",
"805 0 OFFCURVE",
"900 106 OFFCURVE",
"924 220 CURVE SMOOTH",
"953 352 OFFCURVE",
"895 430 OFFCURVE",
"741 430 CURVE SMOOTH",
"613 430 LINE",
"665 677 LINE SMOOTH",
"668 690 OFFCURVE",
"660 700 OFFCURVE",
"647 700 CURVE SMOOTH",
"274 700 LINE SMOOTH",
"261 700 OFFCURVE",
"250 690 OFFCURVE",
"247 677 CURVE SMOOTH",
"201 462 LINE SMOOTH",
"146 203 OFFCURVE",
"76 104 OFFCURVE",
"-9 92 CURVE SMOOTH",
"-22 90 OFFCURVE",
"-33 81 OFFCURVE",
"-35 69 CURVE SMOOTH",
"-44 25 LINE SMOOTH",
"-47 11 OFFCURVE",
"-39 0 OFFCURVE",
"-26 1 CURVE SMOOTH"
);
},
{
closed = 1;
nodes = (
"596 351 LINE",
"716 351 LINE SMOOTH",
"808 351 OFFCURVE",
"843 307 OFFCURVE",
"825 222 CURVE SMOOTH",
"808 139 OFFCURVE",
"745 84 OFFCURVE",
"659 84 CURVE SMOOTH",
"539 84 LINE"
);
}
);
width = 989.875;
}
);
leftKerningGroup = afii10029;
leftMetricsKey = "El-cy";
rightKerningGroup = afii10046;
rightMetricsKey = "Softsign-cy";
unicode = 0409;
},
{
color = 6;
glyphname = "Nje-cy";
layers = (
{
layerId = "25564DC9-970B-4408-86C9-55005BB51701";
paths = (
{
closed = 1;
nodes = (
"98 0 LINE SMOOTH",
"112 0 OFFCURVE",
"124 10 OFFCURVE",
"126 23 CURVE SMOOTH",
"187 310 LINE",
"515 310 LINE",
"454 23 LINE SMOOTH",
"452 10 OFFCURVE",
"459 0 OFFCURVE",
"472 0 CURVE SMOOTH",
"676 0 LINE SMOOTH",
"831 0 OFFCURVE",
"927 106 OFFCURVE",
"950 220 CURVE SMOOTH",
"976 345 OFFCURVE",
"920 430 OFFCURVE",
"767 430 CURVE SMOOTH",
"638 430 LINE",
"691 677 LINE SMOOTH",
"694 690 OFFCURVE",
"686 700 OFFCURVE",
"673 700 CURVE",
"620 700 LINE SMOOTH",
"607 700 OFFCURVE",
"596 690 OFFCURVE",
"593 676 CURVE SMOOTH",
"534 400 LINE",
"206 400 LINE",
"266 676 LINE SMOOTH",
"268 690 OFFCURVE",
"260 700 OFFCURVE",
"246 700 CURVE SMOOTH",
"195 700 LINE SMOOTH",
"181 700 OFFCURVE",
"170 690 OFFCURVE",
"168 676 CURVE SMOOTH",
"28 23 LINE SMOOTH",
"26 9 OFFCURVE",
"33 0 OFFCURVE",
"47 0 CURVE SMOOTH"
);
},
{
closed = 1;
nodes = (
"622 351 LINE",
"742 351 LINE SMOOTH",
"834 351 OFFCURVE",
"869 307 OFFCURVE",
"851 222 CURVE SMOOTH",
"834 139 OFFCURVE",
"771 84 OFFCURVE",
"685 84 CURVE SMOOTH",
"565 84 LINE"
);
}
);
width = 1015.875;
}
);
leftKerningGroup = afii10026;
leftMetricsKey = "En-cy";
rightKerningGroup = afii10046;
rightMetricsKey = "Softsign-cy";
unicode = 040A;
},
{
color = 6;
glyphname = "E-cy";
layers = (
{
layerId = "25564DC9-970B-4408-86C9-55005BB51701";
paths = (
{
closed = 1;
nodes = (
"411 -10 OFFCURVE",
"529 59 OFFCURVE",
"565 167 CURVE SMOOTH",
"568 179 OFFCURVE",
"560 187 OFFCURVE",
"548 187 CURVE SMOOTH",
"495 187 LINE SMOOTH",
"481 187 OFFCURVE",
"475 183 OFFCURVE",
"466 167 CURVE SMOOTH",
"441 116 OFFCURVE",
"382 75 OFFCURVE",
"286 75 CURVE SMOOTH",
"176 75 OFFCURVE",
"130 155 OFFCURVE",
"159 287 CURVE SMOOTH",
"163 310 LINE",
"406 310 LINE SMOOTH",
"420 310 OFFCURVE",
"431 320 OFFCURVE",
"434 334 CURVE SMOOTH",
"442 368 LINE SMOOTH",
"445 382 OFFCURVE",
"437 392 OFFCURVE",
"424 392 CURVE SMOOTH",
"181 392 LINE",
"184 412 LINE SMOOTH",
"216 559 OFFCURVE",
"293 625 OFFCURVE",
"403 625 CURVE SMOOTH",
"499 625 OFFCURVE",
"540 583 OFFCURVE",
"543 532 CURVE SMOOTH",
"544 517 OFFCURVE",
"548 512 OFFCURVE",
"562 512 CURVE SMOOTH",
"615 512 LINE SMOOTH",
"627 512 OFFCURVE",
"640 521 OFFCURVE",
"641 533 CURVE SMOOTH",
"651 640 OFFCURVE",
"566 710 OFFCURVE",
"420 710 CURVE SMOOTH",
"267 710 OFFCURVE",
"137 626 OFFCURVE",
"84 411 CURVE SMOOTH",
"76 374 OFFCURVE",
"65 324 OFFCURVE",
"59 289 CURVE SMOOTH",
"19 73 OFFCURVE",
"112 -10 OFFCURVE",
"266 -10 CURVE SMOOTH"
);
}
);
width = 637.5625;
}
);
leftKerningGroup = afii10032;
unicode = 0404;
userData = {
com.typemytype.robofont.guides = (
{
angle = 0;
isGlobal = 0;
magnetic = 5;
x = 0;
y = 350;
}
);
};
},
{
color = 6;
glyphname = "Ereversed-cy";
layers = (
{
anchors = (
{
name = top;
position = "{415, 700}";
}
);
layerId = "25564DC9-970B-4408-86C9-55005BB51701";
paths = (
{
closed = 1;
nodes = (
"387 -10 OFFCURVE",
"516 73 OFFCURVE",
"569 289 CURVE SMOOTH",
"579 334 OFFCURVE",
"585 364 OFFCURVE",
"594 411 CURVE SMOOTH",
"634 626 OFFCURVE",
"540 710 OFFCURVE",
"387 710 CURVE SMOOTH",
"242 710 OFFCURVE",
"125 641 OFFCURVE",
"89 533 CURVE SMOOTH",
"86 521 OFFCURVE",
"94 512 OFFCURVE",
"106 512 CURVE SMOOTH",
"159 512 LINE SMOOTH",
"173 512 OFFCURVE",
"179 517 OFFCURVE",
"188 532 CURVE SMOOTH",
"212 583 OFFCURVE",
"271 625 OFFCURVE",
"367 625 CURVE SMOOTH",
"477 625 OFFCURVE",
"525 558 OFFCURVE",
"494 412 CURVE SMOOTH",
"491 392 LINE",
"247 392 LINE SMOOTH",
"234 392 OFFCURVE",
"222 382 OFFCURVE",
"219 368 CURVE SMOOTH",
"212 334 LINE SMOOTH",
"209 320 OFFCURVE",
"216 310 OFFCURVE",
"230 310 CURVE SMOOTH",
"473 310 LINE",
"468 287 LINE SMOOTH",
"440 155 OFFCURVE",
"359 75 OFFCURVE",
"250 75 CURVE SMOOTH",
"154 75 OFFCURVE",
"113 116 OFFCURVE",
"109 167 CURVE SMOOTH",
"107 182 OFFCURVE",
"103 187 OFFCURVE",
"89 187 CURVE SMOOTH",
"36 187 LINE SMOOTH",
"24 187 OFFCURVE",
"12 179 OFFCURVE",
"11 167 CURVE SMOOTH",
"1 60 OFFCURVE",
"87 -10 OFFCURVE",
"233 -10 CURVE SMOOTH"
);
}
);
width = 641.1875;
}
);
rightKerningGroup = afii10032;
unicode = 042D;
userData = {
com.typemytype.robofont.guides = (
{
angle = 0;
isGlobal = 0;
magnetic = 5;
x = 0;
y = 541;
},
{
angle = 0;
isGlobal = 0;
magnetic = 5;
x = 0;
y = 159;
},
{
angle = 0;
isGlobal = 0;
magnetic = 5;
x = 0;
y = 350;
},
{
angle = 90;
isGlobal = 0;
magnetic = 5;
x = 204;
y = 0;
},
{
angle = 90;
isGlobal = 0;
magnetic = 5;
x = 296;
y = 0;
}
);
};
},
{
color = 6;
glyphname = "Tshe-cy";
layers = (
{
layerId = "25564DC9-970B-4408-86C9-55005BB51701";
paths = (
{
closed = 1;
nodes = (
"190 0 LINE SMOOTH",
"203 0 OFFCURVE",
"215 10 OFFCURVE",
"217 23 CURVE SMOOTH",
"269 265 LINE SMOOTH",
"287 352 OFFCURVE",
"393 370 OFFCURVE",
"455 370 CURVE SMOOTH",
"552 370 OFFCURVE",
"581 335 OFFCURVE",
"562 242 CURVE SMOOTH",
"515 23 LINE SMOOTH",
"513 10 OFFCURVE",
"520 0 OFFCURVE",
"534 0 CURVE SMOOTH",
"586 0 LINE SMOOTH",
"599 0 OFFCURVE",
"611 10 OFFCURVE",
"613 23 CURVE SMOOTH",
"661 250 LINE SMOOTH",
"691 386 OFFCURVE",
"632 460 OFFCURVE",
"488 460 CURVE SMOOTH",
"426 460 OFFCURVE",
"338 444 OFFCURVE",
"298 401 CURVE",
"344 618 LINE",
"568 618 LINE SMOOTH",
"581 618 OFFCURVE",
"593 627 OFFCURVE",
"595 640 CURVE SMOOTH",
"603 677 LINE SMOOTH",
"605 691 OFFCURVE",
"598 700 OFFCURVE",
"584 700 CURVE SMOOTH",
"129 700 LINE SMOOTH",
"116 700 OFFCURVE",
"105 691 OFFCURVE",
"103 677 CURVE SMOOTH",
"94 640 LINE SMOOTH",
"92 627 OFFCURVE",
"99 618 OFFCURVE",
"112 618 CURVE SMOOTH",
"246 618 LINE",
"119 23 LINE SMOOTH",
"117 10 OFFCURVE",
"125 0 OFFCURVE",
"139 0 CURVE SMOOTH"
);
}
);
width = 724.8125;
}
);
leftMetricsKey = T;
rightMetricsKey = "=|Che-cy";
unicode = 040B;
userData = {
com.typemytype.robofont.guides = (
{
angle = 90;
isGlobal = 0;
magnetic = 5;
x = 50;
y = 0;
},
{
angle = 90;
isGlobal = 0;
magnetic = 5;
x = 413;
y = 0;
}
);
};
},
{
color = 6;
glyphname = "Iu-cy";
layers = (
{
anchors = (
{
name = top;
position = "{569, 700}";
}
);
layerId = "25564DC9-970B-4408-86C9-55005BB51701";
paths = (
{
closed = 1;
nodes = (
"731 -10 OFFCURVE",
"833 110 OFFCURVE",
"871 265 CURVE SMOOTH",
"886 324 OFFCURVE",
"897 375 OFFCURVE",
"907 434 CURVE SMOOTH",
"934 585 OFFCURVE",
"885 710 OFFCURVE",
"689 710 CURVE SMOOTH",
"496 710 OFFCURVE",
"395 587 OFFCURVE",
"355 441 CURVE SMOOTH",
"351 427 OFFCURVE",
"348 412 OFFCURVE",
"344 400 CURVE",
"195 400 LINE",
"255 677 LINE SMOOTH",
"257 690 OFFCURVE",
"249 700 OFFCURVE",
"235 700 CURVE SMOOTH",
"184 700 LINE SMOOTH",
"170 700 OFFCURVE",
"159 690 OFFCURVE",
"157 677 CURVE SMOOTH",
"17 23 LINE SMOOTH",
"15 9 OFFCURVE",
"22 0 OFFCURVE",
"36 0 CURVE SMOOTH",
"87 0 LINE SMOOTH",
"101 0 OFFCURVE",
"113 10 OFFCURVE",
"115 23 CURVE SMOOTH",
"176 310 LINE",
"325 310 LINE",
"322 294 OFFCURVE",
"320 278 OFFCURVE",
"316 261 CURVE SMOOTH",
"291 109 OFFCURVE",
"341 -10 OFFCURVE",
"535 -10 CURVE SMOOTH"
);
},
{
closed = 1;
nodes = (
"453 75 OFFCURVE",
"392 129 OFFCURVE",
"417 266 CURVE SMOOTH",
"428 325 OFFCURVE",
"438 375 OFFCURVE",
"453 434 CURVE SMOOTH",
"487 571 OFFCURVE",
"571 625 OFFCURVE",
"671 625 CURVE SMOOTH",
"771 625 OFFCURVE",
"832 571 OFFCURVE",
"807 434 CURVE SMOOTH",
"797 375 OFFCURVE",
"786 325 OFFCURVE",
"771 266 CURVE SMOOTH",
"738 129 OFFCURVE",
"655 75 OFFCURVE",
"554 75 CURVE SMOOTH"
);
}
);
width = 950.75;
}
);
leftKerningGroup = afii10026;
rightKerningGroup = afii10032;
unicode = 042E;
userData = {
com.typemytype.robofont.guides = (
{
angle = 0;
isGlobal = 0;
magnetic = 5;
x = 0;
y = 355;
}
);
};
},
{
color = 6;
glyphname = "Ia-cy";
layers = (
{
anchors = (
{
name = top;
position = "{421, 700}";
}
);
layerId = "25564DC9-970B-4408-86C9-55005BB51701";
paths = (
{
closed = 1;
nodes = (
"480 0 LINE",
"493 0 OFFCURVE",
"505 10 OFFCURVE",
"507 23 CURVE SMOOTH",
"647 677 LINE SMOOTH",
"649 690 OFFCURVE",
"641 700 OFFCURVE",
"628 700 CURVE SMOOTH",
"407 700 LINE SMOOTH",
"244 700 OFFCURVE",
"150 601 OFFCURVE",
"124 481 CURVE SMOOTH",
"98 359 OFFCURVE",
"170 266 OFFCURVE",
"324 266 CURVE SMOOTH",
"460 266 LINE",
"409 23 LINE SMOOTH",
"407 10 OFFCURVE",
"414 0 OFFCURVE",
"428 0 CURVE SMOOTH"
);
},
{
closed = 1;
nodes = (
"84 0 LINE SMOOTH",
"106 0 OFFCURVE",
"116 13 OFFCURVE",
"127 27 CURVE SMOOTH",
"354 296 LINE",
"256 311 LINE",
"18 31 LINE SMOOTH",
"15 27 OFFCURVE",
"14 24 OFFCURVE",
"13 20 CURVE SMOOTH",
"11 9 OFFCURVE",
"18 0 OFFCURVE",
"30 0 CURVE SMOOTH"
);
},
{
closed = 1;
nodes = (
"248 350 OFFCURVE",
"206 394 OFFCURVE",
"223 479 CURVE SMOOTH",
"241 561 OFFCURVE",
"303 616 OFFCURVE",
"389 616 CURVE SMOOTH",
"536 616 LINE",
"478 350 LINE",
"340 350 LINE SMOOTH"
);
}
);
width = 652.1875;
}
);
rightKerningGroup = afii10026;
rightMetricsKey = "En-cy";
unicode = 042F;
},
{
color = 6;
glyphname = "Dje-cy";
layers = (
{
layerId = "25564DC9-970B-4408-86C9-55005BB51701";
paths = (
{
closed = 1;
nodes = (
"190 0 LINE SMOOTH",
"203 0 OFFCURVE",
"215 10 OFFCURVE",
"217 23 CURVE SMOOTH",
"270 269 LINE SMOOTH",
"289 360 OFFCURVE",
"392 374 OFFCURVE",
"463 374 CURVE SMOOTH",
"546 374 OFFCURVE",
"578 337 OFFCURVE",
"562 246 CURVE SMOOTH",
"557 218 LINE SMOOTH",
"540 142 OFFCURVE",
"496 83 OFFCURVE",
"374 83 CURVE SMOOTH",
"367 83 LINE SMOOTH",
"353 83 OFFCURVE",
"342 73 OFFCURVE",
"339 60 CURVE SMOOTH",
"331 23 LINE SMOOTH",
"329 10 OFFCURVE",
"336 0 OFFCURVE",
"350 0 CURVE SMOOTH",
"357 0 LINE SMOOTH",
"533 0 OFFCURVE",
"627 90 OFFCURVE",
"655 218 CURVE SMOOTH",
"662 254 LINE SMOOTH",
"691 390 OFFCURVE",
"633 463 OFFCURVE",
"489 463 CURVE SMOOTH",
"426 463 OFFCURVE",
"338 448 OFFCURVE",
"299 405 CURVE",
"344 618 LINE",
"568 618 LINE SMOOTH",
"581 618 OFFCURVE",
"593 627 OFFCURVE",
"595 640 CURVE SMOOTH",
"603 677 LINE SMOOTH",
"605 691 OFFCURVE",
"598 700 OFFCURVE",
"584 700 CURVE SMOOTH",
"129 700 LINE SMOOTH",
"116 700 OFFCURVE",
"105 691 OFFCURVE",
"103 677 CURVE SMOOTH",
"94 640 LINE SMOOTH",
"92 627 OFFCURVE",
"99 618 OFFCURVE",
"112 618 CURVE SMOOTH",
"246 618 LINE",
"119 23 LINE SMOOTH",
"117 10 OFFCURVE",
"125 0 OFFCURVE",
"139 0 CURVE SMOOTH"
);
}
);
width = 720.75;
}
);
leftMetricsKey = T;
unicode = 0402;
userData = {
com.typemytype.robofont.guides = (
{
angle = 90;
isGlobal = 0;
magnetic = 5;
x = 50;
y = 0;
},
{
angle = 90;
isGlobal = 0;
magnetic = 5;
x = 413;
y = 0;
},
{
angle = 90;
isGlobal = 0;
magnetic = 5;
x = 485;
y = 0;
}
);
};
},
{
color = 3;
glyphname = "Yat-cy";
layers = (
{
components = (
{
alignment = -1;
name = "Softsign-cy";
transform = "{1, 0, 0, 1, 57, 0}";
}
);
layerId = "25564DC9-970B-4408-86C9-55005BB51701";
paths = (
{
closed = 1;
nodes = (
"484 528 LINE",
"498 528 OFFCURVE",
"509 537 OFFCURVE",
"512 550 CURVE SMOOTH",
"517 577 LINE SMOOTH",
"520 591 OFFCURVE",
"514 600 OFFCURVE",
"499 600 CURVE SMOOTH",
"108 600 LINE SMOOTH",
"95 600 OFFCURVE",
"84 591 OFFCURVE",
"81 577 CURVE SMOOTH",
"76 550 LINE SMOOTH",
"73 537 OFFCURVE",
"80 528 OFFCURVE",
"93 528 CURVE"
);
}
);
width = 671.4375;
}
);
leftMetricsKey = T;
rightMetricsKey = "Softsign-cy";
unicode = 0462;
},
{
color = 6;
glyphname = "Yusbig-cy";
layers = (
{
layerId = "25564DC9-970B-4408-86C9-55005BB51701";
paths = (
{
closed = 1;
nodes = (
"79 0 LINE SMOOTH",
"90 0 OFFCURVE",
"100 5 OFFCURVE",
"105 15 CURVE SMOOTH",
"230 230 LINE SMOOTH",
"261 284 OFFCURVE",
"287 303 OFFCURVE",
"342 303 CURVE SMOOTH",
"420 303 LINE",
"359 23 LINE SMOOTH",
"357 10 OFFCURVE",
"365 0 OFFCURVE",
"379 0 CURVE SMOOTH",
"430 0 LINE SMOOTH",
"444 0 OFFCURVE",
"455 10 OFFCURVE",
"457 23 CURVE SMOOTH",
"518 303 LINE",
"595 303 LINE SMOOTH",
"650 303 OFFCURVE",
"666 284 OFFCURVE",
"676 230 CURVE SMOOTH",
"709 15 LINE SMOOTH",
"710 5 OFFCURVE",
"718 0 OFFCURVE",
"729 0 CURVE SMOOTH",
"783 0 LINE SMOOTH",
"800 0 OFFCURVE",
"814 17 OFFCURVE",
"811 35 CURVE SMOOTH",
"775 263 LINE SMOOTH",
"760 358 OFFCURVE",
"713 385 OFFCURVE",
"629 387 CURVE SMOOTH",
"584 387 LINE",
"876 666 LINE SMOOTH",
"881 671 OFFCURVE",
"883 675 OFFCURVE",
"884 680 CURVE SMOOTH",
"886 691 OFFCURVE",
"879 700 OFFCURVE",
"867 700 CURVE SMOOTH",
"230 700 LINE SMOOTH",
"219 700 OFFCURVE",
"208 691 OFFCURVE",
"206 679 CURVE SMOOTH",
"205 674 OFFCURVE",
"205 670 OFFCURVE",
"207 667 CURVE SMOOTH",
"384 387 LINE",
"340 387 LINE SMOOTH",
"258 385 OFFCURVE",
"199 358 OFFCURVE",
"145 263 CURVE SMOOTH",
"11 35 LINE SMOOTH",
"1 18 OFFCURVE",
"8 0 OFFCURVE",
"25 0 CURVE SMOOTH"
);
},
{
closed = 1;
nodes = (
"339 618 LINE",
"720 618 LINE",
"446 355 LINE",
"505 350 LINE"
);
}
);
width = 918.4375;
}
);
leftMetricsKey = "Zhe-cy";
rightMetricsKey = "Zhe-cy";
unicode = 046A;
},
{
color = 6;
glyphname = "Fita-cy";
layers = (
{
layerId = "25564DC9-970B-4408-86C9-55005BB51701";
paths = (
{
closed = 1;
nodes = (
"557 318 LINE",
"572 390 LINE",
"159 390 LINE",
"144 318 LINE"
);
},
{
closed = 1;
nodes = (
"444 -10 OFFCURVE",
"563 78 OFFCURVE",
"609 265 CURVE SMOOTH",
"623 324 OFFCURVE",
"634 375 OFFCURVE",
"645 434 CURVE SMOOTH",
"678 618 OFFCURVE",
"590 710 OFFCURVE",
"427 710 CURVE SMOOTH",
"263 710 OFFCURVE",
"135 618 OFFCURVE",
"91 434 CURVE SMOOTH",
"76 375 OFFCURVE",
"65 324 OFFCURVE",
"54 265 CURVE SMOOTH",
"20 78 OFFCURVE",
"101 -10 OFFCURVE",
"273 -10 CURVE SMOOTH"
);
},
{
closed = 1;
nodes = (
"190 75 OFFCURVE",
"131 133 OFFCURVE",
"155 270 CURVE SMOOTH",
"166 330 OFFCURVE",
"175 371 OFFCURVE",
"190 430 CURVE SMOOTH",
"223 567 OFFCURVE",
"308 625 OFFCURVE",
"408 625 CURVE SMOOTH",
"508 625 OFFCURVE",
"569 567 OFFCURVE",
"544 430 CURVE SMOOTH",
"533 371 OFFCURVE",
"525 330 OFFCURVE",
"510 270 CURVE SMOOTH",
"476 133 OFFCURVE",
"392 75 OFFCURVE",
"291 75 CURVE SMOOTH"
);
}
);
width = 677;
}
);
leftMetricsKey = O;
rightMetricsKey = O;
unicode = 0472;
},
{
color = 6;
glyphname = "Izhitsa-cy";
layers = (
{
anchors = (
{
name = top;
position = "{430, 700}";
}
);
layerId = "25564DC9-970B-4408-86C9-55005BB51701";
paths = (
{
closed = 1;
nodes = (
"292 0 LINE SMOOTH",
"312 0 OFFCURVE",
"324 10 OFFCURVE",
"334 26 CURVE",
"581 493 LINE SMOOTH",
"631 587 OFFCURVE",
"657 616 OFFCURVE",
"699 616 CURVE SMOOTH",
"710 616 LINE SMOOTH",
"720 616 OFFCURVE",
"730 623 OFFCURVE",
"732 634 CURVE SMOOTH",
"742 678 LINE SMOOTH",
"746 696 OFFCURVE",
"741 708 OFFCURVE",
"723 708 CURVE",
"710 708 LINE",
"624 706 OFFCURVE",
"571 650 OFFCURVE",
"502 520 CURVE SMOOTH",
"284 114 LINE",
"210 678 LINE",
"209 690 OFFCURVE",
"203 700 OFFCURVE",
"187 700 CURVE SMOOTH",
"138 700 LINE SMOOTH",
"117 700 OFFCURVE",
"111 689 OFFCURVE",
"113 669 CURVE SMOOTH",
"200 26 LINE SMOOTH",
"202 10 OFFCURVE",
"212 0 OFFCURVE",
"231 0 CURVE SMOOTH"
);
}
);
width = 672.6875;
}
);
leftMetricsKey = V;
unicode = 0474;
},
{
color = 3;
glyphname = "Zhedescender-cy";
layers = (
{
anchors = (
{
name = _bottomright;
position = "{860, 0}";
}
);
components = (
{
alignment = -1;
name = "Zhe-cy";
}
);
layerId = "25564DC9-970B-4408-86C9-55005BB51701";
paths = (
{
closed = 1;
nodes = (
"935 -140 LINE SMOOTH",
"950 -140 OFFCURVE",
"960 -130 OFFCURVE",
"963 -117 CURVE SMOOTH",
"1003 67 LINE SMOOTH",
"1006 80 OFFCURVE",
"998 90 OFFCURVE",
"984 90 CURVE SMOOTH",
"837 90 LINE",
"868 0 LINE",
"891 0 LINE",
"865 -117 LINE SMOOTH",
"862 -130 OFFCURVE",
"871 -140 OFFCURVE",
"884 -140 CURVE SMOOTH"
);
}
);
width = 1062.125;
}
);
leftMetricsKey = "Zhe-cy";
rightMetricsKey = "Kadescender-cy";
unicode = 0496;
},
{
color = 3;
glyphname = "Zedescender-cy";
layers = (
{
components = (
{
alignment = -1;
name = "Ze-cy";
}
);
layerId = "25564DC9-970B-4408-86C9-55005BB51701";
paths = (
{
closed = 1;
nodes = (
"237 -140 LINE SMOOTH",
"251 -140 OFFCURVE",
"262 -130 OFFCURVE",
"264 -117 CURVE SMOOTH",
"298 43 LINE",
"194 11 LINE",
"166 -117 LINE SMOOTH",
"164 -130 OFFCURVE",
"172 -140 OFFCURVE",
"185 -140 CURVE SMOOTH"
);
}
);
width = 613.875;
}
);
leftMetricsKey = "Ze-cy";
rightMetricsKey = "Ze-cy";
unicode = 0498;
},
{
color = 3;
glyphname = "Kadescender-cy";
layers = (
{
components = (
{
alignment = -1;
name = "Ka-cy";
}
);
layerId = "25564DC9-970B-4408-86C9-55005BB51701";
paths = (
{
closed = 1;
nodes = (
"543 -140 LINE SMOOTH",
"558 -140 OFFCURVE",
"568 -130 OFFCURVE",
"571 -117 CURVE SMOOTH",
"611 67 LINE SMOOTH",
"614 80 OFFCURVE",
"606 90 OFFCURVE",
"592 90 CURVE SMOOTH",
"445 90 LINE",
"469 0 LINE",
"498 0 LINE",
"473 -117 LINE SMOOTH",
"470 -130 OFFCURVE",
"479 -140 OFFCURVE",
"492 -140 CURVE SMOOTH"
);
}
);
width = 670.125;
}
);
leftMetricsKey = "En-cy";
unicode = 049A;
},
{
color = 6;
glyphname = "Kaverticalstroke-cy";
layers = (
{
layerId = "25564DC9-970B-4408-86C9-55005BB51701";
paths = (
{
closed = 1;
nodes = (
"248 198 LINE SMOOTH",
"262 198 OFFCURVE",
"273 207 OFFCURVE",
"275 221 CURVE SMOOTH",
"333 491 LINE SMOOTH",
"336 505 OFFCURVE",
"328 514 OFFCURVE",
"315 514 CURVE SMOOTH",
"309 514 LINE SMOOTH",
"296 514 OFFCURVE",
"285 505 OFFCURVE",
"282 491 CURVE SMOOTH",
"224 221 LINE SMOOTH",
"222 207 OFFCURVE",
"229 198 OFFCURVE",
"243 198 CURVE SMOOTH"
);
},
{
closed = 1;
nodes = (
"595 700 LINE SMOOTH",
"578 700 OFFCURVE",
"566 694 OFFCURVE",
"557 684 CURVE",
"318 393 LINE",
"195 394 LINE",
"256 676 LINE",
"258 690 OFFCURVE",
"250 700 OFFCURVE",
"236 700 CURVE SMOOTH",
"185 700 LINE SMOOTH",
"171 700 OFFCURVE",
"160 690 OFFCURVE",
"158 676 CURVE",
"18 23 LINE",
"16 9 OFFCURVE",
"23 0 OFFCURVE",
"37 0 CURVE SMOOTH",
"88 0 LINE SMOOTH",
"102 0 OFFCURVE",
"114 10 OFFCURVE",
"116 23 CURVE",
"179 315 LINE",
"312 315 LINE",
"444 15 LINE SMOOTH",
"448 7 OFFCURVE",
"454 0 OFFCURVE",
"468 0 CURVE SMOOTH",
"517 0 LINE SMOOTH",
"532 0 OFFCURVE",
"545 15 OFFCURVE",
"546 28 CURVE SMOOTH",
"546 30 OFFCURVE",
"546 32 OFFCURVE",
"545 35 CURVE",
"404 358 LINE",
"663 667 LINE SMOOTH",
"668 674 OFFCURVE",
"671 681 OFFCURVE",
"671 685 CURVE SMOOTH",
"672 694 OFFCURVE",
"665 700 OFFCURVE",
"654 700 CURVE SMOOTH"
);
}
);
width = 653.6875;
}
);
rightMetricsKey = "Ka-cy";
unicode = 049C;
},
{
color = 3;
glyphname = "Kabashkir-cy";
layers = (
{
components = (
{
alignment = -1;
name = "Ka-cy";
transform = "{1, 0, 0, 1, 150, 0}";
}
);
layerId = "25564DC9-970B-4408-86C9-55005BB51701";
paths = (
{
closed = 1;
nodes = (
"416 676 LINE",
"418 690 OFFCURVE",
"410 700 OFFCURVE",
"396 700 CURVE SMOOTH",
"130 700 LINE SMOOTH",
"116 700 OFFCURVE",
"105 690 OFFCURVE",
"103 676 CURVE SMOOTH",
"93 634 LINE SMOOTH",
"91 621 OFFCURVE",
"98 611 OFFCURVE",
"112 611 CURVE SMOOTH",
"304 611 LINE"
);
}
);
width = 801.1875;
}
);
leftMetricsKey = "Te-cy";
rightMetricsKey = "Ka-cy";
unicode = 04A0;
},
{
color = 3;
glyphname = "Endescender-cy";
layers = (
{
components = (
{
alignment = -1;
name = "En-cy";
transform = "{1, 0, 0, 1, 1, 0}";
}
);
layerId = "25564DC9-970B-4408-86C9-55005BB51701";
paths = (
{
closed = 1;
nodes = (
"584 -140 LINE SMOOTH",
"598 -140 OFFCURVE",
"609 -130 OFFCURVE",
"612 -117 CURVE SMOOTH",
"652 67 LINE SMOOTH",
"655 80 OFFCURVE",
"646 90 OFFCURVE",
"632 90 CURVE SMOOTH",
"485 90 LINE",
"499 0 LINE",
"538 0 LINE",
"514 -117 LINE SMOOTH",
"511 -130 OFFCURVE",
"519 -140 OFFCURVE",
"532 -140 CURVE SMOOTH"
);
}
);
width = 735.375;
}
);
rightMetricsKey = "Tse-cy";
unicode = 04A2;
},
{
color = 6;
glyphname = "Enghe-cy";
layers = (
{
layerId = "25564DC9-970B-4408-86C9-55005BB51701";
paths = (
{
closed = 1;
nodes = (
"637 700 LINE SMOOTH",
"623 700 OFFCURVE",
"612 690 OFFCURVE",
"610 676 CURVE SMOOTH",
"550 400 LINE",
"206 400 LINE",
"266 676 LINE SMOOTH",
"268 690 OFFCURVE",
"260 700 OFFCURVE",
"246 700 CURVE SMOOTH",
"195 700 LINE SMOOTH",
"181 700 OFFCURVE",
"170 690 OFFCURVE",
"168 676 CURVE SMOOTH",
"28 23 LINE SMOOTH",
"26 9 OFFCURVE",
"33 0 OFFCURVE",
"47 0 CURVE SMOOTH",
"98 0 LINE SMOOTH",
"112 0 OFFCURVE",
"124 10 OFFCURVE",
"126 23 CURVE SMOOTH",
"187 310 LINE",
"531 310 LINE",
"470 23 LINE SMOOTH",
"468 10 OFFCURVE",
"475 0 OFFCURVE",
"489 0 CURVE SMOOTH",
"540 0 LINE SMOOTH",
"554 0 OFFCURVE",
"566 10 OFFCURVE",
"568 23 CURVE SMOOTH",
"694 613 LINE",
"963 613 LINE SMOOTH",
"977 613 OFFCURVE",
"988 622 OFFCURVE",
"991 636 CURVE SMOOTH",
"1000 676 LINE SMOOTH",
"1002 690 OFFCURVE",
"995 700 OFFCURVE",
"980 700 CURVE SMOOTH"
);
}
);
width = 933.8125;
}
);
leftMetricsKey = "En-cy";
rightMetricsKey = "Ge-cy";
unicode = 04A4;
},
{
color = 6;
glyphname = "Pedescender-cy";
layers = (
{
layerId = "25564DC9-970B-4408-86C9-55005BB51701";
paths = (
{
closed = 1;
nodes = (
"101 0 LINE SMOOTH",
"115 0 OFFCURVE",
"127 10 OFFCURVE",
"130 23 CURVE SMOOTH",
"255 610 LINE",
"599 610 LINE",
"474 23 LINE SMOOTH",
"471 10 OFFCURVE",
"478 0 OFFCURVE",
"492 0 CURVE SMOOTH",
"543 0 LINE SMOOTH",
"557 0 OFFCURVE",
"569 10 OFFCURVE",
"572 23 CURVE SMOOTH",
"711 676 LINE SMOOTH",
"714 690 OFFCURVE",
"706 700 OFFCURVE",
"692 700 CURVE SMOOTH",
"199 700 LINE SMOOTH",
"185 700 OFFCURVE",
"174 690 OFFCURVE",
"171 676 CURVE SMOOTH",
"32 23 LINE SMOOTH",
"29 9 OFFCURVE",
"36 0 OFFCURVE",
"50 0 CURVE"
);
},
{
closed = 1;
nodes = (
"587 -140 LINE SMOOTH",
"601 -140 OFFCURVE",
"613 -130 OFFCURVE",
"615 -117 CURVE SMOOTH",
"655 67 LINE SMOOTH",
"657 80 OFFCURVE",
"649 90 OFFCURVE",
"635 90 CURVE SMOOTH",
"488 90 LINE",
"503 0 LINE",
"542 0 LINE",
"517 -117 LINE SMOOTH",
"515 -130 OFFCURVE",
"522 -140 OFFCURVE",
"536 -140 CURVE SMOOTH"
);
}
);
width = 738.5625;
}
);
rightMetricsKey = "Tse-cy";
unicode = 0524;
},
{
color = 6;
glyphname = "Esdescender-cy";
layers = (
{
layerId = "25564DC9-970B-4408-86C9-55005BB51701";
paths = (
{
closed = 1;
nodes = (
"273 -140 LINE SMOOTH",
"288 -140 OFFCURVE",
"299 -130 OFFCURVE",
"301 -117 CURVE SMOOTH",
"335 43 LINE",
"231 11 LINE",
"203 -117 LINE SMOOTH",
"201 -130 OFFCURVE",
"209 -140 OFFCURVE",
"222 -140 CURVE SMOOTH"
);
},
{
closed = 1;
nodes = (
"460 -10 OFFCURVE",
"573 102 OFFCURVE",
"602 214 CURVE SMOOTH",
"605 226 OFFCURVE",
"596 234 OFFCURVE",
"584 234 CURVE SMOOTH",
"530 234 LINE SMOOTH",
"517 234 OFFCURVE",
"508 229 OFFCURVE",
"501 211 CURVE SMOOTH",
"455 107 OFFCURVE",
"385 75 OFFCURVE",
"292 75 CURVE SMOOTH",
"185 75 OFFCURVE",
"131 132 OFFCURVE",
"155 266 CURVE SMOOTH",
"165 323 OFFCURVE",
"177 379 OFFCURVE",
"191 434 CURVE SMOOTH",
"223 568 OFFCURVE",
"302 625 OFFCURVE",
"409 625 CURVE SMOOTH",
"502 625 OFFCURVE",
"558 593 OFFCURVE",
"560 489 CURVE SMOOTH",
"560 472 OFFCURVE",
"566 466 OFFCURVE",
"579 466 CURVE SMOOTH",
"634 466 LINE SMOOTH",
"646 466 OFFCURVE",
"658 475 OFFCURVE",
"659 487 CURVE SMOOTH",
"679 598 OFFCURVE",
"613 710 OFFCURVE",
"427 710 CURVE SMOOTH",
"244 710 OFFCURVE",
"132 601 OFFCURVE",
"92 439 CURVE SMOOTH",
"78 382 OFFCURVE",
"63 315 OFFCURVE",
"54 261 CURVE SMOOTH",
"25 98 OFFCURVE",
"90 -10 OFFCURVE",
"274 -10 CURVE SMOOTH"
);
}
);
width = 665.1875;
}
);
unicode = 04AA;
},
{
color = 3;
glyphname = "Ustraitstroke-cy";
layers = (
{
components = (
{
alignment = -1;
name = "Ustrait-cy";
}
);
layerId = "25564DC9-970B-4408-86C9-55005BB51701";
paths = (
{
closed = 1;
nodes = (
"455 219 LINE SMOOTH",
"468 219 OFFCURVE",
"479 229 OFFCURVE",
"482 242 CURVE SMOOTH",
"487 267 LINE SMOOTH",
"490 280 OFFCURVE",
"483 290 OFFCURVE",
"469 290 CURVE SMOOTH",
"155 290 LINE SMOOTH",
"141 290 OFFCURVE",
"130 280 OFFCURVE",
"127 267 CURVE SMOOTH",
"121 242 LINE SMOOTH",
"118 229 OFFCURVE",
"127 219 OFFCURVE",
"140 219 CURVE SMOOTH"
);
}
);
width = 611.5625;
}
);
unicode = 04B0;
},
{
color = 3;
glyphname = "Chedescender-cy";
layers = (
{
components = (
{
alignment = -1;
name = "Che-cy";
}
);
layerId = "25564DC9-970B-4408-86C9-55005BB51701";
paths = (
{
closed = 1;
nodes = (
"536 -140 LINE SMOOTH",
"550 -140 OFFCURVE",
"562 -130 OFFCURVE",
"564 -117 CURVE SMOOTH",
"604 67 LINE SMOOTH",
"606 80 OFFCURVE",
"599 90 OFFCURVE",
"585 90 CURVE SMOOTH",
"437 90 LINE",
"452 0 LINE",
"491 0 LINE",
"466 -117 LINE SMOOTH",
"464 -130 OFFCURVE",
"471 -140 OFFCURVE",
"485 -140 CURVE SMOOTH"
);
}
);
width = 687.875;
}
);
leftMetricsKey = "Che-cy";
rightMetricsKey = "Tse-cy";
unicode = 04B6;
},
{
color = 6;
glyphname = "Cheverticalstroke-cy";
layers = (
{
layerId = "25564DC9-970B-4408-86C9-55005BB51701";
paths = (
{
closed = 1;
nodes = (
"498 0 LINE SMOOTH",
"512 0 OFFCURVE",
"524 10 OFFCURVE",
"526 23 CURVE SMOOTH",
"666 677 LINE SMOOTH",
"668 690 OFFCURVE",
"660 700 OFFCURVE",
"646 700 CURVE SMOOTH",
"595 700 LINE SMOOTH",
"581 700 OFFCURVE",
"570 690 OFFCURVE",
"568 677 CURVE SMOOTH",
"512 416 LINE SMOOTH",
"494 331 OFFCURVE",
"391 314 OFFCURVE",
"329 314 CURVE SMOOTH",
"214 314 OFFCURVE",
"180 356 OFFCURVE",
"199 446 CURVE SMOOTH",
"248 677 LINE SMOOTH",
"250 690 OFFCURVE",
"243 700 OFFCURVE",
"229 700 CURVE SMOOTH",
"177 700 LINE SMOOTH",
"164 700 OFFCURVE",
"152 690 OFFCURVE",
"150 677 CURVE SMOOTH",
"101 447 LINE SMOOTH",
"72 313 OFFCURVE",
"137 230 OFFCURVE",
"295 230 CURVE SMOOTH",
"357 230 OFFCURVE",
"444 245 OFFCURVE",
"483 280 CURVE",
"428 23 LINE SMOOTH",
"426 10 OFFCURVE",
"433 0 OFFCURVE",
"447 0 CURVE SMOOTH"
);
},
{
closed = 1;
nodes = (
"303 128 LINE SMOOTH",
"316 128 OFFCURVE",
"328 137 OFFCURVE",
"331 151 CURVE SMOOTH",
"389 423 LINE SMOOTH",
"392 437 OFFCURVE",
"384 446 OFFCURVE",
"371 446 CURVE SMOOTH",
"366 446 LINE SMOOTH",
"352 446 OFFCURVE",
"340 437 OFFCURVE",
"337 423 CURVE SMOOTH",
"280 151 LINE SMOOTH",
"277 137 OFFCURVE",
"284 128 OFFCURVE",
"297 128 CURVE SMOOTH"
);
}
);
width = 682.5;
}
);
leftMetricsKey = "Che-cy";
unicode = 04B8;
},
{
color = 6;
glyphname = "Shha-cy";
layers = (
{
anchors = (
{
name = bottomright;
position = "{575, 0}";
}
);
layerId = "25564DC9-970B-4408-86C9-55005BB51701";
paths = (
{
closed = 1;
nodes = (
"195 700 LINE SMOOTH",
"181 700 OFFCURVE",
"170 690 OFFCURVE",
"168 677 CURVE SMOOTH",
"28 23 LINE SMOOTH",
"26 10 OFFCURVE",
"33 0 OFFCURVE",
"47 0 CURVE SMOOTH",
"99 0 LINE SMOOTH",
"112 0 OFFCURVE",
"124 10 OFFCURVE",
"126 23 CURVE SMOOTH",
"180 277 LINE SMOOTH",
"198 361 OFFCURVE",
"300 379 OFFCURVE",
"361 379 CURVE SMOOTH",
"474 379 OFFCURVE",
"507 337 OFFCURVE",
"488 247 CURVE SMOOTH",
"440 23 LINE SMOOTH",
"438 10 OFFCURVE",
"445 0 OFFCURVE",
"459 0 CURVE SMOOTH",
"511 0 LINE SMOOTH",
"524 0 OFFCURVE",
"536 10 OFFCURVE",
"538 23 CURVE SMOOTH",
"587 253 LINE SMOOTH",
"616 387 OFFCURVE",
"550 470 OFFCURVE",
"397 470 CURVE SMOOTH",
"335 470 OFFCURVE",
"249 456 OFFCURVE",
"211 420 CURVE",
"266 677 LINE SMOOTH",
"268 690 OFFCURVE",
"260 700 OFFCURVE",
"247 700 CURVE SMOOTH"
);
}
);
width = 649.8125;
}
);
unicode = 04BA;
},
{
color = 3;
glyphname = "Chekhakassian-cy";
layers = (
{
components = (
{
alignment = -1;
name = "Che-cy";
}
);
layerId = "25564DC9-970B-4408-86C9-55005BB51701";
paths = (
{
closed = 1;
nodes = (
"404 -140 OFFCURVE",
"416 -130 OFFCURVE",
"418 -117 CURVE SMOOTH",
"443 0 LINE",
"482 0 LINE",
"531 71 LINE",
"384 71 LINE SMOOTH",
"369 71 OFFCURVE",
"358 62 OFFCURVE",
"356 48 CURVE SMOOTH",
"320 -117 LINE SMOOTH",
"317 -130 OFFCURVE",
"325 -140 OFFCURVE",
"339 -140 CURVE SMOOTH",
"391 -140 LINE SMOOTH"
);
}
);
width = 665.8125;
}
);
unicode = 04CB;
},
{
color = 6;
glyphname = "Aie-cy";
layers = (
{
layerId = "25564DC9-970B-4408-86C9-55005BB51701";
paths = (
{
closed = 1;
nodes = (
"36 0 LINE SMOOTH",
"48 0 OFFCURVE",
"58 8 OFFCURVE",
"65 17 CURVE",
"67 21 OFFCURVE",
"70 27 OFFCURVE",
"173 159 CURVE",
"414 159 LINE",
"384 23 LINE SMOOTH",
"382 10 OFFCURVE",
"389 0 OFFCURVE",
"403 0 CURVE SMOOTH",
"818 0 LINE SMOOTH",
"832 0 OFFCURVE",
"844 10 OFFCURVE",
"846 23 CURVE SMOOTH",
"854 62 LINE SMOOTH",
"857 76 OFFCURVE",
"850 85 OFFCURVE",
"836 85 CURVE SMOOTH",
"494 85 LINE",
"542 312 LINE",
"854 312 LINE SMOOTH",
"869 312 OFFCURVE",
"880 322 OFFCURVE",
"883 335 CURVE SMOOTH",
"891 372 LINE SMOOTH",
"894 386 OFFCURVE",
"886 396 OFFCURVE",
"872 396 CURVE SMOOTH",
"560 396 LINE",
"607 615 LINE",
"941 615 LINE SMOOTH",
"955 615 OFFCURVE",
"967 624 OFFCURVE",
"969 638 CURVE SMOOTH",
"978 676 LINE SMOOTH",
"980 690 OFFCURVE",
"972 700 OFFCURVE",
"958 700 CURVE SMOOTH",
"483 700 LINE SMOOTH",
"470 700 OFFCURVE",
"460 693 OFFCURVE",
"449 678 CURVE SMOOTH",
"27 125 OFFCURVE",
"-5 73 OFFCURVE",
"-27 33 CURVE",
"-30 29 OFFCURVE",
"-32 25 OFFCURVE",
"-33 20 CURVE SMOOTH",
"-35 9 OFFCURVE",
"-28 0 OFFCURVE",
"-17 0 CURVE SMOOTH"
);
},
{
closed = 1;
nodes = (
"502 609 LINE",
"509 609 LINE",
"432 245 LINE",
"228 245 LINE"
);
}
);
width = 954.8125;
}
);
leftMetricsKey = AE;
rightMetricsKey = AE;
unicode = 04D4;
},
